<?xml version="1.0" encoding="utf-8"?>
<svg xmlns="http://www.w3.org/2000/svg" xmlns:xlink="http://www.w3.org/1999/xlink" width="150" height="100" viewBox="0 0 600 400">
<defs>
  <clipPath id="clip490">
    <rect x="0" y="0" width="600" height="400"/>
  </clipPath>
</defs>
<path clip-path="url(#clip490)" d="
M0 400 L600 400 L600 0 L0 0  Z
  " fill="#ffffff" fill-rule="evenodd" fill-opacity="1"/>
<defs>
  <clipPath id="clip491">
    <rect x="120" y="0" width="421" height="400"/>
  </clipPath>
</defs>
<path clip-path="url(#clip490)" d="
M67.4839 355.795 L588.189 355.795 L588.189 11.811 L67.4839 11.811  Z
  " fill="#ffffff" fill-rule="evenodd" fill-opacity="1"/>
<defs>
  <clipPath id="clip492">
    <rect x="67" y="11" width="522" height="345"/>
  </clipPath>
</defs>
<polyline clip-path="url(#clip492)" style="stroke:#000000; stroke-width:0.5; stroke-opacity:0.1; fill:none" points="
  75.2133,355.795 75.2133,11.811 
  "/>
<polyline clip-path="url(#clip492)" style="stroke:#000000; stroke-width:0.5; stroke-opacity:0.1; fill:none" points="
  161.615,355.795 161.615,11.811 
  "/>
<polyline clip-path="url(#clip492)" style="stroke:#000000; stroke-width:0.5; stroke-opacity:0.1; fill:none" points="
  248.016,355.795 248.016,11.811 
  "/>
<polyline clip-path="url(#clip492)" style="stroke:#000000; stroke-width:0.5; stroke-opacity:0.1; fill:none" points="
  334.418,355.795 334.418,11.811 
  "/>
<polyline clip-path="url(#clip492)" style="stroke:#000000; stroke-width:0.5; stroke-opacity:0.1; fill:none" points="
  420.819,355.795 420.819,11.811 
  "/>
<polyline clip-path="url(#clip492)" style="stroke:#000000; stroke-width:0.5; stroke-opacity:0.1; fill:none" points="
  507.22,355.795 507.22,11.811 
  "/>
<polyline clip-path="url(#clip490)" style="stroke:#000000; stroke-width:1; stroke-opacity:1; fill:none" points="
  67.4839,355.795 588.189,355.795 
  "/>
<polyline clip-path="url(#clip490)" style="stroke:#000000; stroke-width:1; stroke-opacity:1; fill:none" points="
  75.2133,355.795 75.2133,351.667 
  "/>
<polyline clip-path="url(#clip490)" style="stroke:#000000; stroke-width:1; stroke-opacity:1; fill:none" points="
  161.615,355.795 161.615,351.667 
  "/>
<polyline clip-path="url(#clip490)" style="stroke:#000000; stroke-width:1; stroke-opacity:1; fill:none" points="
  248.016,355.795 248.016,351.667 
  "/>
<polyline clip-path="url(#clip490)" style="stroke:#000000; stroke-width:1; stroke-opacity:1; fill:none" points="
  334.418,355.795 334.418,351.667 
  "/>
<polyline clip-path="url(#clip490)" style="stroke:#000000; stroke-width:1; stroke-opacity:1; fill:none" points="
  420.819,355.795 420.819,351.667 
  "/>
<polyline clip-path="url(#clip490)" style="stroke:#000000; stroke-width:1; stroke-opacity:1; fill:none" points="
  507.22,355.795 507.22,351.667 
  "/>
<path clip-path="url(#clip490)" d="M 0 0 M63.784 366.756 L71.2029 366.756 L71.2029 367.74 L63.784 367.74 L63.784 366.756 Z" fill="#000000" fill-rule="evenodd" fill-opacity="1" /><path clip-path="url(#clip490)" d="M 0 0 M72.6728 369.979 L74.5825 369.979 L74.5825 363.388 L72.505 363.804 L72.505 362.74 L74.571 362.323 L75.7399 362.323 L75.7399 369.979 L77.6496 369.979 L77.6496 370.963 L72.6728 370.963 L72.6728 369.979 Z" fill="#000000" fill-rule="evenodd" fill-opacity="1" /><path clip-path="url(#clip490)" d="M 0 0 M78.917 369.493 L80.1381 369.493 L80.1381 370.963 L78.917 370.963 L78.917 369.493 Z" fill="#000000" fill-rule="evenodd" fill-opacity="1" /><path clip-path="url(#clip490)" d="M 0 0 M81.417 362.323 L86.0061 362.323 L86.0061 363.307 L82.4876 363.307 L82.4876 365.425 Q82.7422 365.338 82.9968 365.297 Q83.2515 365.251 83.5061 365.251 Q84.9529 365.251 85.7978 366.044 Q86.6427 366.837 86.6427 368.191 Q86.6427 369.586 85.7746 370.361 Q84.9066 371.131 83.3267 371.131 Q82.7827 371.131 82.2156 371.038 Q81.6543 370.946 81.0524 370.76 L81.0524 369.586 Q81.5732 369.869 82.1288 370.008 Q82.6843 370.147 83.3036 370.147 Q84.3047 370.147 84.8892 369.62 Q85.4737 369.094 85.4737 368.191 Q85.4737 367.288 84.8892 366.762 Q84.3047 366.235 83.3036 366.235 Q82.8348 366.235 82.3661 366.339 Q81.9031 366.443 81.417 366.663 L81.417 362.323 Z" fill="#000000" fill-rule="evenodd" fill-opacity="1" /><path clip-path="url(#clip490)" d="M 0 0 M150.061 366.756 L157.48 366.756 L157.48 367.74 L150.061 367.74 L150.061 366.756 Z" fill="#000000" fill-rule="evenodd" fill-opacity="1" /><path clip-path="url(#clip490)" d="M 0 0 M158.95 369.979 L160.86 369.979 L160.86 363.388 L158.782 363.804 L158.782 362.74 L160.848 362.323 L162.017 362.323 L162.017 369.979 L163.927 369.979 L163.927 370.963 L158.95 370.963 L158.95 369.979 Z" fill="#000000" fill-rule="evenodd" fill-opacity="1" /><path clip-path="url(#clip490)" d="M 0 0 M165.194 369.493 L166.415 369.493 L166.415 370.963 L165.194 370.963 L165.194 369.493 Z" fill="#000000" fill-rule="evenodd" fill-opacity="1" /><path clip-path="url(#clip490)" d="M 0 0 M170.182 363.093 Q169.28 363.093 168.822 363.984 Q168.371 364.869 168.371 366.652 Q168.371 368.428 168.822 369.319 Q169.28 370.205 170.182 370.205 Q171.091 370.205 171.542 369.319 Q172 368.428 172 366.652 Q172 364.869 171.542 363.984 Q171.091 363.093 170.182 363.093 M170.182 362.167 Q171.635 362.167 172.399 363.318 Q173.169 364.464 173.169 366.652 Q173.169 368.833 172.399 369.985 Q171.635 371.131 170.182 371.131 Q168.73 371.131 167.96 369.985 Q167.196 368.833 167.196 366.652 Q167.196 364.464 167.96 363.318 Q168.73 362.167 170.182 362.167 Z" fill="#000000" fill-rule="evenodd" fill-opacity="1" /><path clip-path="url(#clip490)" d="M 0 0 M236.433 366.756 L243.852 366.756 L243.852 367.74 L236.433 367.74 L236.433 366.756 Z" fill="#000000" fill-rule="evenodd" fill-opacity="1" /><path clip-path="url(#clip490)" d="M 0 0 M247.62 363.093 Q246.717 363.093 246.26 363.984 Q245.808 364.869 245.808 366.652 Q245.808 368.428 246.26 369.319 Q246.717 370.205 247.62 370.205 Q248.528 370.205 248.98 369.319 Q249.437 368.428 249.437 366.652 Q249.437 364.869 248.98 363.984 Q248.528 363.093 247.62 363.093 M247.62 362.167 Q249.072 362.167 249.836 363.318 Q250.606 364.464 250.606 366.652 Q250.606 368.833 249.836 369.985 Q249.072 371.131 247.62 371.131 Q246.167 371.131 245.398 369.985 Q244.634 368.833 244.634 366.652 Q244.634 364.464 245.398 363.318 Q246.167 362.167 247.62 362.167 Z" fill="#000000" fill-rule="evenodd" fill-opacity="1" /><path clip-path="url(#clip490)" d="M 0 0 M251.873 369.493 L253.094 369.493 L253.094 370.963 L251.873 370.963 L251.873 369.493 Z" fill="#000000" fill-rule="evenodd" fill-opacity="1" /><path clip-path="url(#clip490)" d="M 0 0 M254.373 362.323 L258.962 362.323 L258.962 363.307 L255.444 363.307 L255.444 365.425 Q255.698 365.338 255.953 365.297 Q256.208 365.251 256.462 365.251 Q257.909 365.251 258.754 366.044 Q259.599 366.837 259.599 368.191 Q259.599 369.586 258.731 370.361 Q257.863 371.131 256.283 371.131 Q255.739 371.131 255.172 371.038 Q254.61 370.946 254.009 370.76 L254.009 369.586 Q254.529 369.869 255.085 370.008 Q255.641 370.147 256.26 370.147 Q257.261 370.147 257.845 369.62 Q258.43 369.094 258.43 368.191 Q258.43 367.288 257.845 366.762 Q257.261 366.235 256.26 366.235 Q255.791 366.235 255.322 366.339 Q254.859 366.443 254.373 366.663 L254.373 362.323 Z" fill="#000000" fill-rule="evenodd" fill-opacity="1" /><path clip-path="url(#clip490)" d="M 0 0 M329.797 363.093 Q328.894 363.093 328.437 363.984 Q327.985 364.869 327.985 366.652 Q327.985 368.428 328.437 369.319 Q328.894 370.205 329.797 370.205 Q330.705 370.205 331.157 369.319 Q331.614 368.428 331.614 366.652 Q331.614 364.869 331.157 363.984 Q330.705 363.093 329.797 363.093 M329.797 362.167 Q331.249 362.167 332.013 363.318 Q332.783 364.464 332.783 366.652 Q332.783 368.833 332.013 369.985 Q331.249 371.131 329.797 371.131 Q328.344 371.131 327.574 369.985 Q326.811 368.833 326.811 366.652 Q326.811 364.464 327.574 363.318 Q328.344 362.167 329.797 362.167 Z" fill="#000000" fill-rule="evenodd" fill-opacity="1" /><path clip-path="url(#clip490)" d="M 0 0 M334.05 369.493 L335.271 369.493 L335.271 370.963 L334.05 370.963 L334.05 369.493 Z" fill="#000000" fill-rule="evenodd" fill-opacity="1" /><path clip-path="url(#clip490)" d="M 0 0 M339.039 363.093 Q338.136 363.093 337.679 363.984 Q337.227 364.869 337.227 366.652 Q337.227 368.428 337.679 369.319 Q338.136 370.205 339.039 370.205 Q339.947 370.205 340.398 369.319 Q340.856 368.428 340.856 366.652 Q340.856 364.869 340.398 363.984 Q339.947 363.093 339.039 363.093 M339.039 362.167 Q340.491 362.167 341.255 363.318 Q342.025 364.464 342.025 366.652 Q342.025 368.833 341.255 369.985 Q340.491 371.131 339.039 371.131 Q337.586 371.131 336.816 369.985 Q336.052 368.833 336.052 366.652 Q336.052 364.464 336.816 363.318 Q337.586 362.167 339.039 362.167 Z" fill="#000000" fill-rule="evenodd" fill-opacity="1" /><path clip-path="url(#clip490)" d="M 0 0 M416.323 363.093 Q415.42 363.093 414.963 363.984 Q414.511 364.869 414.511 366.652 Q414.511 368.428 414.963 369.319 Q415.42 370.205 416.323 370.205 Q417.231 370.205 417.682 369.319 Q418.14 368.428 418.14 366.652 Q418.14 364.869 417.682 363.984 Q417.231 363.093 416.323 363.093 M416.323 362.167 Q417.775 362.167 418.539 363.318 Q419.309 364.464 419.309 366.652 Q419.309 368.833 418.539 369.985 Q417.775 371.131 416.323 371.131 Q414.87 371.131 414.1 369.985 Q413.336 368.833 413.336 366.652 Q413.336 364.464 414.1 363.318 Q414.87 362.167 416.323 362.167 Z" fill="#000000" fill-rule="evenodd" fill-opacity="1" /><path clip-path="url(#clip490)" d="M 0 0 M420.576 369.493 L421.797 369.493 L421.797 370.963 L420.576 370.963 L420.576 369.493 Z" fill="#000000" fill-rule="evenodd" fill-opacity="1" /><path clip-path="url(#clip490)" d="M 0 0 M423.076 362.323 L427.665 362.323 L427.665 363.307 L424.147 363.307 L424.147 365.425 Q424.401 365.338 424.656 365.297 Q424.91 365.251 425.165 365.251 Q426.612 365.251 427.457 366.044 Q428.302 366.837 428.302 368.191 Q428.302 369.586 427.434 370.361 Q426.566 371.131 424.986 371.131 Q424.442 371.131 423.875 371.038 Q423.313 370.946 422.711 370.76 L422.711 369.586 Q423.232 369.869 423.788 370.008 Q424.343 370.147 424.963 370.147 Q425.964 370.147 426.548 369.62 Q427.133 369.094 427.133 368.191 Q427.133 367.288 426.548 366.762 Q425.964 366.235 424.963 366.235 Q424.494 366.235 424.025 366.339 Q423.562 366.443 423.076 366.663 L423.076 362.323 Z" fill="#000000" fill-rule="evenodd" fill-opacity="1" /><path clip-path="url(#clip490)" d="M 0 0 M500.195 369.979 L502.105 369.979 L502.105 363.388 L500.027 363.804 L500.027 362.74 L502.093 362.323 L503.262 362.323 L503.262 369.979 L505.172 369.979 L505.172 370.963 L500.195 370.963 L500.195 369.979 Z" fill="#000000" fill-rule="evenodd" fill-opacity="1" /><path clip-path="url(#clip490)" d="M 0 0 M506.439 369.493 L507.66 369.493 L507.66 370.963 L506.439 370.963 L506.439 369.493 Z" fill="#000000" fill-rule="evenodd" fill-opacity="1" /><path clip-path="url(#clip490)" d="M 0 0 M511.428 363.093 Q510.525 363.093 510.068 363.984 Q509.616 364.869 509.616 366.652 Q509.616 368.428 510.068 369.319 Q510.525 370.205 511.428 370.205 Q512.336 370.205 512.788 369.319 Q513.245 368.428 513.245 366.652 Q513.245 364.869 512.788 363.984 Q512.336 363.093 511.428 363.093 M511.428 362.167 Q512.88 362.167 513.644 363.318 Q514.414 364.464 514.414 366.652 Q514.414 368.833 513.644 369.985 Q512.88 371.131 511.428 371.131 Q509.975 371.131 509.205 369.985 Q508.442 368.833 508.442 366.652 Q508.442 364.464 509.205 363.318 Q509.975 362.167 511.428 362.167 Z" fill="#000000" fill-rule="evenodd" fill-opacity="1" /><path clip-path="url(#clip490)" d="M 0 0 M315.857 383.099 L312.634 387.436 L316.024 392.011 L314.297 392.011 L311.703 388.51 L309.109 392.011 L307.383 392.011 L310.844 387.348 L307.677 383.099 L309.404 383.099 L311.767 386.274 L314.13 383.099 L315.857 383.099 Z" fill="#000000" fill-rule="evenodd" fill-opacity="1" /><path clip-path="url(#clip490)" d="M 0 0 M322.605 379.63 L325.978 379.63 L325.978 380.768 L324.069 380.768 L324.069 393.022 L325.978 393.022 L325.978 394.159 L322.605 394.159 L322.605 379.63 Z" fill="#000000" fill-rule="evenodd" fill-opacity="1" /><path clip-path="url(#clip490)" d="M 0 0 M331.564 387.531 Q329.79 387.531 329.106 387.937 Q328.421 388.343 328.421 389.321 Q328.421 390.101 328.931 390.563 Q329.448 391.016 330.331 391.016 Q331.548 391.016 332.28 390.157 Q333.02 389.29 333.02 387.857 L333.02 387.531 L331.564 387.531 M334.485 386.926 L334.485 392.011 L333.02 392.011 L333.02 390.658 Q332.519 391.47 331.771 391.86 Q331.023 392.242 329.941 392.242 Q328.572 392.242 327.761 391.478 Q326.957 390.706 326.957 389.417 Q326.957 387.913 327.96 387.149 Q328.97 386.385 330.968 386.385 L333.02 386.385 L333.02 386.242 Q333.02 385.231 332.352 384.682 Q331.692 384.125 330.49 384.125 Q329.726 384.125 329.002 384.308 Q328.278 384.491 327.61 384.857 L327.61 383.505 Q328.413 383.194 329.169 383.043 Q329.925 382.884 330.641 382.884 Q332.575 382.884 333.53 383.887 Q334.485 384.889 334.485 386.926 Z" fill="#000000" fill-rule="evenodd" fill-opacity="1" /><path clip-path="url(#clip490)" d="M 0 0 M335.869 388.494 L335.869 383.099 L337.333 383.099 L337.333 388.438 Q337.333 389.703 337.827 390.34 Q338.32 390.969 339.307 390.969 Q340.492 390.969 341.177 390.213 Q341.869 389.457 341.869 388.152 L341.869 383.099 L343.333 383.099 L343.333 392.011 L341.869 392.011 L341.869 390.642 Q341.336 391.454 340.628 391.852 Q339.927 392.242 338.996 392.242 Q337.461 392.242 336.665 391.287 Q335.869 390.332 335.869 388.494 M339.553 382.884 L339.553 382.884 Z" fill="#000000" fill-rule="evenodd" fill-opacity="1" /><path clip-path="url(#clip490)" d="M 0 0 M348.29 379.63 L348.29 394.159 L344.916 394.159 L344.916 393.022 L346.818 393.022 L346.818 380.768 L344.916 380.768 L344.916 379.63 L348.29 379.63 Z" fill="#000000" fill-rule="evenodd" fill-opacity="1" /><polyline clip-path="url(#clip492)" style="stroke:#000000; stroke-width:0.5; stroke-opacity:0.1; fill:none" points="
  67.4839,313.703 588.189,313.703 
  "/>
<polyline clip-path="url(#clip492)" style="stroke:#000000; stroke-width:0.5; stroke-opacity:0.1; fill:none" points="
  67.4839,270.502 588.189,270.502 
  "/>
<polyline clip-path="url(#clip492)" style="stroke:#000000; stroke-width:0.5; stroke-opacity:0.1; fill:none" points="
  67.4839,227.301 588.189,227.301 
  "/>
<polyline clip-path="url(#clip492)" style="stroke:#000000; stroke-width:0.5; stroke-opacity:0.1; fill:none" points="
  67.4839,184.101 588.189,184.101 
  "/>
<polyline clip-path="url(#clip492)" style="stroke:#000000; stroke-width:0.5; stroke-opacity:0.1; fill:none" points="
  67.4839,140.9 588.189,140.9 
  "/>
<polyline clip-path="url(#clip492)" style="stroke:#000000; stroke-width:0.5; stroke-opacity:0.1; fill:none" points="
  67.4839,97.6991 588.189,97.6991 
  "/>
<polyline clip-path="url(#clip492)" style="stroke:#000000; stroke-width:0.5; stroke-opacity:0.1; fill:none" points="
  67.4839,54.4984 588.189,54.4984 
  "/>
<polyline clip-path="url(#clip490)" style="stroke:#000000; stroke-width:1; stroke-opacity:1; fill:none" points="
  67.4839,355.795 67.4839,11.811 
  "/>
<polyline clip-path="url(#clip490)" style="stroke:#000000; stroke-width:1; stroke-opacity:1; fill:none" points="
  67.4839,313.703 73.7323,313.703 
  "/>
<polyline clip-path="url(#clip490)" style="stroke:#000000; stroke-width:1; stroke-opacity:1; fill:none" points="
  67.4839,270.502 73.7323,270.502 
  "/>
<polyline clip-path="url(#clip490)" style="stroke:#000000; stroke-width:1; stroke-opacity:1; fill:none" points="
  67.4839,227.301 73.7323,227.301 
  "/>
<polyline clip-path="url(#clip490)" style="stroke:#000000; stroke-width:1; stroke-opacity:1; fill:none" points="
  67.4839,184.101 73.7323,184.101 
  "/>
<polyline clip-path="url(#clip490)" style="stroke:#000000; stroke-width:1; stroke-opacity:1; fill:none" points="
  67.4839,140.9 73.7323,140.9 
  "/>
<polyline clip-path="url(#clip490)" style="stroke:#000000; stroke-width:1; stroke-opacity:1; fill:none" points="
  67.4839,97.6991 73.7323,97.6991 
  "/>
<polyline clip-path="url(#clip490)" style="stroke:#000000; stroke-width:1; stroke-opacity:1; fill:none" points="
  67.4839,54.4984 73.7323,54.4984 
  "/>
<path clip-path="url(#clip490)" d="M 0 0 M28.7907 313.816 L36.2097 313.816 L36.2097 314.799 L28.7907 314.799 L28.7907 313.816 Z" fill="#000000" fill-rule="evenodd" fill-opacity="1" /><path clip-path="url(#clip490)" d="M 0 0 M39.977 310.152 Q39.0742 310.152 38.6171 311.044 Q38.1657 311.929 38.1657 313.711 Q38.1657 315.488 38.6171 316.379 Q39.0742 317.265 39.977 317.265 Q40.8856 317.265 41.337 316.379 Q41.7941 315.488 41.7941 313.711 Q41.7941 311.929 41.337 311.044 Q40.8856 310.152 39.977 310.152 M39.977 309.226 Q41.4296 309.226 42.1934 310.378 Q42.9631 311.524 42.9631 313.711 Q42.9631 315.893 42.1934 317.045 Q41.4296 318.191 39.977 318.191 Q38.5245 318.191 37.7548 317.045 Q36.9909 315.893 36.9909 313.711 Q36.9909 311.524 37.7548 310.378 Q38.5245 309.226 39.977 309.226 Z" fill="#000000" fill-rule="evenodd" fill-opacity="1" /><path clip-path="url(#clip490)" d="M 0 0 M44.2305 316.553 L45.4515 316.553 L45.4515 318.023 L44.2305 318.023 L44.2305 316.553 Z" fill="#000000" fill-rule="evenodd" fill-opacity="1" /><path clip-path="url(#clip490)" d="M 0 0 M46.4237 309.383 L51.9793 309.383 L51.9793 309.88 L48.8427 318.023 L47.6217 318.023 L50.573 310.366 L46.4237 310.366 L46.4237 309.383 Z" fill="#000000" fill-rule="evenodd" fill-opacity="1" /><path clip-path="url(#clip490)" d="M 0 0 M53.2582 309.383 L57.8473 309.383 L57.8473 310.366 L54.3288 310.366 L54.3288 312.485 Q54.5834 312.398 54.838 312.357 Q55.0927 312.311 55.3473 312.311 Q56.7941 312.311 57.639 313.104 Q58.4839 313.897 58.4839 315.251 Q58.4839 316.645 57.6158 317.421 Q56.7478 318.191 55.1679 318.191 Q54.6239 318.191 54.0568 318.098 Q53.4955 318.005 52.8936 317.82 L52.8936 316.645 Q53.4144 316.929 53.97 317.068 Q54.5255 317.207 55.1448 317.207 Q56.1459 317.207 56.7304 316.68 Q57.3149 316.153 57.3149 315.251 Q57.3149 314.348 56.7304 313.821 Q56.1459 313.295 55.1448 313.295 Q54.676 313.295 54.2073 313.399 Q53.7443 313.503 53.2582 313.723 L53.2582 309.383 Z" fill="#000000" fill-rule="evenodd" fill-opacity="1" /><path clip-path="url(#clip490)" d="M 0 0 M28.565 270.615 L35.984 270.615 L35.984 271.599 L28.565 271.599 L28.565 270.615 Z" fill="#000000" fill-rule="evenodd" fill-opacity="1" /><path clip-path="url(#clip490)" d="M 0 0 M39.7513 266.952 Q38.8485 266.952 38.3914 267.843 Q37.94 268.728 37.94 270.511 Q37.94 272.287 38.3914 273.178 Q38.8485 274.064 39.7513 274.064 Q40.6599 274.064 41.1113 273.178 Q41.5684 272.287 41.5684 270.511 Q41.5684 268.728 41.1113 267.843 Q40.6599 266.952 39.7513 266.952 M39.7513 266.026 Q41.2039 266.026 41.9677 267.177 Q42.7374 268.323 42.7374 270.511 Q42.7374 272.692 41.9677 273.844 Q41.2039 274.99 39.7513 274.99 Q38.2988 274.99 37.5291 273.844 Q36.7652 272.692 36.7652 270.511 Q36.7652 268.323 37.5291 267.177 Q38.2988 266.026 39.7513 266.026 Z" fill="#000000" fill-rule="evenodd" fill-opacity="1" /><path clip-path="url(#clip490)" d="M 0 0 M44.0048 273.352 L45.2258 273.352 L45.2258 274.822 L44.0048 274.822 L44.0048 273.352 Z" fill="#000000" fill-rule="evenodd" fill-opacity="1" /><path clip-path="url(#clip490)" d="M 0 0 M46.5048 266.182 L51.0939 266.182 L51.0939 267.166 L47.5754 267.166 L47.5754 269.284 Q47.83 269.197 48.0846 269.156 Q48.3392 269.11 48.5939 269.11 Q50.0406 269.11 50.8855 269.903 Q51.7304 270.696 51.7304 272.05 Q51.7304 273.445 50.8624 274.22 Q49.9943 274.99 48.4145 274.99 Q47.8705 274.99 47.3034 274.897 Q46.742 274.805 46.1402 274.619 L46.1402 273.445 Q46.661 273.728 47.2166 273.867 Q47.7721 274.006 48.3913 274.006 Q49.3925 274.006 49.977 273.479 Q50.5614 272.953 50.5614 272.05 Q50.5614 271.147 49.977 270.621 Q49.3925 270.094 48.3913 270.094 Q47.9226 270.094 47.4538 270.198 Q46.9909 270.302 46.5048 270.522 L46.5048 266.182 Z" fill="#000000" fill-rule="evenodd" fill-opacity="1" /><path clip-path="url(#clip490)" d="M 0 0 M55.4978 266.952 Q54.595 266.952 54.1378 267.843 Q53.6864 268.728 53.6864 270.511 Q53.6864 272.287 54.1378 273.178 Q54.595 274.064 55.4978 274.064 Q56.4063 274.064 56.8577 273.178 Q57.3149 272.287 57.3149 270.511 Q57.3149 268.728 56.8577 267.843 Q56.4063 266.952 55.4978 266.952 M55.4978 266.026 Q56.9503 266.026 57.7142 267.177 Q58.4839 268.323 58.4839 270.511 Q58.4839 272.692 57.7142 273.844 Q56.9503 274.99 55.4978 274.99 Q54.0452 274.99 53.2756 273.844 Q52.5117 272.692 52.5117 270.511 Q52.5117 268.323 53.2756 267.177 Q54.0452 266.026 55.4978 266.026 Z" fill="#000000" fill-rule="evenodd" fill-opacity="1" /><path clip-path="url(#clip490)" d="M 0 0 M28.9643 227.414 L36.3833 227.414 L36.3833 228.398 L28.9643 228.398 L28.9643 227.414 Z" fill="#000000" fill-rule="evenodd" fill-opacity="1" /><path clip-path="url(#clip490)" d="M 0 0 M40.1506 223.751 Q39.2479 223.751 38.7907 224.642 Q38.3393 225.528 38.3393 227.31 Q38.3393 229.087 38.7907 229.978 Q39.2479 230.863 40.1506 230.863 Q41.0592 230.863 41.5106 229.978 Q41.9677 229.087 41.9677 227.31 Q41.9677 225.528 41.5106 224.642 Q41.0592 223.751 40.1506 223.751 M40.1506 222.825 Q41.6032 222.825 42.367 223.977 Q43.1367 225.122 43.1367 227.31 Q43.1367 229.492 42.367 230.643 Q41.6032 231.789 40.1506 231.789 Q38.6981 231.789 37.9284 230.643 Q37.1645 229.492 37.1645 227.31 Q37.1645 225.122 37.9284 223.977 Q38.6981 222.825 40.1506 222.825 Z" fill="#000000" fill-rule="evenodd" fill-opacity="1" /><path clip-path="url(#clip490)" d="M 0 0 M44.4041 230.151 L45.6251 230.151 L45.6251 231.621 L44.4041 231.621 L44.4041 230.151 Z" fill="#000000" fill-rule="evenodd" fill-opacity="1" /><path clip-path="url(#clip490)" d="M 0 0 M47.8994 230.637 L51.9793 230.637 L51.9793 231.621 L46.4932 231.621 L46.4932 230.637 Q47.1587 229.949 48.3045 228.791 Q49.4561 227.628 49.7513 227.293 Q50.3126 226.662 50.5325 226.228 Q50.7582 225.788 50.7582 225.366 Q50.7582 224.677 50.2721 224.243 Q49.7918 223.809 49.0163 223.809 Q48.4666 223.809 47.8531 224 Q47.2455 224.191 46.5511 224.578 L46.5511 223.398 Q47.2571 223.114 47.8705 222.97 Q48.4839 222.825 48.9932 222.825 Q50.3358 222.825 51.1344 223.496 Q51.933 224.168 51.933 225.29 Q51.933 225.823 51.7304 226.303 Q51.5337 226.778 51.007 227.426 Q50.8624 227.594 50.0869 228.398 Q49.3115 229.197 47.8994 230.637 Z" fill="#000000" fill-rule="evenodd" fill-opacity="1" /><path clip-path="url(#clip490)" d="M 0 0 M53.2582 222.981 L57.8473 222.981 L57.8473 223.965 L54.3288 223.965 L54.3288 226.083 Q54.5834 225.996 54.838 225.956 Q55.0927 225.909 55.3473 225.909 Q56.7941 225.909 57.639 226.702 Q58.4839 227.495 58.4839 228.849 Q58.4839 230.244 57.6158 231.019 Q56.7478 231.789 55.1679 231.789 Q54.6239 231.789 54.0568 231.696 Q53.4955 231.604 52.8936 231.419 L52.8936 230.244 Q53.4144 230.528 53.97 230.666 Q54.5255 230.805 55.1448 230.805 Q56.1459 230.805 56.7304 230.279 Q57.3149 229.752 57.3149 228.849 Q57.3149 227.947 56.7304 227.42 Q56.1459 226.893 55.1448 226.893 Q54.676 226.893 54.2073 226.997 Q53.7443 227.102 53.2582 227.322 L53.2582 222.981 Z" fill="#000000" fill-rule="evenodd" fill-opacity="1" /><path clip-path="url(#clip490)" d="M 0 0 M39.5025 180.55 Q38.5997 180.55 38.1425 181.441 Q37.6911 182.327 37.6911 184.109 Q37.6911 185.886 38.1425 186.777 Q38.5997 187.662 39.5025 187.662 Q40.411 187.662 40.8624 186.777 Q41.3196 185.886 41.3196 184.109 Q41.3196 182.327 40.8624 181.441 Q40.411 180.55 39.5025 180.55 M39.5025 179.624 Q40.955 179.624 41.7189 180.776 Q42.4886 181.922 42.4886 184.109 Q42.4886 186.291 41.7189 187.443 Q40.955 188.588 39.5025 188.588 Q38.0499 188.588 37.2803 187.443 Q36.5164 186.291 36.5164 184.109 Q36.5164 181.922 37.2803 180.776 Q38.0499 179.624 39.5025 179.624 Z" fill="#000000" fill-rule="evenodd" fill-opacity="1" /><path clip-path="url(#clip490)" d="M 0 0 M43.7559 186.951 L44.977 186.951 L44.977 188.421 L43.7559 188.421 L43.7559 186.951 Z" fill="#000000" fill-rule="evenodd" fill-opacity="1" /><path clip-path="url(#clip490)" d="M 0 0 M48.7443 180.55 Q47.8416 180.55 47.3844 181.441 Q46.933 182.327 46.933 184.109 Q46.933 185.886 47.3844 186.777 Q47.8416 187.662 48.7443 187.662 Q49.6529 187.662 50.1043 186.777 Q50.5614 185.886 50.5614 184.109 Q50.5614 182.327 50.1043 181.441 Q49.6529 180.55 48.7443 180.55 M48.7443 179.624 Q50.1969 179.624 50.9608 180.776 Q51.7304 181.922 51.7304 184.109 Q51.7304 186.291 50.9608 187.443 Q50.1969 188.588 48.7443 188.588 Q47.2918 188.588 46.5221 187.443 Q45.7582 186.291 45.7582 184.109 Q45.7582 181.922 46.5221 180.776 Q47.2918 179.624 48.7443 179.624 Z" fill="#000000" fill-rule="evenodd" fill-opacity="1" /><path clip-path="url(#clip490)" d="M 0 0 M55.4978 180.55 Q54.595 180.55 54.1378 181.441 Q53.6864 182.327 53.6864 184.109 Q53.6864 185.886 54.1378 186.777 Q54.595 187.662 55.4978 187.662 Q56.4063 187.662 56.8577 186.777 Q57.3149 185.886 57.3149 184.109 Q57.3149 182.327 56.8577 181.441 Q56.4063 180.55 55.4978 180.55 M55.4978 179.624 Q56.9503 179.624 57.7142 180.776 Q58.4839 181.922 58.4839 184.109 Q58.4839 186.291 57.7142 187.443 Q56.9503 188.588 55.4978 188.588 Q54.0452 188.588 53.2756 187.443 Q52.5117 186.291 52.5117 184.109 Q52.5117 181.922 53.2756 180.776 Q54.0452 179.624 55.4978 179.624 Z" fill="#000000" fill-rule="evenodd" fill-opacity="1" /><path clip-path="url(#clip490)" d="M 0 0 M40.1506 137.35 Q39.2479 137.35 38.7907 138.241 Q38.3393 139.126 38.3393 140.909 Q38.3393 142.685 38.7907 143.576 Q39.2479 144.462 40.1506 144.462 Q41.0592 144.462 41.5106 143.576 Q41.9677 142.685 41.9677 140.909 Q41.9677 139.126 41.5106 138.241 Q41.0592 137.35 40.1506 137.35 M40.1506 136.424 Q41.6032 136.424 42.367 137.575 Q43.1367 138.721 43.1367 140.909 Q43.1367 143.09 42.367 144.242 Q41.6032 145.388 40.1506 145.388 Q38.6981 145.388 37.9284 144.242 Q37.1645 143.09 37.1645 140.909 Q37.1645 138.721 37.9284 137.575 Q38.6981 136.424 40.1506 136.424 Z" fill="#000000" fill-rule="evenodd" fill-opacity="1" /><path clip-path="url(#clip490)" d="M 0 0 M44.4041 143.75 L45.6251 143.75 L45.6251 145.22 L44.4041 145.22 L44.4041 143.75 Z" fill="#000000" fill-rule="evenodd" fill-opacity="1" /><path clip-path="url(#clip490)" d="M 0 0 M47.8994 144.236 L51.9793 144.236 L51.9793 145.22 L46.4932 145.22 L46.4932 144.236 Q47.1587 143.547 48.3045 142.39 Q49.4561 141.227 49.7513 140.891 Q50.3126 140.26 50.5325 139.826 Q50.7582 139.387 50.7582 138.964 Q50.7582 138.275 50.2721 137.841 Q49.7918 137.407 49.0163 137.407 Q48.4666 137.407 47.8531 137.598 Q47.2455 137.789 46.5511 138.177 L46.5511 136.996 Q47.2571 136.713 47.8705 136.568 Q48.4839 136.424 48.9932 136.424 Q50.3358 136.424 51.1344 137.095 Q51.933 137.766 51.933 138.889 Q51.933 139.421 51.7304 139.902 Q51.5337 140.376 51.007 141.024 Q50.8624 141.192 50.0869 141.996 Q49.3115 142.795 47.8994 144.236 Z" fill="#000000" fill-rule="evenodd" fill-opacity="1" /><path clip-path="url(#clip490)" d="M 0 0 M53.2582 136.58 L57.8473 136.58 L57.8473 137.564 L54.3288 137.564 L54.3288 139.682 Q54.5834 139.595 54.838 139.554 Q55.0927 139.508 55.3473 139.508 Q56.7941 139.508 57.639 140.301 Q58.4839 141.094 58.4839 142.448 Q58.4839 143.843 57.6158 144.618 Q56.7478 145.388 55.1679 145.388 Q54.6239 145.388 54.0568 145.295 Q53.4955 145.202 52.8936 145.017 L52.8936 143.843 Q53.4144 144.126 53.97 144.265 Q54.5255 144.404 55.1448 144.404 Q56.1459 144.404 56.7304 143.877 Q57.3149 143.351 57.3149 142.448 Q57.3149 141.545 56.7304 141.018 Q56.1459 140.492 55.1448 140.492 Q54.676 140.492 54.2073 140.596 Q53.7443 140.7 53.2582 140.92 L53.2582 136.58 Z" fill="#000000" fill-rule="evenodd" fill-opacity="1" /><path clip-path="url(#clip490)" d="M 0 0 M39.7513 94.1488 Q38.8485 94.1488 38.3914 95.04 Q37.94 95.9254 37.94 97.7078 Q37.94 99.4844 38.3914 100.376 Q38.8485 101.261 39.7513 101.261 Q40.6599 101.261 41.1113 100.376 Q41.5684 99.4844 41.5684 97.7078 Q41.5684 95.9254 41.1113 95.04 Q40.6599 94.1488 39.7513 94.1488 M39.7513 93.2229 Q41.2039 93.2229 41.9677 94.3745 Q42.7374 95.5203 42.7374 97.7078 Q42.7374 99.8895 41.9677 101.041 Q41.2039 102.187 39.7513 102.187 Q38.2988 102.187 37.5291 101.041 Q36.7652 99.8895 36.7652 97.7078 Q36.7652 95.5203 37.5291 94.3745 Q38.2988 93.2229 39.7513 93.2229 Z" fill="#000000" fill-rule="evenodd" fill-opacity="1" /><path clip-path="url(#clip490)" d="M 0 0 M44.0048 100.549 L45.2258 100.549 L45.2258 102.019 L44.0048 102.019 L44.0048 100.549 Z" fill="#000000" fill-rule="evenodd" fill-opacity="1" /><path clip-path="url(#clip490)" d="M 0 0 M46.5048 93.3791 L51.0939 93.3791 L51.0939 94.3629 L47.5754 94.3629 L47.5754 96.481 Q47.83 96.3941 48.0846 96.3536 Q48.3392 96.3073 48.5939 96.3073 Q50.0406 96.3073 50.8855 97.1002 Q51.7304 97.893 51.7304 99.2471 Q51.7304 100.642 50.8624 101.417 Q49.9943 102.187 48.4145 102.187 Q47.8705 102.187 47.3034 102.094 Q46.742 102.002 46.1402 101.817 L46.1402 100.642 Q46.661 100.925 47.2166 101.064 Q47.7721 101.203 48.3913 101.203 Q49.3925 101.203 49.977 100.677 Q50.5614 100.15 50.5614 99.2471 Q50.5614 98.3444 49.977 97.8178 Q49.3925 97.2911 48.3913 97.2911 Q47.9226 97.2911 47.4538 97.3953 Q46.9909 97.4995 46.5048 97.7194 L46.5048 93.3791 Z" fill="#000000" fill-rule="evenodd" fill-opacity="1" /><path clip-path="url(#clip490)" d="M 0 0 M55.4978 94.1488 Q54.595 94.1488 54.1378 95.04 Q53.6864 95.9254 53.6864 97.7078 Q53.6864 99.4844 54.1378 100.376 Q54.595 101.261 55.4978 101.261 Q56.4063 101.261 56.8577 100.376 Q57.3149 99.4844 57.3149 97.7078 Q57.3149 95.9254 56.8577 95.04 Q56.4063 94.1488 55.4978 94.1488 M55.4978 93.2229 Q56.9503 93.2229 57.7142 94.3745 Q58.4839 95.5203 58.4839 97.7078 Q58.4839 99.8895 57.7142 101.041 Q56.9503 102.187 55.4978 102.187 Q54.0452 102.187 53.2756 101.041 Q52.5117 99.8895 52.5117 97.7078 Q52.5117 95.5203 53.2756 94.3745 Q54.0452 93.2229 55.4978 93.2229 Z" fill="#000000" fill-rule="evenodd" fill-opacity="1" /><path clip-path="url(#clip490)" d="M 0 0 M39.977 50.9481 Q39.0742 50.9481 38.6171 51.8393 Q38.1657 52.7247 38.1657 54.5071 Q38.1657 56.2837 38.6171 57.1749 Q39.0742 58.0603 39.977 58.0603 Q40.8856 58.0603 41.337 57.1749 Q41.7941 56.2837 41.7941 54.5071 Q41.7941 52.7247 41.337 51.8393 Q40.8856 50.9481 39.977 50.9481 M39.977 50.0222 Q41.4296 50.0222 42.1934 51.1738 Q42.9631 52.3196 42.9631 54.5071 Q42.9631 56.6888 42.1934 57.8404 Q41.4296 58.9862 39.977 58.9862 Q38.5245 58.9862 37.7548 57.8404 Q36.9909 56.6888 36.9909 54.5071 Q36.9909 52.3196 37.7548 51.1738 Q38.5245 50.0222 39.977 50.0222 Z" fill="#000000" fill-rule="evenodd" fill-opacity="1" /><path clip-path="url(#clip490)" d="M 0 0 M44.2305 57.3485 L45.4515 57.3485 L45.4515 58.8184 L44.2305 58.8184 L44.2305 57.3485 Z" fill="#000000" fill-rule="evenodd" fill-opacity="1" /><path clip-path="url(#clip490)" d="M 0 0 M46.4237 50.1784 L51.9793 50.1784 L51.9793 50.6761 L48.8427 58.8184 L47.6217 58.8184 L50.573 51.1622 L46.4237 51.1622 L46.4237 50.1784 Z" fill="#000000" fill-rule="evenodd" fill-opacity="1" /><path clip-path="url(#clip490)" d="M 0 0 M53.2582 50.1784 L57.8473 50.1784 L57.8473 51.1622 L54.3288 51.1622 L54.3288 53.2802 Q54.5834 53.1934 54.838 53.1529 Q55.0927 53.1066 55.3473 53.1066 Q56.7941 53.1066 57.639 53.8994 Q58.4839 54.6923 58.4839 56.0464 Q58.4839 57.4411 57.6158 58.2166 Q56.7478 58.9862 55.1679 58.9862 Q54.6239 58.9862 54.0568 58.8936 Q53.4955 58.801 52.8936 58.6159 L52.8936 57.4411 Q53.4144 57.7247 53.97 57.8635 Q54.5255 58.0024 55.1448 58.0024 Q56.1459 58.0024 56.7304 57.4758 Q57.3149 56.9492 57.3149 56.0464 Q57.3149 55.1437 56.7304 54.617 Q56.1459 54.0904 55.1448 54.0904 Q54.676 54.0904 54.2073 54.1946 Q53.7443 54.2988 53.2582 54.5187 L53.2582 50.1784 Z" fill="#000000" fill-rule="evenodd" fill-opacity="1" /><path clip-path="url(#clip490)" d="M 0 0 M16.8286 199.514 Q18.42 200.135 18.9054 200.724 Q19.3908 201.313 19.3908 202.299 L19.3908 203.469 L18.1654 203.469 L18.1654 202.61 Q18.1654 202.005 17.8789 201.671 Q17.5925 201.337 16.5262 200.931 L15.8578 200.668 L7.08905 204.273 L7.08905 202.721 L14.0595 199.936 L7.08905 197.151 L7.08905 195.599 L16.8286 199.514 Z" fill="#000000" fill-rule="evenodd" fill-opacity="1" /><path clip-path="url(#clip490)" d="M 0 0 M3.61974 189.019 L3.61974 185.645 L4.75761 185.645 L4.75761 187.555 L17.0116 187.555 L17.0116 185.645 L18.1495 185.645 L18.1495 189.019 L3.61974 189.019 Z" fill="#000000" fill-rule="evenodd" fill-opacity="1" /><path clip-path="url(#clip490)" d="M 0 0 M11.5212 180.059 Q11.5212 181.834 11.927 182.518 Q12.3328 183.202 13.3115 183.202 Q14.0913 183.202 14.5528 182.693 Q15.0064 182.176 15.0064 181.293 Q15.0064 180.075 14.147 179.343 Q13.2797 178.603 11.8474 178.603 L11.5212 178.603 L11.5212 180.059 M10.9164 177.139 L16.001 177.139 L16.001 178.603 L14.6483 178.603 Q15.46 179.104 15.8499 179.852 Q16.2318 180.6 16.2318 181.682 Q16.2318 183.051 15.4679 183.863 Q14.6961 184.666 13.407 184.666 Q11.9031 184.666 11.1392 183.664 Q10.3753 182.653 10.3753 180.656 L10.3753 178.603 L10.2321 178.603 Q9.22156 178.603 8.67252 179.271 Q8.11552 179.932 8.11552 181.133 Q8.11552 181.897 8.29853 182.621 Q8.48155 183.345 8.84758 184.014 L7.49486 184.014 Q7.18454 183.21 7.03335 182.454 Q6.87421 181.698 6.87421 180.982 Q6.87421 179.049 7.87681 178.094 Q8.87941 177.139 10.9164 177.139 Z" fill="#000000" fill-rule="evenodd" fill-opacity="1" /><path clip-path="url(#clip490)" d="M 0 0 M12.484 175.754 L7.08905 175.754 L7.08905 174.29 L12.4283 174.29 Q13.6935 174.29 14.33 173.797 Q14.9587 173.304 14.9587 172.317 Q14.9587 171.131 14.2027 170.447 Q13.4468 169.755 12.1418 169.755 L7.08905 169.755 L7.08905 168.291 L16.001 168.291 L16.001 169.755 L14.6324 169.755 Q15.444 170.288 15.8419 170.996 Q16.2318 171.696 16.2318 172.627 Q16.2318 174.163 15.2769 174.959 Q14.3221 175.754 12.484 175.754 M6.87421 172.07 L6.87421 172.07 Z" fill="#000000" fill-rule="evenodd" fill-opacity="1" /><path clip-path="url(#clip490)" d="M 0 0 M3.61974 163.333 L18.1495 163.333 L18.1495 166.707 L17.0116 166.707 L17.0116 164.805 L4.75761 164.805 L4.75761 166.707 L3.61974 166.707 L3.61974 163.333 Z" fill="#000000" fill-rule="evenodd" fill-opacity="1" /><path clip-path="url(#clip492)" d="M333.286 175.142 L331.406 180.55 L325.678 180.67 L330.246 184.134 L328.582 189.614 L333.286 186.342 L337.99 189.614 L336.326 184.134 L340.894 180.67 L335.166 180.55 L333.286 175.142 Z" fill="#ffd700" fill-rule="evenodd" fill-opacity="1" stroke="#000000" stroke-opacity="1" stroke-width="0.8"/>
<path clip-path="url(#clip492)" d="M332.961 175.525 L331.081 180.933 L325.353 181.053 L329.921 184.517 L328.257 189.997 L332.961 186.725 L337.665 189.997 L336.001 184.517 L340.569 181.053 L334.841 180.933 L332.961 175.525 Z" fill="#ffd700" fill-rule="evenodd" fill-opacity="1" stroke="#000000" stroke-opacity="1" stroke-width="0.8"/>
<path clip-path="url(#clip492)" d="M332.847 176 L330.967 181.408 L325.239 181.528 L329.807 184.992 L328.143 190.472 L332.847 187.2 L337.551 190.472 L335.887 184.992 L340.455 181.528 L334.727 181.408 L332.847 176 Z" fill="#ffd700" fill-rule="evenodd" fill-opacity="1" stroke="#000000" stroke-opacity="1" stroke-width="0.8"/>
<path clip-path="url(#clip492)" d="M332.966 176.461 L331.086 181.869 L325.358 181.989 L329.926 185.453 L328.262 190.933 L332.966 187.661 L337.67 190.933 L336.006 185.453 L340.574 181.989 L334.846 181.869 L332.966 176.461 Z" fill="#ffd700" fill-rule="evenodd" fill-opacity="1" stroke="#000000" stroke-opacity="1" stroke-width="0.8"/>
<path clip-path="url(#clip492)" d="M333.279 176.806 L331.399 182.214 L325.671 182.334 L330.239 185.798 L328.575 191.278 L333.279 188.006 L337.983 191.278 L336.319 185.798 L340.887 182.334 L335.159 182.214 L333.279 176.806 Z" fill="#ffd700" fill-rule="evenodd" fill-opacity="1" stroke="#000000" stroke-opacity="1" stroke-width="0.8"/>
<path clip-path="url(#clip492)" d="M333.694 176.973 L331.814 182.381 L326.086 182.501 L330.654 185.965 L328.99 191.445 L333.694 188.173 L338.398 191.445 L336.734 185.965 L341.302 182.501 L335.574 182.381 L333.694 176.973 Z" fill="#ffd700" fill-rule="evenodd" fill-opacity="1" stroke="#000000" stroke-opacity="1" stroke-width="0.8"/>
<path clip-path="url(#clip492)" d="M334.108 176.954 L332.228 182.362 L326.5 182.482 L331.068 185.946 L329.404 191.426 L334.108 188.154 L338.812 191.426 L337.148 185.946 L341.716 182.482 L335.988 182.362 L334.108 176.954 Z" fill="#ffd700" fill-rule="evenodd" fill-opacity="1" stroke="#000000" stroke-opacity="1" stroke-width="0.8"/>
<path clip-path="url(#clip492)" d="M334.43 176.782 L332.55 182.19 L326.822 182.31 L331.39 185.774 L329.726 191.254 L334.43 187.982 L339.134 191.254 L337.47 185.774 L342.038 182.31 L336.31 182.19 L334.43 176.782 Z" fill="#ffd700" fill-rule="evenodd" fill-opacity="1" stroke="#000000" stroke-opacity="1" stroke-width="0.8"/>
<path clip-path="url(#clip492)" d="M334.607 176.52 L332.727 181.928 L326.999 182.048 L331.567 185.512 L329.903 190.992 L334.607 187.72 L339.311 190.992 L337.647 185.512 L342.215 182.048 L336.487 181.928 L334.607 176.52 Z" fill="#ffd700" fill-rule="evenodd" fill-opacity="1" stroke="#000000" stroke-opacity="1" stroke-width="0.8"/>
<path clip-path="url(#clip492)" d="M334.616 176.239 L332.736 181.647 L327.008 181.767 L331.576 185.231 L329.912 190.711 L334.616 187.439 L339.32 190.711 L337.656 185.231 L342.224 181.767 L336.496 181.647 L334.616 176.239 Z" fill="#ffd700" fill-rule="evenodd" fill-opacity="1" stroke="#000000" stroke-opacity="1" stroke-width="0.8"/>
<polyline clip-path="url(#clip492)" style="stroke:#008000; stroke-width:2; stroke-opacity:1; fill:none" points="
  347.461,27.6626 338.279,27.2309 329.084,27.2484 319.905,27.7138 310.765,28.625 301.69,29.9789 292.704,31.7722 283.833,34.001 275.102,36.6605 266.537,39.7442 
  258.165,43.2427 250.012,47.1445 242.1,51.4367 234.451,56.1056 227.086,61.1368 220.023,66.516 213.282,72.2288 206.882,78.2602 200.841,84.5935 195.179,91.2098 
  189.912,98.0887 185.054,105.209 180.617,112.548 176.612,120.085 173.048,127.799 169.932,135.668 167.273,143.673 165.079,151.79 163.356,159.998 162.109,168.271 
  161.34,176.585 161.05,184.917 161.237,193.241 161.897,201.536 163.027,209.78 164.622,217.953 166.678,226.033 169.191,233.998 172.153,241.825 175.555,249.493 
  179.385,256.979 183.632,264.264 188.281,271.328 193.317,278.155 198.727,284.729 204.496,291.033 210.61,297.051 217.053,302.766 223.807,308.163 230.853,313.227 
  238.171,317.944 245.737,322.303 253.532,326.295 261.535,329.911 269.725,333.144 278.083,335.985 286.588,338.426 295.217,340.46 303.946,342.08 312.752,343.284 
  321.609,344.068 330.494,344.432 339.383,344.377 348.255,343.905 357.089,343.016 365.863,341.712 374.553,339.994 383.137,337.867 391.59,335.335 399.889,332.406 
  408.012,329.088 415.936,325.391 423.644,321.326 431.117,316.902 438.335,312.131 445.281,307.021 451.933,301.586 458.274,295.839 464.284,289.795 469.947,283.471 
  475.247,276.885 480.171,270.055 484.707,262.998 488.844,255.731 492.57,248.271 495.873,240.637 498.742,232.848 501.167,224.926 503.14,216.892 504.653,208.771 
  505.705,200.584 506.293,192.352 506.415,184.097 506.07,175.84 505.256,167.601 503.972,159.404 502.22,151.27 500.003,143.225 497.325,135.292 494.194,127.493 
  490.621,119.851 486.613,112.386 482.182,105.117 477.337,98.0638 472.09,91.2468 466.453,84.686 460.439,78.4017 454.065,72.4139 447.35,66.7413 440.315,61.3998 
  432.978,56.4038 425.36,51.7669 417.482,47.5019 409.363,43.6216 401.024,40.138 392.489,37.0632 383.782,34.4082 374.929,32.1824 365.958,30.3919 356.894,29.041 
  347.763,28.1326 338.592,27.6689 329.403,27.6514 320.223,28.0809 311.078,28.9578 301.993,30.2812 292.996,32.0486 284.116,34.2544 275.38,36.8906 266.811,39.9481 
  258.433,43.4171 250.269,47.2873 242.341,51.5478 234.671,56.1876 227.281,61.1945 220.192,66.5547 213.428,72.2521 207.008,78.2684 200.95,84.5844 195.269,91.1808 
  189.979,98.0383 185.093,105.138 180.624,112.459 176.584,119.984 172.985,127.691 169.838,135.558 167.151,143.561 164.932,151.675 163.184,159.876 161.909,168.142 
  161.109,176.45 160.783,184.778 160.932,193.105 161.556,201.408 162.653,209.664 164.221,217.849 166.254,225.94 168.743,233.913 171.68,241.747 175.053,249.422 
  178.853,256.919 183.067,264.22 187.685,271.305 192.695,278.157 198.085,284.755 203.839,291.082 209.938,297.119 216.365,302.853 223.1,308.268 230.124,313.352 
  237.419,318.094 244.966,322.483 252.747,326.508 260.742,330.156 268.929,333.418 277.284,336.285 285.786,338.75 294.408,340.807 303.129,342.454 311.926,343.686 
  320.777,344.504 329.662,344.904 338.557,344.884 347.44,344.442 356.285,343.581 365.069,342.301 373.767,340.606 382.356,338.504 390.815,336 399.121,333.102 
  407.257,329.817 415.202,326.152 422.933,322.114 430.431,317.713 437.672,312.961 444.638,307.869 451.308,302.453 457.666,296.728 463.696,290.708 469.383,284.41 
  474.714,277.847 479.672,271.036 484.244,263.992 488.414,256.734 492.169,249.282 495.498,241.656 498.393,233.878 500.845,225.969 502.85,217.95 504.401,209.839 
  505.493,201.658 506.121,193.427 506.28,185.169 505.968,176.906 505.183,168.662 503.927,160.462 502.204,152.329 500.02,144.283 497.379,136.347 494.288,128.541 
  490.753,120.886 486.78,113.403 482.379,106.115 477.56,99.0431 472.336,92.2099 466.722,85.6355 460.735,79.3383 454.392,73.3351 447.709,67.642 440.703,62.2749 
  433.391,57.2499 425.794,52.5826 417.93,48.2884 409.822,44.3816 401.496,40.8748 392.975,37.778 384.286,35.099 375.451,32.8448 366.495,31.0215 357.442,29.635 
  348.317,28.6907 339.144,28.1928 329.952,28.1447 320.768,28.5477 311.62,29.3999 302.537,30.6976 293.542,32.4356 284.662,34.6083 275.919,37.2096 267.339,40.2327 
  258.945,43.6701 250.761,47.513 242.813,51.7511 235.126,56.3711 227.721,61.3578 220.62,66.695 213.841,72.3664 207.402,78.3556 201.318,84.6458 195.608,91.2199 
  190.286,98.0602 185.369,105.147 180.871,112.461 176.807,119.977 173.186,127.673 170.015,135.526 167.301,143.515 165.049,151.616 163.265,159.809 161.953,168.072 
  161.117,176.382 160.759,184.715 160.881,193.047 161.481,201.354 162.554,209.611 164.094,217.797 166.094,225.889 168.549,233.868 171.45,241.713 174.791,249.405 
  178.562,256.921 182.754,264.24 187.354,271.343 192.345,278.208 197.714,284.819 203.443,291.16 209.515,297.215 215.916,302.971 222.627,308.413 229.634,313.527 
  236.917,318.298 244.457,322.713 252.23,326.76 260.215,330.43 268.389,333.714 276.731,336.606 285.219,339.099 293.831,341.19 302.548,342.871 311.347,344.137 
  320.204,344.984 329.095,345.41 337.995,345.414 346.88,344.996 355.725,344.161 364.51,342.91 373.213,341.249 381.812,339.181 390.287,336.71 398.614,333.84 
  406.771,330.578 414.734,326.933 422.481,322.916 429.992,318.537 437.248,313.809 444.231,308.745 450.925,303.357 457.312,297.657 463.374,291.658 469.094,285.375 
  474.454,278.824 479.439,272.024 484.034,264.992 488.228,257.749 492.01,250.314 495.372,242.706 498.303,234.942 500.796,227.042 502.84,219.025 504.427,210.914 
  505.551,202.732 506.208,194.5 506.395,186.243 506.113,177.984 505.363,169.744 504.147,161.544 502.466,153.405 500.321,145.348 497.716,137.397 494.655,129.575 
  491.147,121.905 487.2,114.41 482.826,107.111 478.037,100.029 472.847,93.1822 467.269,86.5888 461.314,80.2673 454.999,74.2365 448.338,68.5152 441.35,63.1214 
  434.055,58.0723 426.473,53.3835 418.629,49.0681 410.544,45.1376 402.241,41.6022 393.74,38.4722 385.065,35.7575 376.238,33.4676 367.286,31.6109 358.234,30.1944 
  349.11,29.2232 339.942,28.6996 330.757,28.6239 321.58,28.9951 312.437,29.8119 303.351,31.0724 294.349,32.7743 285.456,34.9138 276.699,37.4862 268.104,40.4843 
  259.698,43.8986 251.506,47.7173 243.55,51.9277 235.851,56.5171 228.43,61.4722 221.307,66.7797 214.502,72.4252 208.034,78.3932 201.923,84.6668 196.189,91.2269 
  190.846,98.0525 185.91,105.122 181.391,112.416 177.3,119.911 173.647,127.589 170.441,135.429 167.691,143.409 165.405,151.506 163.591,159.698 162.253,167.96 
  161.392,176.266 161.009,184.593 161.101,192.919 161.667,201.222 162.703,209.479 164.206,217.67 166.173,225.773 168.598,233.765 171.476,241.623 174.795,249.325 
  178.544,256.848 182.709,264.175 187.279,271.286 192.24,278.165 197.578,284.795 203.28,291.158 209.332,297.239 215.716,303.018 222.415,308.481 229.409,313.613 
  236.676,318.402 244.197,322.836 251.95,326.906 259.916,330.602 268.076,333.917 276.409,336.841 284.894,339.366 293.507,341.483 302.224,343.188 311.021,344.476 
  319.873,345.347 328.758,345.799 337.654,345.832 346.538,345.448 355.39,344.646 364.187,343.427 372.905,341.794 381.519,339.748 390.006,337.298 398.343,334.449 
  406.508,331.212 414.481,327.594 422.242,323.605 429.773,319.256 437.054,314.555 444.066,309.512 450.787,304.141 457.199,298.455 463.283,292.47 469.023,286.203 
  474.405,279.671 479.415,272.891 484.04,265.88 488.27,258.653 492.09,251.229 495.488,243.626 498.453,235.865 500.975,227.968 503.046,219.955 504.66,211.851 
  505.815,203.676 506.508,195.451 506.735,187.198 506.495,178.936 505.784,170.688 504.603,162.477 502.951,154.327 500.834,146.26 498.257,138.302 495.226,130.474 
  491.751,122.796 487.842,115.291 483.505,107.976 478.752,100.872 473.591,94.0003 468.037,87.3823 462.104,81.038 455.809,74.9868 449.169,69.2466 442.206,63.8337 
  434.938,58.7623 427.385,54.0458 419.564,49.698 411.497,45.7326 403.205,42.163 394.713,39.0012 386.044,36.2577 377.225,33.9412 368.283,32.0582 359.244,30.6128 
  350.133,29.6083 340.973,29.0474 331.79,28.9328 322.609,29.2666 313.457,30.0491 304.361,31.2793 295.351,32.9538 286.452,35.0671 277.69,37.6113 269.092,40.5777 
  260.678,43.9571 252.471,47.7402 244.495,51.9174 236.773,56.4776 229.327,61.4081 222.18,66.6948 215.354,72.3211 208.869,78.2689 202.741,84.5193 196.985,91.0536 
  191.616,97.8535 186.648,104.901 182.094,112.175 177.968,119.658 174.282,127.327 171.047,135.16 168.271,143.132 165.961,151.22 164.119,159.399 162.749,167.649 
  161.852,175.946 161.429,184.27 161.484,192.597 162.014,200.905 163.019,209.17 164.497,217.368 166.439,225.475 168.838,233.469 171.685,241.329 174.97,249.036 
  178.684,256.569 182.816,263.911 187.356,271.041 192.292,277.941 197.611,284.59 203.296,290.97 209.329,297.064 215.692,302.858 222.366,308.337 229.334,313.489 
  236.578,318.303 244.08,322.765 251.82,326.865 259.779,330.59 267.934,333.929 276.261,336.874 284.736,339.419 293.338,341.558 302.043,343.289 310.831,344.607 
  319.678,345.51 328.565,345.995 337.467,346.06 346.361,345.702 355.221,344.922 364.023,343.724 372.744,342.113 381.361,340.093 389.853,337.671 398.199,334.854 
  406.38,331.646 414.373,328.055 422.158,324.089 429.711,319.758 437.011,315.072 444.038,310.047 450.774,304.695 457.203,299.031 463.309,293.069 469.076,286.825 
  474.489,280.311 479.533,273.545 484.191,266.541 488.448,259.321 492.293,251.904 495.715,244.31 498.705,236.56 501.255,228.674 503.36,220.672 505.013,212.575 
  506.207,204.401 506.936,196.172 507.195,187.912 506.982,179.644 506.298,171.391 505.144,163.178 503.523,155.026 501.44,146.957 498.9,138.992 495.908,131.151 
  492.468,123.456 488.588,115.93 484.276,108.595 479.545,101.474 474.407,94.5872 468.878,87.9547 462.973,81.5949 456.708,75.5244 450.099,69.7595 443.162,64.317 
  435.915,59.2139 428.376,54.4668 420.567,50.091 412.511,46.1002 404.233,42.5066 395.756,39.3201 387.105,36.5489 378.303,34.1999 369.374,32.2801 360.34,30.7967 
  351.228,29.7558 342.065,29.162 332.877,29.0179 323.694,29.3242 314.542,30.0794 305.448,31.2798 296.438,32.9207 287.535,34.997 278.763,37.5039 270.147,40.4354 
  261.713,43.7843 253.487,47.5412 245.492,51.695 237.754,56.2326 230.294,61.1389 223.133,66.3982 216.288,71.9947 209.778,77.9129 203.62,84.1371 197.831,90.6501 
  192.43,97.4337 187.431,104.468 182.851,111.731 178.701,119.201 174.99,126.855 171.727,134.67 168.918,142.626 166.57,150.7 164.689,158.872 163.281,167.119 
  162.349,175.418 161.896,183.744 161.923,192.072 162.427,200.379 163.403,208.641 164.846,216.837 166.751,224.946 169.112,232.946 171.923,240.818 175.176,248.539 
  178.862,256.089 182.971,263.446 187.49,270.588 192.402,277.498 197.694,284.157 203.348,290.551 209.35,296.663 215.685,302.48 222.337,307.985 229.287,313.164 
  236.518,318.003 244.009,322.487 251.737,326.605 259.679,330.348 267.815,333.709 276.124,336.68 284.585,339.255 293.177,341.426 301.878,343.189 310.666,344.537 
  319.516,345.466 328.404,345.973 337.304,346.059 346.194,345.725 355.05,344.973 363.851,343.806 372.577,342.227 381.204,340.239 389.711,337.846 398.075,335.052 
  406.27,331.864 414.276,328.292 422.07,324.346 429.632,320.038 436.945,315.379 443.99,310.381 450.75,305.054 457.207,299.412 463.341,293.467 469.136,287.235 
  474.572,280.732 479.636,273.977 484.314,266.988 488.595,259.785 492.467,252.384 495.921,244.805 498.947,237.066 501.534,229.185 503.673,221.184 505.355,213.085 
  506.575,204.91 507.33,196.683 507.617,188.427 507.435,180.162 506.787,171.912 505.671,163.695 504.088,155.535 502.04,147.453 499.529,139.472 496.562,131.616 
  493.146,123.909 489.291,116.373 485.007,109.028 480.307,101.895 475.203,94.9918 469.706,88.3375 463.829,81.9511 457.586,75.8523 450.995,70.0606 444.073,64.594 
  436.841,59.4691 429.319,54.7008 421.531,50.3022 413.498,46.285 405.239,42.66 396.778,39.438 388.136,36.6301 379.337,34.2466 370.408,32.2959 361.375,30.7845 
  352.266,29.7168 343.108,29.0954 333.927,28.9208 324.748,29.1926 315.595,29.9099 306.494,31.0722 297.47,32.678 288.551,34.7237 279.763,37.2037 271.134,40.1104 
  262.69,43.4343 254.453,47.1641 246.447,51.2876 238.693,55.7924 231.21,60.6666 224.021,65.8975 217.146,71.4708 210.606,77.3704 204.422,83.5785 198.609,90.076 
  193.186,96.8425 188.165,103.857 183.557,111.099 179.374,118.548 175.626,126.185 172.325,133.99 169.479,141.94 167.098,150.011 165.187,158.181 163.751,166.424 
  162.792,174.717 162.308,183.035 162.299,191.357 162.763,199.662 163.7,207.927 165.106,216.131 166.978,224.251 169.311,232.263 172.096,240.145 175.324,247.874 
  178.983,255.429 183.061,262.792 187.545,269.945 192.423,276.871 197.683,283.551 203.312,289.967 209.293,296.103 215.611,301.941 222.246,307.464 229.179,312.659 
  236.388,317.514 243.854,322.018 251.558,326.161 259.481,329.933 267.603,333.325 275.903,336.326 284.358,338.929 292.947,341.124 301.642,342.909 310.421,344.278 
  319.26,345.231 328.138,345.767 337.032,345.885 345.921,345.584 354.783,344.865 363.593,343.727 372.329,342.172 380.965,340.206 389.477,337.833 397.843,335.063 
  406.043,331.902 414.057,328.36 421.864,324.444 429.446,320.165 436.781,315.53 443.85,310.551 450.632,305.24 457.106,299.613 463.256,293.685 469.066,287.472 
  474.523,280.991 479.611,274.258 484.319,267.288 488.633,260.099 492.538,252.708 496.023,245.134 499.075,237.399 501.686,229.523 503.848,221.53 505.557,213.44 
  506.809,205.275 507.598,197.054 507.923,188.799 507.779,180.531 507.164,172.272 506.076,164.045 504.519,155.876 502.495,147.788 500.012,139.803 497.075,131.942 
  493.693,124.227 489.873,116.678 485.623,109.316 480.952,102.16 475.872,95.233 470.394,88.5566 464.535,82.151 458.313,76.0349 451.744,70.2257 444.847,64.7391 
  437.64,59.5899 430.143,54.7923 422.374,50.3606 414.352,46.3094 406.101,42.6527 397.645,39.4025 389.009,36.5691 380.22,34.1603 371.302,32.1825 362.28,30.6404 
  353.18,29.5378 344.025,28.8784 334.84,28.6658 325.652,28.9027 316.489,29.5896 307.378,30.7248 298.347,32.3045 289.422,34.323 280.63,36.7731 271.994,39.6465 
  263.536,42.935 255.28,46.6302 247.249,50.723 239.469,55.2025 231.961,60.0553 224.75,65.2667 217.856,70.8199 211.297,76.6974 205.091,82.8809 199.253,89.3522 
  193.798,96.0938 188.74,103.088 184.095,110.316 179.877,117.755 176.098,125.385 172.768,133.182 169.895,141.123 167.485,149.183 165.542,157.34 164.069,165.572 
  163.068,173.859 162.543,182.177 162.496,190.504 162.927,198.815 163.833,207.088 165.211,215.297 167.055,223.419 169.356,231.433 172.106,239.318 175.295,247.055 
  178.916,254.625 182.96,262.006 187.415,269.18 192.269,276.125 197.508,282.823 203.115,289.255 209.072,295.405 215.362,301.257 221.968,306.8 228.872,312.02 
  236.057,316.903 243.505,321.437 251.196,325.609 259.109,329.408 267.221,332.823 275.509,335.845 283.95,338.47 292.521,340.691 301.202,342.506 309.971,343.909 
  318.806,344.897 327.684,345.465 336.583,345.613 345.477,345.337 354.341,344.641 363.151,343.526 371.885,341.998 380.52,340.061 389.037,337.722 397.414,334.984 
  405.629,331.854 413.661,328.338 421.488,324.445 429.086,320.184 436.434,315.567 443.514,310.609 450.308,305.323 456.8,299.722 462.973,293.82 468.811,287.63 
  474.297,281.167 479.416,274.447 484.151,267.486 488.487,260.306 492.413,252.926 495.92,245.366 498.998,237.645 501.639,229.784 503.837,221.802 505.582,213.718 
  506.869,205.553 507.691,197.329 508.043,189.069 507.923,180.798 507.332,172.539 506.273,164.315 504.748,156.146 502.76,148.054 500.313,140.061 497.41,132.187 
  494.058,124.455 490.263,116.888 486.034,109.508 481.384,102.34 476.327,95.4011 470.876,88.712 465.047,82.2904 458.853,76.1535 452.311,70.3186 445.435,64.8029 
  438.244,59.624 430.758,54.7991 422.998,50.3438 414.989,46.2711 406.753,42.5922 398.313,39.3172 389.694,36.4545 380.917,34.0124 372.007,31.9985 362.986,30.4206 
  353.882,29.2854 344.722,28.5977 335.534,28.3596 326.346,28.571 317.184,29.2304 308.073,30.3346 299.039,31.88 290.106,33.8623 281.299,36.2773 272.642,39.1197 
  264.164,42.3822 255.889,46.055 247.842,50.1262 240.048,54.5827 232.526,59.4099 225.297,64.593 218.38,70.1169 211.792,75.9669 205.553,82.1277 199.681,88.5821 
  194.195,95.311 189.11,102.294 184.44,109.509 180.197,116.934 176.39,124.548 173.028,132.328 170.118,140.253 167.668,148.304 165.685,156.457 164.174,164.69 
  163.141,172.979 162.587,181.299 162.511,189.626 162.912,197.935 163.785,206.205 165.125,214.413 166.928,222.541 169.19,230.566 171.904,238.466 175.064,246.22 
  
  "/>
<polyline clip-path="url(#clip492)" style="stroke:#00bfff; stroke-width:2; stroke-opacity:1; fill:none" points="
  303.251,21.5464 294.743,21.7357 286.336,22.3424 278.046,23.3556 269.894,24.7642 261.895,26.5568 254.066,28.7219 246.422,31.2479 238.977,34.123 231.746,37.3353 
  224.741,40.8729 217.975,44.7237 211.459,48.8757 205.206,53.3168 199.226,58.0347 193.529,63.0173 188.125,68.2521 183.025,73.7267 178.236,79.4288 173.768,85.3456 
  169.629,91.4645 165.828,97.7726 162.372,104.257 159.269,110.904 156.526,117.701 154.15,124.634 152.148,131.69 150.526,138.854 149.29,146.111 148.447,153.448 
  148.001,160.849 147.959,168.299 148.324,175.781 149.102,183.281 150.296,190.78 151.911,198.262 153.949,205.709 156.415,213.103 159.308,220.424 162.633,227.653 
  166.388,234.769 170.576,241.753 175.194,248.581 180.241,255.232 185.715,261.682 191.611,267.908 197.925,273.883 204.649,279.584 211.776,284.983 219.294,290.053 
  227.193,294.767 235.457,299.096 244.069,303.011 253.011,306.484 262.259,309.485 271.789,311.985 281.57,313.956 291.571,315.369 301.756,316.197 312.084,316.415 
  322.512,316 332.992,314.931 343.473,313.19 353.898,310.764 364.209,307.644 374.345,303.825 384.242,299.309 393.835,294.104 403.057,288.226 411.845,281.696 
  420.134,274.543 427.863,266.805 434.975,258.524 441.42,249.751 447.151,240.541 452.13,230.955 456.328,221.056 459.722,210.911 462.298,200.589 464.052,190.157 
  464.987,179.682 465.114,169.231 464.45,158.864 463.019,148.64 460.851,138.612 457.979,128.832 454.441,119.342 450.277,110.182 445.528,101.387 440.237,92.9866 
  434.449,85.006 428.206,77.4658 421.552,70.383 414.53,63.7707 407.18,57.6387 399.542,51.9938 391.656,46.8401 383.558,42.1794 375.283,38.0114 366.866,34.3339 
  358.338,31.1432 349.729,28.4342 341.069,26.2005 332.385,24.435 323.703,23.1294 315.046,22.275 306.439,21.8622 297.902,21.8812 289.457,22.3215 281.122,23.1724 
  272.917,24.4229 264.858,26.0619 256.962,28.0778 249.245,30.4591 241.721,33.1941 234.404,36.271 227.308,39.678 220.446,43.403 213.83,47.4341 207.47,51.7592 
  201.379,56.3661 195.567,61.2426 190.044,66.3765 184.82,71.7553 179.903,77.3667 175.304,83.1981 171.03,89.2368 167.09,95.4701 163.492,101.885 160.243,108.469 
  157.352,115.207 154.824,122.088 152.667,129.097 150.888,136.219 149.493,143.442 148.487,150.75 147.876,158.129 147.666,165.562 147.863,173.035 148.469,180.532 
  149.491,188.036 150.932,195.529 152.795,202.995 155.083,210.415 157.799,217.771 160.946,225.043 164.523,232.211 168.532,239.255 172.972,246.153 177.842,252.882 
  183.14,259.421 188.862,265.745 195.005,271.829 201.56,277.649 208.522,283.179 215.88,288.391 223.624,293.258 231.739,297.753 240.211,301.845 249.02,305.508 
  258.145,308.71 267.562,311.424 277.244,313.62 287.159,315.27 297.274,316.346 307.549,316.822 317.943,316.675 328.41,315.881 338.898,314.423 349.355,312.285 
  359.723,309.455 369.941,305.928 379.947,301.703 389.677,296.784 399.064,291.185 408.042,284.924 416.548,278.027 424.519,270.529 431.897,262.469 438.628,253.895 
  444.663,244.86 449.961,235.423 454.49,225.646 458.222,215.596 461.142,205.34 463.24,194.946 464.517,184.481 464.98,174.013 464.645,163.603 463.531,153.313 
  461.668,143.198 459.087,133.309 455.823,123.694 451.916,114.392 447.407,105.442 442.338,96.8744 436.754,88.7166 430.697,80.9912 424.211,73.7167 417.338,66.9076 
  410.121,60.5751 402.601,54.7272 394.815,49.3691 386.803,44.5036 378.599,40.1311 370.239,36.2502 361.756,32.8578 353.179,29.9494 344.539,27.519 335.864,25.5599 
  327.18,24.0642 318.512,23.0234 309.884,22.4282 301.317,22.2689 292.834,22.5352 284.453,23.2166 276.194,24.3023 268.074,25.7809 260.11,27.6413 252.319,29.8719 
  244.715,32.461 237.313,35.397 230.125,38.6679 223.167,42.2618 216.449,46.1667 209.983,50.3707 203.781,54.8614 197.853,59.6269 192.211,64.6548 186.863,69.9328 
  181.819,75.4486 177.088,81.1895 172.679,87.1431 168.601,93.2966 164.861,99.6371 161.468,106.152 158.428,112.827 155.75,119.65 153.439,126.606 151.503,133.683 
  149.949,140.865 148.781,148.139 148.006,155.49 147.63,162.902 147.658,170.361 148.094,177.849 148.943,185.352 150.21,192.852 151.897,200.331 154.009,207.773 
  156.548,215.158 159.515,222.467 162.913,229.681 166.743,236.779 171.004,243.741 175.696,250.544 180.816,257.165 186.362,263.582 192.331,269.77 198.715,275.705 
  205.509,281.36 212.703,286.708 220.288,291.724 228.251,296.379 236.576,300.644 245.247,304.491 254.243,307.891 263.542,310.814 273.118,313.231 282.941,315.114 
  292.978,316.436 303.192,317.168 313.543,317.286 323.986,316.768 334.473,315.592 344.952,313.743 355.366,311.206 365.657,307.974 375.762,304.043 385.618,299.416 
  395.16,294.103 404.321,288.119 413.036,281.487 421.242,274.238 428.88,266.41 435.892,258.048 442.228,249.201 447.845,239.927 452.705,230.286 456.778,220.344 
  460.046,210.166 462.494,199.822 464.12,189.379 464.929,178.905 464.931,168.463 464.146,158.115 462.599,147.919 460.319,137.928 457.342,128.191 453.705,118.751 
  449.448,109.648 444.613,100.914 439.244,92.5793 433.383,84.6678 427.076,77.1998 420.364,70.1914 413.29,63.6553 405.895,57.6008 398.219,52.0341 390.301,46.9591 
  382.176,42.3772 373.88,38.2876 365.447,34.6881 356.908,31.5746 348.293,28.9417 339.632,26.7832 330.95,25.0914 322.274,23.8582 313.628,23.0747 305.034,22.7312 
  296.515,22.8177 288.09,23.3238 279.779,24.2388 271.6,25.5515 263.57,27.2508 255.706,29.3252 248.022,31.7631 240.535,34.5527 233.256,37.6823 226.201,41.1401 
  219.381,44.9139 212.809,48.9918 206.496,53.3617 200.452,58.0115 194.689,62.9289 189.217,68.1016 184.045,73.5174 179.182,79.1636 174.638,85.0278 170.42,91.0973 
  166.537,97.3593 162.998,103.801 159.809,110.409 156.978,117.17 154.513,124.071 152.419,131.097 150.703,138.236 149.373,145.472 148.432,152.791 147.888,160.178 
  147.745,167.618 148.009,175.095 148.685,182.593 149.775,190.096 151.285,197.585 153.218,205.044 155.577,212.455 158.364,219.798 161.581,227.054 165.229,234.203 
  169.309,241.225 173.819,248.097 178.76,254.797 184.127,261.303 189.919,267.591 196.129,273.635 202.751,279.411 209.779,284.892 217.201,290.052 225.006,294.863 
  233.181,299.296 241.709,303.324 250.571,306.916 259.746,310.045 269.209,312.68 278.932,314.793 288.884,316.355 299.029,317.34 309.329,317.722 319.74,317.476 
  330.216,316.581 340.706,315.019 351.156,312.775 361.508,309.838 371.702,306.204 381.673,301.871 391.357,296.847 400.689,291.145 409.603,284.785 418.035,277.793 
  425.922,270.206 433.208,262.064 439.839,253.415 445.768,244.315 450.954,234.821 455.366,224.998 458.979,214.911 461.778,204.629 463.754,194.218 464.91,183.748 
  465.254,173.283 464.801,162.887 463.575,152.618 461.602,142.533 458.917,132.681 455.555,123.109 451.556,113.858 446.96,104.963 441.811,96.4549 436.153,88.3608 
  430.029,80.7023 423.482,73.4973 416.555,66.76 409.289,60.501 401.726,54.728 393.904,49.4456 385.86,44.6564 377.63,40.3604 369.249,36.5561 360.749,33.24 
  352.161,30.4074 343.514,28.0523 334.836,26.1677 326.153,24.7456 317.49,23.7773 308.871,23.2536 300.317,23.1645 291.849,23.4999 283.487,24.2489 275.25,25.4008 
  267.156,26.9443 259.22,28.868 251.46,31.1603 243.889,33.8097 236.523,36.8042 229.375,40.132 222.457,43.7811 215.782,47.7395 209.363,51.9952 203.209,56.5359 
  197.331,61.3495 191.741,66.4236 186.447,71.7459 181.46,77.304 176.788,83.0853 172.44,89.0771 168.424,95.2667 164.748,101.641 161.421,108.187 158.449,114.892 
  155.84,121.742 153.601,128.723 151.738,135.822 150.258,143.024 149.166,150.315 148.469,157.679 148.172,165.102 148.28,172.569 148.798,180.062 149.731,187.567 
  151.082,195.064 152.855,202.539 155.053,209.971 157.679,217.343 160.734,224.636 164.221,231.829 168.14,238.902 172.49,245.834 177.271,252.602 182.481,259.184 
  188.116,265.557 194.172,271.695 200.644,277.574 207.523,283.168 214.802,288.451 222.468,293.394 230.51,297.97 238.911,302.151 247.654,305.907 256.718,309.209 
  266.079,312.028 275.712,314.336 285.585,316.103 295.664,317.303 305.913,317.907 316.29,317.893 326.749,317.237 337.241,315.92 347.713,313.926 358.109,311.242 
  368.368,307.862 378.429,303.783 388.226,299.009 397.695,293.551 406.77,287.427 415.385,280.662 423.479,273.286 430.991,265.341 437.867,256.87 444.058,247.927 
  449.52,238.569 454.219,228.858 458.126,218.858 461.224,208.638 463.501,198.266 464.957,187.809 465.596,177.334 465.432,166.904 464.486,156.582 462.784,146.423 
  460.356,136.479 457.237,126.799 453.467,117.425 449.085,108.395 444.135,99.7408 438.658,91.4915 432.7,83.6702 426.303,76.2963 419.511,69.3852 412.366,62.9489 
  404.907,56.996 397.176,51.5323 389.21,46.5611 381.045,42.0833 372.716,38.0979 364.256,34.6021 355.698,31.5916 347.07,29.061 338.401,27.0035 329.717,25.4116 
  321.045,24.2767 312.408,23.5898 303.828,23.3412 295.327,23.5208 286.924,24.1181 278.64,25.1222 270.492,26.5221 262.497,28.3063 254.671,30.4634 247.03,32.9818 
  239.588,35.8497 232.359,39.0552 225.356,42.5865 218.592,46.4314 212.078,50.578 205.825,55.0142 199.846,59.7276 194.15,64.7061 188.747,69.9373 183.647,75.4089 
  178.859,81.1082 174.392,87.0228 170.253,93.1398 166.453,99.4464 162.997,105.93 159.895,112.576 157.153,119.373 154.778,126.306 152.777,133.361 151.156,140.525 
  149.922,147.784 149.08,155.121 148.637,162.523 148.596,169.974 148.964,177.457 149.744,184.958 150.942,192.458 152.56,199.942 154.603,207.39 157.072,214.784 
  159.97,222.107 163.299,229.337 167.06,236.454 171.253,243.439 175.877,250.268 180.93,256.919 186.41,263.369 192.313,269.595 198.634,275.57 205.365,281.27 
  212.499,286.668 220.026,291.736 227.932,296.448 236.204,300.775 244.824,304.688 253.773,308.158 263.029,311.156 272.566,313.652 282.355,315.619 292.364,317.027 
  302.556,317.851 312.892,318.064 323.326,317.643 333.813,316.568 344.299,314.821 354.73,312.388 365.046,309.261 375.187,305.435 385.089,300.913 394.685,295.701 
  403.912,289.816 412.703,283.279 420.994,276.12 428.725,268.376 435.84,260.089 442.286,251.31 448.019,242.094 452.999,232.502 457.198,222.598 460.593,212.449 
  463.17,202.122 464.925,191.687 465.86,181.208 465.987,170.753 465.323,160.383 463.893,150.156 461.725,140.127 458.853,130.344 455.316,120.852 451.151,111.691 
  446.403,102.895 441.113,94.4933 435.325,86.5121 429.082,78.9717 422.429,71.8891 415.407,65.2772 408.058,59.146 400.421,53.5023 392.536,48.3501 384.439,43.6912 
  376.166,39.5254 367.75,35.8504 359.224,32.6625 350.618,29.9565 341.96,27.7263 333.279,25.9645 324.6,24.6629 315.947,23.8126 307.343,23.4043 298.811,23.428 
  290.37,23.8732 282.041,24.7292 273.841,25.985 265.788,27.6294 257.899,29.6508 250.189,32.0378 242.673,34.7786 235.364,37.8613 228.277,41.2742 221.425,45.0051 
  214.818,49.0421 208.469,53.373 202.389,57.9857 196.589,62.868 191.078,68.0074 185.867,73.3918 180.964,79.0084 176.379,84.8449 172.12,90.8885 168.195,97.1264 
  164.613,103.546 161.382,110.133 158.507,116.875 155.998,123.759 153.86,130.771 152.1,137.896 150.725,145.12 149.74,152.429 149.151,159.808 148.963,167.241 
  149.182,174.714 149.812,182.209 150.857,189.71 152.322,197.2 154.21,204.661 156.524,212.076 159.266,219.426 162.439,226.69 166.043,233.849 170.079,240.883 
  174.546,247.769 179.444,254.486 184.77,261.011 190.52,267.319 196.689,273.386 203.273,279.187 210.262,284.696 217.647,289.886 225.417,294.728 233.558,299.196 
  242.054,303.261 250.886,306.893 260.034,310.063 269.472,312.743 279.173,314.902 289.106,316.514 299.236,317.55 309.524,317.985 319.928,317.794 330.401,316.955 
  340.893,315.451 351.35,313.266 361.714,310.388 371.925,306.813 381.92,302.539 391.634,297.573 401.001,291.926 409.956,285.62 418.434,278.679 426.373,271.139 
  433.715,263.04 440.407,254.43 446.4,245.363 451.655,235.897 456.137,226.096 459.822,216.025 462.693,205.753 464.743,195.346 465.97,184.874 466.385,174.402 
  466.002,163.992 464.842,153.706 462.935,143.598 460.31,133.719 457.006,124.116 453.061,114.831 448.515,105.898 443.413,97.3509 437.797,89.215 431.712,81.5131 
  425.199,74.2634 418.303,67.4803 411.066,61.1747 403.526,55.3545 395.724,50.0248 387.698,45.1881 379.483,40.8448 371.113,36.9934 362.621,33.6307 354.039,30.752 
  345.396,28.3514 336.719,26.4219 328.035,24.9558 319.369,23.9443 310.744,23.3782 302.182,23.2478 293.706,23.5427 285.333,24.2523 277.084,25.3657 268.976,26.8717 
  261.026,28.759 253.249,31.016 245.661,33.6309 238.276,36.5922 231.107,39.8878 224.168,43.5057 217.472,47.4341 211.029,51.6607 204.851,56.1735 198.949,60.9602 
  193.333,66.0085 188.012,71.3061 182.998,76.8406 178.297,82.5993 173.92,88.5697 169.875,94.739 166.169,101.094 162.811,107.622 159.808,114.31 157.167,121.144 
  154.895,128.111 152.999,135.196 151.485,142.386 150.359,149.666 149.628,157.02 149.296,164.435 149.369,171.895 149.851,179.382 150.747,186.882 152.062,194.377 
  153.798,201.85 155.959,209.282 158.548,216.656 161.566,223.952 165.016,231.15 168.897,238.23 173.21,245.17 177.954,251.948 183.127,258.543 188.726,264.929 
  194.746,271.084 201.182,276.981 208.026,282.596 215.271,287.901 222.904,292.869 230.914,297.472 239.284,301.682 247.998,305.47 257.035,308.806 266.372,311.662 
  275.982,314.009 285.835,315.817 295.897,317.059 306.132,317.71 316.499,317.742 326.951,317.135 337.441,315.869 347.916,313.926 358.318,311.294 368.589,307.966 
  378.667,303.939 388.486,299.216 397.983,293.809 407.09,287.733 415.743,281.013 423.879,273.681 431.439,265.775 438.366,257.339 444.611,248.427 450.131,239.095 
  454.889,229.405 458.858,219.421 462.019,209.211 464.359,198.844 465.877,188.386 466.577,177.905 466.474,167.465 465.586,157.127 463.939,146.949 461.563,136.982 
  458.495,127.275 454.771,117.872 450.432,108.809 445.521,100.121 440.081,91.8351 434.155,83.976 427.788,76.563 421.022,69.6119 413.899,63.1349 406.46,57.1409 
  398.745,51.6358 390.793,46.6232 382.639,42.1041 374.318,38.0777 365.865,34.5412 357.31,31.4906 348.683,28.9203 340.013,26.8238 331.327,25.1935 322.651,24.021 
  314.007,23.2973 305.419,23.0127 296.908,23.1572 288.495,23.7201 280.199,24.6908 272.037,26.0581 264.027,27.8107 256.185,29.937 248.527,32.4255 241.067,35.2645 
  233.819,38.442 226.795,41.9461 220.01,45.7648 213.474,49.8862 207.199,54.2979 201.196,58.9879 195.476,63.9438 190.048,69.1534 184.922,74.6043 180.107,80.2838 
  175.613,86.1795 171.447,92.2786 167.618,98.5683 164.134,105.036 161.002,111.667 158.229,118.45 155.824,125.37 153.791,132.413 152.139,139.566 150.873,146.815 
  149.998,154.143 149.521,161.538 149.447,168.982 149.781,176.46 150.527,183.957 151.689,191.454 153.272,198.936 155.279,206.384 157.712,213.78 160.575,221.105 
  163.867,228.339 167.592,235.463 171.748,242.455 176.335,249.293 181.351,255.955 186.795,262.418 192.661,268.658 198.946,274.65 205.642,280.369 212.741,285.788 
  220.232,290.88 228.105,295.617 236.344,299.972 244.934,303.916 253.853,307.418 263.081,310.451 272.592,312.985 282.358,314.992 292.345,316.443 302.519,317.311 
  312.84,317.571 323.264,317.199 333.743,316.175 344.227,314.48 354.659,312.102 364.982,309.029 375.135,305.258 385.054,300.79 394.674,295.632 403.929,289.8 
  412.753,283.314 421.084,276.203 428.86,268.503 436.024,260.258 442.524,251.516 448.313,242.332 453.354,232.768 457.616,222.885 461.075,212.752 463.718,202.435 
  465.538,192.004 466.539,181.525 466.73,171.063 466.129,160.681 464.759,150.438 462.649,140.387 459.832,130.579 456.346,121.059 452.23,111.866 447.526,103.035 
  442.277,94.5968 436.526,86.5766 430.318,78.9956 423.694,71.871 416.699,65.2162 409.372,59.0413 401.755,53.3533 393.886,48.1566 385.803,43.4533 377.54,39.243 
  369.131,35.5237 360.61,32.292 352.006,29.5427 343.348,27.2697 334.664,25.4657 325.98,24.1227 317.32,23.2319 308.708,22.7838 300.165,22.7685 291.712,23.1757 
  283.369,23.9947 275.154,25.2144 267.084,26.8236 259.176,28.8109 251.446,31.1648 243.909,33.8735 236.578,36.9252 229.468,40.308 222.591,44.0099 215.959,48.019 
  209.583,52.323 203.476,56.91 197.647,61.7675 192.107,66.8833 186.865,72.2451 181.932,77.8403 177.315,83.6564 173.023,89.6808 169.066,95.9006 165.45,102.303 
  162.184,108.875 159.274,115.602 156.729,122.473 154.555,129.472 152.758,136.586 151.345,143.801 150.322,151.102 149.695,158.473 149.468,165.901 149.648,173.369 
  150.239,180.861 151.244,188.361 152.669,195.851 154.517,203.314 156.791,210.732 159.494,218.086 162.627,225.356 166.192,232.522 170.192,239.564 174.631,246.454 
  
  "/>
<path clip-path="url(#clip490)" d="
M470.424 83.7572 L570.832 83.7572 L570.832 23.2772 L470.424 23.2772  Z
  " fill="#ffffff" fill-rule="evenodd" fill-opacity="1"/>
<polyline clip-path="url(#clip490)" style="stroke:#000000; stroke-width:1; stroke-opacity:1; fill:none" points="
  470.424,83.7572 570.832,83.7572 570.832,23.2772 470.424,23.2772 470.424,83.7572 
  "/>
<path clip-path="url(#clip490)" d="M493.567 31.9972 L492.063 36.3236 L487.48 36.4196 L491.135 39.1908 L489.803 43.5748 L493.567 40.9572 L497.33 43.5748 L495.999 39.1908 L499.653 36.4196 L495.071 36.3236 L493.567 31.9972 Z" fill="#ffd700" fill-rule="evenodd" fill-opacity="1" stroke="#000000" stroke-opacity="1" stroke-width="0.64"/>
<path clip-path="url(#clip490)" d="M 0 0 M522.27 34.3607 L522.27 35.5008 Q521.605 35.1825 521.015 35.0262 Q520.424 34.87 519.875 34.87 Q518.92 34.87 518.399 35.2403 Q517.884 35.6107 517.884 36.2936 Q517.884 36.8665 518.225 37.1616 Q518.572 37.451 519.533 37.6304 L520.239 37.7751 Q521.547 38.0239 522.166 38.6547 Q522.791 39.2797 522.791 40.3329 Q522.791 41.5887 521.946 42.2368 Q521.107 42.885 519.481 42.885 Q518.868 42.885 518.173 42.7461 Q517.485 42.6072 516.744 42.3352 L516.744 41.1315 Q517.456 41.5308 518.138 41.7334 Q518.821 41.9359 519.481 41.9359 Q520.482 41.9359 521.026 41.5424 Q521.57 41.1489 521.57 40.4197 Q521.57 39.7831 521.177 39.4243 Q520.789 39.0656 519.898 38.8862 L519.186 38.7473 Q517.878 38.4869 517.294 37.9313 Q516.709 37.3757 516.709 36.3862 Q516.709 35.2403 517.513 34.5806 Q518.324 33.9209 519.741 33.9209 Q520.349 33.9209 520.98 34.0309 Q521.611 34.1408 522.27 34.3607 Z" fill="#000000" fill-rule="evenodd" fill-opacity="1" /><path clip-path="url(#clip490)" d="M 0 0 M523.798 40.1593 L523.798 36.2357 L524.863 36.2357 L524.863 40.1188 Q524.863 41.0389 525.222 41.5019 Q525.581 41.9591 526.298 41.9591 Q527.16 41.9591 527.658 41.4093 Q528.162 40.8595 528.162 39.9105 L528.162 36.2357 L529.226 36.2357 L529.226 42.7172 L528.162 42.7172 L528.162 41.7218 Q527.774 42.3121 527.259 42.6014 Q526.75 42.885 526.072 42.885 Q524.956 42.885 524.377 42.1905 Q523.798 41.4961 523.798 40.1593 M526.478 36.0795 L526.478 36.0795 Z" fill="#000000" fill-rule="evenodd" fill-opacity="1" /><path clip-path="url(#clip490)" d="M 0 0 M535.731 38.8051 L535.731 42.7172 L534.666 42.7172 L534.666 38.8399 Q534.666 37.9197 534.307 37.4626 Q533.949 37.0054 533.231 37.0054 Q532.369 37.0054 531.871 37.5551 Q531.373 38.1049 531.373 39.054 L531.373 42.7172 L530.303 42.7172 L530.303 36.2357 L531.373 36.2357 L531.373 37.2426 Q531.755 36.6582 532.27 36.3688 Q532.791 36.0795 533.468 36.0795 Q534.585 36.0795 535.158 36.7739 Q535.731 37.4626 535.731 38.8051 Z" fill="#000000" fill-rule="evenodd" fill-opacity="1" /><polyline clip-path="url(#clip490)" style="stroke:#008000; stroke-width:1; stroke-opacity:1; fill:none" points="
  476.21,53.5172 510.923,53.5172 
  "/>
<path clip-path="url(#clip490)" d="M 0 0 M516.709 49.1972 L522.172 49.1972 L522.172 50.1809 L517.878 50.1809 L517.878 52.7388 L521.993 52.7388 L521.993 53.7226 L517.878 53.7226 L517.878 56.8534 L522.276 56.8534 L522.276 57.8372 L516.709 57.8372 L516.709 49.1972 Z" fill="#000000" fill-rule="evenodd" fill-opacity="1" /><path clip-path="url(#clip490)" d="M 0 0 M526.339 54.5791 Q525.048 54.5791 524.55 54.8742 Q524.053 55.1693 524.053 55.8811 Q524.053 56.4483 524.423 56.7839 Q524.799 57.1138 525.442 57.1138 Q526.327 57.1138 526.859 56.4888 Q527.398 55.858 527.398 54.8163 L527.398 54.5791 L526.339 54.5791 M528.462 54.1393 L528.462 57.8372 L527.398 57.8372 L527.398 56.8534 Q527.033 57.4436 526.489 57.7272 Q525.945 58.005 525.158 58.005 Q524.163 58.005 523.572 57.4494 Q522.988 56.8881 522.988 55.9506 Q522.988 54.8568 523.717 54.3013 Q524.452 53.7457 525.905 53.7457 L527.398 53.7457 L527.398 53.6416 Q527.398 52.9066 526.912 52.5073 Q526.431 52.1022 525.557 52.1022 Q525.002 52.1022 524.475 52.2353 Q523.949 52.3684 523.462 52.6346 L523.462 51.6508 Q524.047 51.4252 524.597 51.3152 Q525.147 51.1995 525.667 51.1995 Q527.074 51.1995 527.768 51.9286 Q528.462 52.6578 528.462 54.1393 Z" fill="#000000" fill-rule="evenodd" fill-opacity="1" /><path clip-path="url(#clip490)" d="M 0 0 M533.335 52.3511 Q533.156 52.2469 532.942 52.2006 Q532.733 52.1485 532.479 52.1485 Q531.576 52.1485 531.09 52.7388 Q530.609 53.3233 530.609 54.4228 L530.609 57.8372 L529.539 57.8372 L529.539 51.3557 L530.609 51.3557 L530.609 52.3626 Q530.945 51.7724 531.483 51.4888 Q532.021 51.1995 532.791 51.1995 Q532.901 51.1995 533.034 51.2168 Q533.167 51.2284 533.329 51.2573 L533.335 52.3511 Z" fill="#000000" fill-rule="evenodd" fill-opacity="1" /><path clip-path="url(#clip490)" d="M 0 0 M535.505 49.5154 L535.505 51.3557 L537.699 51.3557 L537.699 52.1832 L535.505 52.1832 L535.505 55.7017 Q535.505 56.4946 535.719 56.7203 Q535.939 56.946 536.605 56.946 L537.699 56.946 L537.699 57.8372 L536.605 57.8372 Q535.372 57.8372 534.903 57.38 Q534.435 56.917 534.435 55.7017 L534.435 52.1832 L533.653 52.1832 L533.653 51.3557 L534.435 51.3557 L534.435 49.5154 L535.505 49.5154 Z" fill="#000000" fill-rule="evenodd" fill-opacity="1" /><path clip-path="url(#clip490)" d="M 0 0 M544.203 53.9251 L544.203 57.8372 L543.138 57.8372 L543.138 53.9599 Q543.138 53.0397 542.78 52.5826 Q542.421 52.1254 541.703 52.1254 Q540.841 52.1254 540.343 52.6751 Q539.846 53.2249 539.846 54.174 L539.846 57.8372 L538.775 57.8372 L538.775 48.8326 L539.846 48.8326 L539.846 52.3626 Q540.227 51.7782 540.742 51.4888 Q541.263 51.1995 541.94 51.1995 Q543.057 51.1995 543.63 51.8939 Q544.203 52.5826 544.203 53.9251 Z" fill="#000000" fill-rule="evenodd" fill-opacity="1" /><polyline clip-path="url(#clip490)" style="stroke:#00bfff; stroke-width:1; stroke-opacity:1; fill:none" points="
  476.21,68.6372 510.923,68.6372 
  "/>
<path clip-path="url(#clip490)" d="M 0 0 M520.667 65.4688 L519.082 69.7685 L522.259 69.7685 L520.667 65.4688 M520.008 64.3172 L521.333 64.3172 L524.626 72.9572 L523.41 72.9572 L522.623 70.7407 L518.729 70.7407 L517.942 72.9572 L516.709 72.9572 L520.008 64.3172 Z" fill="#000000" fill-rule="evenodd" fill-opacity="1" /><path clip-path="url(#clip490)" d="M 0 0 M526.773 71.9849 L526.773 75.4224 L525.702 75.4224 L525.702 66.4757 L526.773 66.4757 L526.773 67.4595 Q527.108 66.8808 527.618 66.603 Q528.133 66.3195 528.844 66.3195 Q530.025 66.3195 530.76 67.257 Q531.501 68.1944 531.501 69.7222 Q531.501 71.25 530.76 72.1875 Q530.025 73.125 528.844 73.125 Q528.133 73.125 527.618 72.8472 Q527.108 72.5636 526.773 71.9849 M530.395 69.7222 Q530.395 68.5475 529.909 67.882 Q529.429 67.2107 528.584 67.2107 Q527.739 67.2107 527.253 67.882 Q526.773 68.5475 526.773 69.7222 Q526.773 70.897 527.253 71.5683 Q527.739 72.2338 528.584 72.2338 Q529.429 72.2338 529.909 71.5683 Q530.395 70.897 530.395 69.7222 Z" fill="#000000" fill-rule="evenodd" fill-opacity="1" /><path clip-path="url(#clip490)" d="M 0 0 M535.129 67.2222 Q534.273 67.2222 533.775 67.8935 Q533.277 68.559 533.277 69.7222 Q533.277 70.8854 533.769 71.5567 Q534.267 72.2222 535.129 72.2222 Q535.98 72.2222 536.477 71.5509 Q536.975 70.8796 536.975 69.7222 Q536.975 68.5706 536.477 67.8993 Q535.98 67.2222 535.129 67.2222 M535.129 66.3195 Q536.518 66.3195 537.311 67.2222 Q538.104 68.125 538.104 69.7222 Q538.104 71.3136 537.311 72.2222 Q536.518 73.125 535.129 73.125 Q533.734 73.125 532.942 72.2222 Q532.155 71.3136 532.155 69.7222 Q532.155 68.125 532.942 67.2222 Q533.734 66.3195 535.129 66.3195 Z" fill="#000000" fill-rule="evenodd" fill-opacity="1" /><path clip-path="url(#clip490)" d="M 0 0 M540.251 71.9849 L540.251 75.4224 L539.18 75.4224 L539.18 66.4757 L540.251 66.4757 L540.251 67.4595 Q540.586 66.8808 541.096 66.603 Q541.611 66.3195 542.322 66.3195 Q543.503 66.3195 544.238 67.257 Q544.979 68.1944 544.979 69.7222 Q544.979 71.25 544.238 72.1875 Q543.503 73.125 542.322 73.125 Q541.611 73.125 541.096 72.8472 Q540.586 72.5636 540.251 71.9849 M543.873 69.7222 Q543.873 68.5475 543.387 67.882 Q542.907 67.2107 542.062 67.2107 Q541.217 67.2107 540.731 67.882 Q540.251 68.5475 540.251 69.7222 Q540.251 70.897 540.731 71.5683 Q541.217 72.2338 542.062 72.2338 Q542.907 72.2338 543.387 71.5683 Q543.873 70.897 543.873 69.7222 Z" fill="#000000" fill-rule="evenodd" fill-opacity="1" /><path clip-path="url(#clip490)" d="M 0 0 M551.483 69.0451 L551.483 72.9572 L550.418 72.9572 L550.418 69.0799 Q550.418 68.1597 550.06 67.7026 Q549.701 67.2454 548.983 67.2454 Q548.121 67.2454 547.623 67.7951 Q547.126 68.3449 547.126 69.294 L547.126 72.9572 L546.055 72.9572 L546.055 63.9526 L547.126 63.9526 L547.126 67.4826 Q547.508 66.8982 548.023 66.6088 Q548.543 66.3195 549.22 66.3195 Q550.337 66.3195 550.91 67.0139 Q551.483 67.7026 551.483 69.0451 Z" fill="#000000" fill-rule="evenodd" fill-opacity="1" /><path clip-path="url(#clip490)" d="M 0 0 M552.6 66.4757 L553.665 66.4757 L553.665 72.9572 L552.6 72.9572 L552.6 66.4757 M552.6 63.9526 L553.665 63.9526 L553.665 65.3009 L552.6 65.3009 L552.6 63.9526 Z" fill="#000000" fill-rule="evenodd" fill-opacity="1" /><path clip-path="url(#clip490)" d="M 0 0 M558.914 66.6667 L558.914 67.6736 Q558.462 67.4421 557.976 67.3264 Q557.49 67.2107 556.969 67.2107 Q556.176 67.2107 555.777 67.4537 Q555.384 67.6968 555.384 68.1829 Q555.384 68.5532 555.667 68.7674 Q555.951 68.9757 556.807 69.1667 L557.172 69.2477 Q558.306 69.4907 558.781 69.9363 Q559.261 70.3762 559.261 71.169 Q559.261 72.0717 558.543 72.5984 Q557.832 73.125 556.582 73.125 Q556.061 73.125 555.494 73.0208 Q554.932 72.9224 554.307 72.7199 L554.307 71.6204 Q554.898 71.9271 555.47 72.0833 Q556.043 72.2338 556.605 72.2338 Q557.357 72.2338 557.762 71.9792 Q558.167 71.7187 558.167 71.25 Q558.167 70.816 557.872 70.5845 Q557.583 70.353 556.593 70.1389 L556.223 70.0521 Q555.233 69.8437 554.793 69.4155 Q554.354 68.9815 554.354 68.2292 Q554.354 67.3148 555.002 66.8171 Q555.65 66.3195 556.842 66.3195 Q557.432 66.3195 557.953 66.4063 Q558.474 66.4931 558.914 66.6667 Z" fill="#000000" fill-rule="evenodd" fill-opacity="1" /></svg>
