<?xml version="1.0" encoding="utf-8"?>
<svg xmlns="http://www.w3.org/2000/svg" xmlns:xlink="http://www.w3.org/1999/xlink" width="600" height="400" viewBox="0 0 2400 1600">
<defs>
  <clipPath id="clip400">
    <rect x="0" y="0" width="2400" height="1600"/>
  </clipPath>
</defs>
<path clip-path="url(#clip400)" d="M0 1600 L2400 1600 L2400 0 L0 0  Z" fill="#ffffff" fill-rule="evenodd" fill-opacity="1"/>
<defs>
  <clipPath id="clip401">
    <rect x="309" y="47" width="2044" height="1377"/>
  </clipPath>
</defs>
<path clip-path="url(#clip400)" d="M309.866 1423.18 L2352.76 1423.18 L2352.76 47.2441 L309.866 47.2441  Z" fill="#ffffff" fill-rule="evenodd" fill-opacity="1"/>
<polyline clip-path="url(#clip401)" style="stroke:#000000; stroke-linecap:round; stroke-linejoin:round; stroke-width:2; stroke-opacity:0.1; fill:none" points="694.833,1423.18 694.833,47.2441 "/>
<polyline clip-path="url(#clip401)" style="stroke:#000000; stroke-linecap:round; stroke-linejoin:round; stroke-width:2; stroke-opacity:0.1; fill:none" points="1107.47,1423.18 1107.47,47.2441 "/>
<polyline clip-path="url(#clip401)" style="stroke:#000000; stroke-linecap:round; stroke-linejoin:round; stroke-width:2; stroke-opacity:0.1; fill:none" points="1520.1,1423.18 1520.1,47.2441 "/>
<polyline clip-path="url(#clip401)" style="stroke:#000000; stroke-linecap:round; stroke-linejoin:round; stroke-width:2; stroke-opacity:0.1; fill:none" points="1932.73,1423.18 1932.73,47.2441 "/>
<polyline clip-path="url(#clip401)" style="stroke:#000000; stroke-linecap:round; stroke-linejoin:round; stroke-width:2; stroke-opacity:0.1; fill:none" points="2345.37,1423.18 2345.37,47.2441 "/>
<polyline clip-path="url(#clip401)" style="stroke:#000000; stroke-linecap:round; stroke-linejoin:round; stroke-width:2; stroke-opacity:0.1; fill:none" points="309.866,1314.58 2352.76,1314.58 "/>
<polyline clip-path="url(#clip401)" style="stroke:#000000; stroke-linecap:round; stroke-linejoin:round; stroke-width:2; stroke-opacity:0.1; fill:none" points="309.866,1100.67 2352.76,1100.67 "/>
<polyline clip-path="url(#clip401)" style="stroke:#000000; stroke-linecap:round; stroke-linejoin:round; stroke-width:2; stroke-opacity:0.1; fill:none" points="309.866,886.768 2352.76,886.768 "/>
<polyline clip-path="url(#clip401)" style="stroke:#000000; stroke-linecap:round; stroke-linejoin:round; stroke-width:2; stroke-opacity:0.1; fill:none" points="309.866,672.863 2352.76,672.863 "/>
<polyline clip-path="url(#clip401)" style="stroke:#000000; stroke-linecap:round; stroke-linejoin:round; stroke-width:2; stroke-opacity:0.1; fill:none" points="309.866,458.958 2352.76,458.958 "/>
<polyline clip-path="url(#clip401)" style="stroke:#000000; stroke-linecap:round; stroke-linejoin:round; stroke-width:2; stroke-opacity:0.1; fill:none" points="309.866,245.053 2352.76,245.053 "/>
<polyline clip-path="url(#clip400)" style="stroke:#000000; stroke-linecap:round; stroke-linejoin:round; stroke-width:4; stroke-opacity:1; fill:none" points="309.866,1423.18 2352.76,1423.18 "/>
<polyline clip-path="url(#clip400)" style="stroke:#000000; stroke-linecap:round; stroke-linejoin:round; stroke-width:4; stroke-opacity:1; fill:none" points="694.833,1423.18 694.833,1404.28 "/>
<polyline clip-path="url(#clip400)" style="stroke:#000000; stroke-linecap:round; stroke-linejoin:round; stroke-width:4; stroke-opacity:1; fill:none" points="1107.47,1423.18 1107.47,1404.28 "/>
<polyline clip-path="url(#clip400)" style="stroke:#000000; stroke-linecap:round; stroke-linejoin:round; stroke-width:4; stroke-opacity:1; fill:none" points="1520.1,1423.18 1520.1,1404.28 "/>
<polyline clip-path="url(#clip400)" style="stroke:#000000; stroke-linecap:round; stroke-linejoin:round; stroke-width:4; stroke-opacity:1; fill:none" points="1932.73,1423.18 1932.73,1404.28 "/>
<polyline clip-path="url(#clip400)" style="stroke:#000000; stroke-linecap:round; stroke-linejoin:round; stroke-width:4; stroke-opacity:1; fill:none" points="2345.37,1423.18 2345.37,1404.28 "/>
<path clip-path="url(#clip400)" d="M641.975 1454.1 Q638.364 1454.1 636.535 1457.66 Q634.729 1461.2 634.729 1468.33 Q634.729 1475.44 636.535 1479.01 Q638.364 1482.55 641.975 1482.55 Q645.609 1482.55 647.415 1479.01 Q649.243 1475.44 649.243 1468.33 Q649.243 1461.2 647.415 1457.66 Q645.609 1454.1 641.975 1454.1 M641.975 1450.39 Q647.785 1450.39 650.84 1455 Q653.919 1459.58 653.919 1468.33 Q653.919 1477.06 650.84 1481.67 Q647.785 1486.25 641.975 1486.25 Q636.165 1486.25 633.086 1481.67 Q630.03 1477.06 630.03 1468.33 Q630.03 1459.58 633.086 1455 Q636.165 1450.39 641.975 1450.39 Z" fill="#000000" fill-rule="nonzero" fill-opacity="1" /><path clip-path="url(#clip400)" d="M662.137 1479.7 L667.021 1479.7 L667.021 1485.58 L662.137 1485.58 L662.137 1479.7 Z" fill="#000000" fill-rule="nonzero" fill-opacity="1" /><path clip-path="url(#clip400)" d="M691.373 1466.95 Q694.729 1467.66 696.604 1469.93 Q698.502 1472.2 698.502 1475.53 Q698.502 1480.65 694.984 1483.45 Q691.465 1486.25 684.984 1486.25 Q682.808 1486.25 680.493 1485.81 Q678.201 1485.39 675.748 1484.54 L675.748 1480.02 Q677.692 1481.16 680.007 1481.74 Q682.322 1482.32 684.845 1482.32 Q689.243 1482.32 691.535 1480.58 Q693.849 1478.84 693.849 1475.53 Q693.849 1472.48 691.697 1470.77 Q689.567 1469.03 685.748 1469.03 L681.72 1469.03 L681.72 1465.19 L685.933 1465.19 Q689.382 1465.19 691.211 1463.82 Q693.039 1462.43 693.039 1459.84 Q693.039 1457.18 691.141 1455.77 Q689.266 1454.33 685.748 1454.33 Q683.826 1454.33 681.627 1454.75 Q679.428 1455.16 676.789 1456.04 L676.789 1451.88 Q679.451 1451.14 681.766 1450.77 Q684.104 1450.39 686.164 1450.39 Q691.488 1450.39 694.59 1452.83 Q697.692 1455.23 697.692 1459.35 Q697.692 1462.22 696.049 1464.21 Q694.405 1466.18 691.373 1466.95 Z" fill="#000000" fill-rule="nonzero" fill-opacity="1" /><path clip-path="url(#clip400)" d="M717.368 1454.1 Q713.757 1454.1 711.928 1457.66 Q710.123 1461.2 710.123 1468.33 Q710.123 1475.44 711.928 1479.01 Q713.757 1482.55 717.368 1482.55 Q721.002 1482.55 722.808 1479.01 Q724.636 1475.44 724.636 1468.33 Q724.636 1461.2 722.808 1457.66 Q721.002 1454.1 717.368 1454.1 M717.368 1450.39 Q723.178 1450.39 726.234 1455 Q729.312 1459.58 729.312 1468.33 Q729.312 1477.06 726.234 1481.67 Q723.178 1486.25 717.368 1486.25 Q711.558 1486.25 708.479 1481.67 Q705.424 1477.06 705.424 1468.33 Q705.424 1459.58 708.479 1455 Q711.558 1450.39 717.368 1450.39 Z" fill="#000000" fill-rule="nonzero" fill-opacity="1" /><path clip-path="url(#clip400)" d="M748.108 1466.44 Q744.96 1466.44 743.108 1468.59 Q741.28 1470.74 741.28 1474.49 Q741.28 1478.22 743.108 1480.39 Q744.96 1482.55 748.108 1482.55 Q751.257 1482.55 753.085 1480.39 Q754.937 1478.22 754.937 1474.49 Q754.937 1470.74 753.085 1468.59 Q751.257 1466.44 748.108 1466.44 M757.391 1451.78 L757.391 1456.04 Q755.632 1455.21 753.826 1454.77 Q752.044 1454.33 750.284 1454.33 Q745.655 1454.33 743.201 1457.45 Q740.771 1460.58 740.423 1466.9 Q741.789 1464.89 743.849 1463.82 Q745.909 1462.73 748.386 1462.73 Q753.595 1462.73 756.604 1465.9 Q759.636 1469.05 759.636 1474.49 Q759.636 1479.82 756.488 1483.03 Q753.34 1486.25 748.108 1486.25 Q742.113 1486.25 738.942 1481.67 Q735.771 1477.06 735.771 1468.33 Q735.771 1460.14 739.659 1455.28 Q743.548 1450.39 750.099 1450.39 Q751.858 1450.39 753.641 1450.74 Q755.446 1451.09 757.391 1451.78 Z" fill="#000000" fill-rule="nonzero" fill-opacity="1" /><path clip-path="url(#clip400)" d="M1054.74 1454.1 Q1051.12 1454.1 1049.3 1457.66 Q1047.49 1461.2 1047.49 1468.33 Q1047.49 1475.44 1049.3 1479.01 Q1051.12 1482.55 1054.74 1482.55 Q1058.37 1482.55 1060.18 1479.01 Q1062 1475.44 1062 1468.33 Q1062 1461.2 1060.18 1457.66 Q1058.37 1454.1 1054.74 1454.1 M1054.74 1450.39 Q1060.55 1450.39 1063.6 1455 Q1066.68 1459.58 1066.68 1468.33 Q1066.68 1477.06 1063.6 1481.67 Q1060.55 1486.25 1054.74 1486.25 Q1048.93 1486.25 1045.85 1481.67 Q1042.79 1477.06 1042.79 1468.33 Q1042.79 1459.58 1045.85 1455 Q1048.93 1450.39 1054.74 1450.39 Z" fill="#000000" fill-rule="nonzero" fill-opacity="1" /><path clip-path="url(#clip400)" d="M1074.9 1479.7 L1079.78 1479.7 L1079.78 1485.58 L1074.9 1485.58 L1074.9 1479.7 Z" fill="#000000" fill-rule="nonzero" fill-opacity="1" /><path clip-path="url(#clip400)" d="M1104.13 1466.95 Q1107.49 1467.66 1109.36 1469.93 Q1111.26 1472.2 1111.26 1475.53 Q1111.26 1480.65 1107.74 1483.45 Q1104.23 1486.25 1097.74 1486.25 Q1095.57 1486.25 1093.25 1485.81 Q1090.96 1485.39 1088.51 1484.54 L1088.51 1480.02 Q1090.45 1481.16 1092.77 1481.74 Q1095.08 1482.32 1097.61 1482.32 Q1102 1482.32 1104.3 1480.58 Q1106.61 1478.84 1106.61 1475.53 Q1106.61 1472.48 1104.46 1470.77 Q1102.33 1469.03 1098.51 1469.03 L1094.48 1469.03 L1094.48 1465.19 L1098.69 1465.19 Q1102.14 1465.19 1103.97 1463.82 Q1105.8 1462.43 1105.8 1459.84 Q1105.8 1457.18 1103.9 1455.77 Q1102.03 1454.33 1098.51 1454.33 Q1096.59 1454.33 1094.39 1454.75 Q1092.19 1455.16 1089.55 1456.04 L1089.55 1451.88 Q1092.21 1451.14 1094.53 1450.77 Q1096.86 1450.39 1098.93 1450.39 Q1104.25 1450.39 1107.35 1452.83 Q1110.45 1455.23 1110.45 1459.35 Q1110.45 1462.22 1108.81 1464.21 Q1107.17 1466.18 1104.13 1466.95 Z" fill="#000000" fill-rule="nonzero" fill-opacity="1" /><path clip-path="url(#clip400)" d="M1130.13 1454.1 Q1126.52 1454.1 1124.69 1457.66 Q1122.88 1461.2 1122.88 1468.33 Q1122.88 1475.44 1124.69 1479.01 Q1126.52 1482.55 1130.13 1482.55 Q1133.76 1482.55 1135.57 1479.01 Q1137.4 1475.44 1137.4 1468.33 Q1137.4 1461.2 1135.57 1457.66 Q1133.76 1454.1 1130.13 1454.1 M1130.13 1450.39 Q1135.94 1450.39 1138.99 1455 Q1142.07 1459.58 1142.07 1468.33 Q1142.07 1477.06 1138.99 1481.67 Q1135.94 1486.25 1130.13 1486.25 Q1124.32 1486.25 1121.24 1481.67 Q1118.18 1477.06 1118.18 1468.33 Q1118.18 1459.58 1121.24 1455 Q1124.32 1450.39 1130.13 1450.39 Z" fill="#000000" fill-rule="nonzero" fill-opacity="1" /><path clip-path="url(#clip400)" d="M1160.29 1469.17 Q1156.96 1469.17 1155.04 1470.95 Q1153.14 1472.73 1153.14 1475.86 Q1153.14 1478.98 1155.04 1480.77 Q1156.96 1482.55 1160.29 1482.55 Q1163.62 1482.55 1165.55 1480.77 Q1167.47 1478.96 1167.47 1475.86 Q1167.47 1472.73 1165.55 1470.95 Q1163.65 1469.17 1160.29 1469.17 M1155.61 1467.18 Q1152.61 1466.44 1150.92 1464.38 Q1149.25 1462.32 1149.25 1459.35 Q1149.25 1455.21 1152.19 1452.8 Q1155.15 1450.39 1160.29 1450.39 Q1165.45 1450.39 1168.39 1452.8 Q1171.33 1455.21 1171.33 1459.35 Q1171.33 1462.32 1169.64 1464.38 Q1167.98 1466.44 1164.99 1467.18 Q1168.37 1467.96 1170.24 1470.26 Q1172.14 1472.55 1172.14 1475.86 Q1172.14 1480.88 1169.06 1483.57 Q1166.01 1486.25 1160.29 1486.25 Q1154.57 1486.25 1151.49 1483.57 Q1148.44 1480.88 1148.44 1475.86 Q1148.44 1472.55 1150.34 1470.26 Q1152.23 1467.96 1155.61 1467.18 M1153.9 1459.79 Q1153.9 1462.48 1155.57 1463.98 Q1157.26 1465.49 1160.29 1465.49 Q1163.3 1465.49 1164.99 1463.98 Q1166.7 1462.48 1166.7 1459.79 Q1166.7 1457.11 1164.99 1455.6 Q1163.3 1454.1 1160.29 1454.1 Q1157.26 1454.1 1155.57 1455.6 Q1153.9 1457.11 1153.9 1459.79 Z" fill="#000000" fill-rule="nonzero" fill-opacity="1" /><path clip-path="url(#clip400)" d="M1467.32 1454.1 Q1463.71 1454.1 1461.88 1457.66 Q1460.08 1461.2 1460.08 1468.33 Q1460.08 1475.44 1461.88 1479.01 Q1463.71 1482.55 1467.32 1482.55 Q1470.96 1482.55 1472.76 1479.01 Q1474.59 1475.44 1474.59 1468.33 Q1474.59 1461.2 1472.76 1457.66 Q1470.96 1454.1 1467.32 1454.1 M1467.32 1450.39 Q1473.13 1450.39 1476.19 1455 Q1479.27 1459.58 1479.27 1468.33 Q1479.27 1477.06 1476.19 1481.67 Q1473.13 1486.25 1467.32 1486.25 Q1461.51 1486.25 1458.43 1481.67 Q1455.38 1477.06 1455.38 1468.33 Q1455.38 1459.58 1458.43 1455 Q1461.51 1450.39 1467.32 1450.39 Z" fill="#000000" fill-rule="nonzero" fill-opacity="1" /><path clip-path="url(#clip400)" d="M1487.48 1479.7 L1492.37 1479.7 L1492.37 1485.58 L1487.48 1485.58 L1487.48 1479.7 Z" fill="#000000" fill-rule="nonzero" fill-opacity="1" /><path clip-path="url(#clip400)" d="M1516.72 1466.95 Q1520.08 1467.66 1521.95 1469.93 Q1523.85 1472.2 1523.85 1475.53 Q1523.85 1480.65 1520.33 1483.45 Q1516.81 1486.25 1510.33 1486.25 Q1508.16 1486.25 1505.84 1485.81 Q1503.55 1485.39 1501.1 1484.54 L1501.1 1480.02 Q1503.04 1481.16 1505.35 1481.74 Q1507.67 1482.32 1510.19 1482.32 Q1514.59 1482.32 1516.88 1480.58 Q1519.2 1478.84 1519.2 1475.53 Q1519.2 1472.48 1517.04 1470.77 Q1514.91 1469.03 1511.1 1469.03 L1507.07 1469.03 L1507.07 1465.19 L1511.28 1465.19 Q1514.73 1465.19 1516.56 1463.82 Q1518.39 1462.43 1518.39 1459.84 Q1518.39 1457.18 1516.49 1455.77 Q1514.61 1454.33 1511.1 1454.33 Q1509.17 1454.33 1506.98 1454.75 Q1504.78 1455.16 1502.14 1456.04 L1502.14 1451.88 Q1504.8 1451.14 1507.11 1450.77 Q1509.45 1450.39 1511.51 1450.39 Q1516.84 1450.39 1519.94 1452.83 Q1523.04 1455.23 1523.04 1459.35 Q1523.04 1462.22 1521.4 1464.21 Q1519.75 1466.18 1516.72 1466.95 Z" fill="#000000" fill-rule="nonzero" fill-opacity="1" /><path clip-path="url(#clip400)" d="M1533.53 1481.64 L1541.16 1481.64 L1541.16 1455.28 L1532.85 1456.95 L1532.85 1452.69 L1541.12 1451.02 L1545.79 1451.02 L1545.79 1481.64 L1553.43 1481.64 L1553.43 1485.58 L1533.53 1485.58 L1533.53 1481.64 Z" fill="#000000" fill-rule="nonzero" fill-opacity="1" /><path clip-path="url(#clip400)" d="M1572.88 1454.1 Q1569.27 1454.1 1567.44 1457.66 Q1565.63 1461.2 1565.63 1468.33 Q1565.63 1475.44 1567.44 1479.01 Q1569.27 1482.55 1572.88 1482.55 Q1576.51 1482.55 1578.32 1479.01 Q1580.15 1475.44 1580.15 1468.33 Q1580.15 1461.2 1578.32 1457.66 Q1576.51 1454.1 1572.88 1454.1 M1572.88 1450.39 Q1578.69 1450.39 1581.74 1455 Q1584.82 1459.58 1584.82 1468.33 Q1584.82 1477.06 1581.74 1481.67 Q1578.69 1486.25 1572.88 1486.25 Q1567.07 1486.25 1563.99 1481.67 Q1560.93 1477.06 1560.93 1468.33 Q1560.93 1459.58 1563.99 1455 Q1567.07 1450.39 1572.88 1450.39 Z" fill="#000000" fill-rule="nonzero" fill-opacity="1" /><path clip-path="url(#clip400)" d="M1880.75 1454.1 Q1877.14 1454.1 1875.31 1457.66 Q1873.51 1461.2 1873.51 1468.33 Q1873.51 1475.44 1875.31 1479.01 Q1877.14 1482.55 1880.75 1482.55 Q1884.39 1482.55 1886.19 1479.01 Q1888.02 1475.44 1888.02 1468.33 Q1888.02 1461.2 1886.19 1457.66 Q1884.39 1454.1 1880.75 1454.1 M1880.75 1450.39 Q1886.56 1450.39 1889.62 1455 Q1892.7 1459.58 1892.7 1468.33 Q1892.7 1477.06 1889.62 1481.67 Q1886.56 1486.25 1880.75 1486.25 Q1874.94 1486.25 1871.87 1481.67 Q1868.81 1477.06 1868.81 1468.33 Q1868.81 1459.58 1871.87 1455 Q1874.94 1450.39 1880.75 1450.39 Z" fill="#000000" fill-rule="nonzero" fill-opacity="1" /><path clip-path="url(#clip400)" d="M1900.92 1479.7 L1905.8 1479.7 L1905.8 1485.58 L1900.92 1485.58 L1900.92 1479.7 Z" fill="#000000" fill-rule="nonzero" fill-opacity="1" /><path clip-path="url(#clip400)" d="M1930.15 1466.95 Q1933.51 1467.66 1935.38 1469.93 Q1937.28 1472.2 1937.28 1475.53 Q1937.28 1480.65 1933.76 1483.45 Q1930.25 1486.25 1923.76 1486.25 Q1921.59 1486.25 1919.27 1485.81 Q1916.98 1485.39 1914.53 1484.54 L1914.53 1480.02 Q1916.47 1481.16 1918.79 1481.74 Q1921.1 1482.32 1923.62 1482.32 Q1928.02 1482.32 1930.31 1480.58 Q1932.63 1478.84 1932.63 1475.53 Q1932.63 1472.48 1930.48 1470.77 Q1928.35 1469.03 1924.53 1469.03 L1920.5 1469.03 L1920.5 1465.19 L1924.71 1465.19 Q1928.16 1465.19 1929.99 1463.82 Q1931.82 1462.43 1931.82 1459.84 Q1931.82 1457.18 1929.92 1455.77 Q1928.05 1454.33 1924.53 1454.33 Q1922.61 1454.33 1920.41 1454.75 Q1918.21 1455.16 1915.57 1456.04 L1915.57 1451.88 Q1918.23 1451.14 1920.55 1450.77 Q1922.88 1450.39 1924.94 1450.39 Q1930.27 1450.39 1933.37 1452.83 Q1936.47 1455.23 1936.47 1459.35 Q1936.47 1462.22 1934.83 1464.21 Q1933.18 1466.18 1930.15 1466.95 Z" fill="#000000" fill-rule="nonzero" fill-opacity="1" /><path clip-path="url(#clip400)" d="M1946.96 1481.64 L1954.6 1481.64 L1954.6 1455.28 L1946.29 1456.95 L1946.29 1452.69 L1954.55 1451.02 L1959.23 1451.02 L1959.23 1481.64 L1966.87 1481.64 L1966.87 1485.58 L1946.96 1485.58 L1946.96 1481.64 Z" fill="#000000" fill-rule="nonzero" fill-opacity="1" /><path clip-path="url(#clip400)" d="M1980.34 1481.64 L1996.66 1481.64 L1996.66 1485.58 L1974.71 1485.58 L1974.71 1481.64 Q1977.37 1478.89 1981.96 1474.26 Q1986.56 1469.61 1987.74 1468.27 Q1989.99 1465.74 1990.87 1464.01 Q1991.77 1462.25 1991.77 1460.56 Q1991.77 1457.8 1989.83 1456.07 Q1987.91 1454.33 1984.81 1454.33 Q1982.61 1454.33 1980.15 1455.09 Q1977.72 1455.86 1974.94 1457.41 L1974.94 1452.69 Q1977.77 1451.55 1980.22 1450.97 Q1982.68 1450.39 1984.71 1450.39 Q1990.08 1450.39 1993.28 1453.08 Q1996.47 1455.77 1996.47 1460.26 Q1996.47 1462.39 1995.66 1464.31 Q1994.87 1466.2 1992.77 1468.8 Q1992.19 1469.47 1989.09 1472.69 Q1985.99 1475.88 1980.34 1481.64 Z" fill="#000000" fill-rule="nonzero" fill-opacity="1" /><path clip-path="url(#clip400)" d="M2292.35 1454.1 Q2288.74 1454.1 2286.91 1457.66 Q2285.1 1461.2 2285.1 1468.33 Q2285.1 1475.44 2286.91 1479.01 Q2288.74 1482.55 2292.35 1482.55 Q2295.98 1482.55 2297.79 1479.01 Q2299.61 1475.44 2299.61 1468.33 Q2299.61 1461.2 2297.79 1457.66 Q2295.98 1454.1 2292.35 1454.1 M2292.35 1450.39 Q2298.16 1450.39 2301.21 1455 Q2304.29 1459.58 2304.29 1468.33 Q2304.29 1477.06 2301.21 1481.67 Q2298.16 1486.25 2292.35 1486.25 Q2286.54 1486.25 2283.46 1481.67 Q2280.4 1477.06 2280.4 1468.33 Q2280.4 1459.58 2283.46 1455 Q2286.54 1450.39 2292.35 1450.39 Z" fill="#000000" fill-rule="nonzero" fill-opacity="1" /><path clip-path="url(#clip400)" d="M2312.51 1479.7 L2317.39 1479.7 L2317.39 1485.58 L2312.51 1485.58 L2312.51 1479.7 Z" fill="#000000" fill-rule="nonzero" fill-opacity="1" /><path clip-path="url(#clip400)" d="M2341.74 1466.95 Q2345.1 1467.66 2346.98 1469.93 Q2348.87 1472.2 2348.87 1475.53 Q2348.87 1480.65 2345.36 1483.45 Q2341.84 1486.25 2335.36 1486.25 Q2333.18 1486.25 2330.86 1485.81 Q2328.57 1485.39 2326.12 1484.54 L2326.12 1480.02 Q2328.06 1481.16 2330.38 1481.74 Q2332.69 1482.32 2335.22 1482.32 Q2339.61 1482.32 2341.91 1480.58 Q2344.22 1478.84 2344.22 1475.53 Q2344.22 1472.48 2342.07 1470.77 Q2339.94 1469.03 2336.12 1469.03 L2332.09 1469.03 L2332.09 1465.19 L2336.3 1465.19 Q2339.75 1465.19 2341.58 1463.82 Q2343.41 1462.43 2343.41 1459.84 Q2343.41 1457.18 2341.51 1455.77 Q2339.64 1454.33 2336.12 1454.33 Q2334.2 1454.33 2332 1454.75 Q2329.8 1455.16 2327.16 1456.04 L2327.16 1451.88 Q2329.82 1451.14 2332.14 1450.77 Q2334.48 1450.39 2336.54 1450.39 Q2341.86 1450.39 2344.96 1452.83 Q2348.06 1455.23 2348.06 1459.35 Q2348.06 1462.22 2346.42 1464.21 Q2344.78 1466.18 2341.74 1466.95 Z" fill="#000000" fill-rule="nonzero" fill-opacity="1" /><path clip-path="url(#clip400)" d="M2358.55 1481.64 L2366.19 1481.64 L2366.19 1455.28 L2357.88 1456.95 L2357.88 1452.69 L2366.14 1451.02 L2370.82 1451.02 L2370.82 1481.64 L2378.46 1481.64 L2378.46 1485.58 L2358.55 1485.58 L2358.55 1481.64 Z" fill="#000000" fill-rule="nonzero" fill-opacity="1" /><path clip-path="url(#clip400)" d="M2400.75 1455.09 L2388.94 1473.54 L2400.75 1473.54 L2400.75 1455.09 M2399.52 1451.02 L2405.4 1451.02 L2405.4 1473.54 L2410.33 1473.54 L2410.33 1477.43 L2405.4 1477.43 L2405.4 1485.58 L2400.75 1485.58 L2400.75 1477.43 L2385.15 1477.43 L2385.15 1472.92 L2399.52 1451.02 Z" fill="#000000" fill-rule="nonzero" fill-opacity="1" /><path clip-path="url(#clip400)" d="M1273.24 1532.4 L1260.35 1549.74 L1273.91 1568.04 L1267 1568.04 L1256.63 1554.04 L1246.25 1568.04 L1239.34 1568.04 L1253.19 1549.39 L1240.52 1532.4 L1247.43 1532.4 L1256.88 1545.1 L1266.33 1532.4 L1273.24 1532.4 Z" fill="#000000" fill-rule="nonzero" fill-opacity="1" /><path clip-path="url(#clip400)" d="M1302.36 1518.52 L1315.86 1518.52 L1315.86 1523.07 L1308.22 1523.07 L1308.22 1572.09 L1315.86 1572.09 L1315.86 1576.64 L1302.36 1576.64 L1302.36 1518.52 Z" fill="#000000" fill-rule="nonzero" fill-opacity="1" /><path clip-path="url(#clip400)" d="M1344.54 1550.12 Q1337.44 1550.12 1334.7 1551.75 Q1331.96 1553.37 1331.96 1557.29 Q1331.96 1560.4 1334 1562.25 Q1336.07 1564.07 1339.6 1564.07 Q1344.47 1564.07 1347.4 1560.63 Q1350.36 1557.16 1350.36 1551.43 L1350.36 1550.12 L1344.54 1550.12 M1356.22 1547.71 L1356.22 1568.04 L1350.36 1568.04 L1350.36 1562.63 Q1348.36 1565.88 1345.36 1567.44 Q1342.37 1568.97 1338.04 1568.97 Q1332.57 1568.97 1329.32 1565.91 Q1326.11 1562.82 1326.11 1557.67 Q1326.11 1551.65 1330.12 1548.6 Q1334.16 1545.54 1342.15 1545.54 L1350.36 1545.54 L1350.36 1544.97 Q1350.36 1540.93 1347.69 1538.73 Q1345.04 1536.5 1340.24 1536.5 Q1337.18 1536.5 1334.29 1537.23 Q1331.39 1537.97 1328.72 1539.43 L1328.72 1534.02 Q1331.93 1532.78 1334.96 1532.17 Q1337.98 1531.54 1340.84 1531.54 Q1348.58 1531.54 1352.4 1535.55 Q1356.22 1539.56 1356.22 1547.71 Z" fill="#000000" fill-rule="nonzero" fill-opacity="1" /><path clip-path="url(#clip400)" d="M1367.67 1553.98 L1367.67 1532.4 L1373.53 1532.4 L1373.53 1553.75 Q1373.53 1558.81 1375.5 1561.36 Q1377.48 1563.87 1381.42 1563.87 Q1386.17 1563.87 1388.9 1560.85 Q1391.67 1557.83 1391.67 1552.61 L1391.67 1532.4 L1397.53 1532.4 L1397.53 1568.04 L1391.67 1568.04 L1391.67 1562.57 Q1389.54 1565.82 1386.71 1567.41 Q1383.91 1568.97 1380.18 1568.97 Q1374.04 1568.97 1370.86 1565.15 Q1367.67 1561.33 1367.67 1553.98 M1382.41 1531.54 L1382.41 1531.54 Z" fill="#000000" fill-rule="nonzero" fill-opacity="1" /><path clip-path="url(#clip400)" d="M1423.28 1518.52 L1423.28 1576.64 L1409.78 1576.64 L1409.78 1572.09 L1417.39 1572.09 L1417.39 1523.07 L1409.78 1523.07 L1409.78 1518.52 L1423.28 1518.52 Z" fill="#000000" fill-rule="nonzero" fill-opacity="1" /><polyline clip-path="url(#clip400)" style="stroke:#000000; stroke-linecap:round; stroke-linejoin:round; stroke-width:4; stroke-opacity:1; fill:none" points="309.866,1423.18 309.866,47.2441 "/>
<polyline clip-path="url(#clip400)" style="stroke:#000000; stroke-linecap:round; stroke-linejoin:round; stroke-width:4; stroke-opacity:1; fill:none" points="309.866,1314.58 328.763,1314.58 "/>
<polyline clip-path="url(#clip400)" style="stroke:#000000; stroke-linecap:round; stroke-linejoin:round; stroke-width:4; stroke-opacity:1; fill:none" points="309.866,1100.67 328.763,1100.67 "/>
<polyline clip-path="url(#clip400)" style="stroke:#000000; stroke-linecap:round; stroke-linejoin:round; stroke-width:4; stroke-opacity:1; fill:none" points="309.866,886.768 328.763,886.768 "/>
<polyline clip-path="url(#clip400)" style="stroke:#000000; stroke-linecap:round; stroke-linejoin:round; stroke-width:4; stroke-opacity:1; fill:none" points="309.866,672.863 328.763,672.863 "/>
<polyline clip-path="url(#clip400)" style="stroke:#000000; stroke-linecap:round; stroke-linejoin:round; stroke-width:4; stroke-opacity:1; fill:none" points="309.866,458.958 328.763,458.958 "/>
<polyline clip-path="url(#clip400)" style="stroke:#000000; stroke-linecap:round; stroke-linejoin:round; stroke-width:4; stroke-opacity:1; fill:none" points="309.866,245.053 328.763,245.053 "/>
<path clip-path="url(#clip400)" d="M126.205 1300.38 Q122.593 1300.38 120.765 1303.94 Q118.959 1307.48 118.959 1314.61 Q118.959 1321.72 120.765 1325.28 Q122.593 1328.82 126.205 1328.82 Q129.839 1328.82 131.644 1325.28 Q133.473 1321.72 133.473 1314.61 Q133.473 1307.48 131.644 1303.94 Q129.839 1300.38 126.205 1300.38 M126.205 1296.67 Q132.015 1296.67 135.07 1301.28 Q138.149 1305.86 138.149 1314.61 Q138.149 1323.34 135.07 1327.95 Q132.015 1332.53 126.205 1332.53 Q120.394 1332.53 117.316 1327.95 Q114.26 1323.34 114.26 1314.61 Q114.26 1305.86 117.316 1301.28 Q120.394 1296.67 126.205 1296.67 Z" fill="#000000" fill-rule="nonzero" fill-opacity="1" /><path clip-path="url(#clip400)" d="M146.366 1325.98 L151.251 1325.98 L151.251 1331.86 L146.366 1331.86 L146.366 1325.98 Z" fill="#000000" fill-rule="nonzero" fill-opacity="1" /><path clip-path="url(#clip400)" d="M171.436 1315.45 Q168.102 1315.45 166.181 1317.23 Q164.283 1319.01 164.283 1322.13 Q164.283 1325.26 166.181 1327.04 Q168.102 1328.82 171.436 1328.82 Q174.769 1328.82 176.69 1327.04 Q178.612 1325.24 178.612 1322.13 Q178.612 1319.01 176.69 1317.23 Q174.792 1315.45 171.436 1315.45 M166.76 1313.45 Q163.751 1312.71 162.061 1310.65 Q160.394 1308.59 160.394 1305.63 Q160.394 1301.49 163.334 1299.08 Q166.297 1296.67 171.436 1296.67 Q176.598 1296.67 179.538 1299.08 Q182.477 1301.49 182.477 1305.63 Q182.477 1308.59 180.788 1310.65 Q179.121 1312.71 176.135 1313.45 Q179.514 1314.24 181.389 1316.53 Q183.288 1318.82 183.288 1322.13 Q183.288 1327.16 180.209 1329.84 Q177.153 1332.53 171.436 1332.53 Q165.718 1332.53 162.64 1329.84 Q159.584 1327.16 159.584 1322.13 Q159.584 1318.82 161.482 1316.53 Q163.38 1314.24 166.76 1313.45 M165.047 1306.07 Q165.047 1308.76 166.714 1310.26 Q168.403 1311.76 171.436 1311.76 Q174.445 1311.76 176.135 1310.26 Q177.848 1308.76 177.848 1306.07 Q177.848 1303.38 176.135 1301.88 Q174.445 1300.38 171.436 1300.38 Q168.403 1300.38 166.714 1301.88 Q165.047 1303.38 165.047 1306.07 Z" fill="#000000" fill-rule="nonzero" fill-opacity="1" /><path clip-path="url(#clip400)" d="M191.644 1297.3 L210 1297.3 L210 1301.23 L195.926 1301.23 L195.926 1309.7 Q196.945 1309.36 197.963 1309.2 Q198.982 1309.01 200 1309.01 Q205.787 1309.01 209.167 1312.18 Q212.547 1315.35 212.547 1320.77 Q212.547 1326.35 209.074 1329.45 Q205.602 1332.53 199.283 1332.53 Q197.107 1332.53 194.838 1332.16 Q192.593 1331.79 190.186 1331.05 L190.186 1326.35 Q192.269 1327.48 194.491 1328.04 Q196.713 1328.59 199.19 1328.59 Q203.195 1328.59 205.533 1326.49 Q207.871 1324.38 207.871 1320.77 Q207.871 1317.16 205.533 1315.05 Q203.195 1312.95 199.19 1312.95 Q197.315 1312.95 195.44 1313.36 Q193.588 1313.78 191.644 1314.66 L191.644 1297.3 Z" fill="#000000" fill-rule="nonzero" fill-opacity="1" /><path clip-path="url(#clip400)" d="M225.787 1327.92 L242.107 1327.92 L242.107 1331.86 L220.162 1331.86 L220.162 1327.92 Q222.824 1325.17 227.408 1320.54 Q232.014 1315.88 233.195 1314.54 Q235.44 1312.02 236.32 1310.28 Q237.222 1308.52 237.222 1306.83 Q237.222 1304.08 235.278 1302.34 Q233.357 1300.61 230.255 1300.61 Q228.056 1300.61 225.602 1301.37 Q223.172 1302.13 220.394 1303.69 L220.394 1298.96 Q223.218 1297.83 225.672 1297.25 Q228.125 1296.67 230.162 1296.67 Q235.533 1296.67 238.727 1299.36 Q241.922 1302.04 241.922 1306.53 Q241.922 1308.66 241.111 1310.58 Q240.324 1312.48 238.218 1315.07 Q237.639 1315.75 234.537 1318.96 Q231.435 1322.16 225.787 1327.92 Z" fill="#000000" fill-rule="nonzero" fill-opacity="1" /><path clip-path="url(#clip400)" d="M261.921 1300.38 Q258.31 1300.38 256.482 1303.94 Q254.676 1307.48 254.676 1314.61 Q254.676 1321.72 256.482 1325.28 Q258.31 1328.82 261.921 1328.82 Q265.556 1328.82 267.361 1325.28 Q269.19 1321.72 269.19 1314.61 Q269.19 1307.48 267.361 1303.94 Q265.556 1300.38 261.921 1300.38 M261.921 1296.67 Q267.732 1296.67 270.787 1301.28 Q273.866 1305.86 273.866 1314.61 Q273.866 1323.34 270.787 1327.95 Q267.732 1332.53 261.921 1332.53 Q256.111 1332.53 253.033 1327.95 Q249.977 1323.34 249.977 1314.61 Q249.977 1305.86 253.033 1301.28 Q256.111 1296.67 261.921 1296.67 Z" fill="#000000" fill-rule="nonzero" fill-opacity="1" /><path clip-path="url(#clip400)" d="M127.2 1086.47 Q123.589 1086.47 121.76 1090.04 Q119.955 1093.58 119.955 1100.71 Q119.955 1107.81 121.76 1111.38 Q123.589 1114.92 127.2 1114.92 Q130.834 1114.92 132.64 1111.38 Q134.468 1107.81 134.468 1100.71 Q134.468 1093.58 132.64 1090.04 Q130.834 1086.47 127.2 1086.47 M127.2 1082.77 Q133.01 1082.77 136.066 1087.37 Q139.144 1091.96 139.144 1100.71 Q139.144 1109.43 136.066 1114.04 Q133.01 1118.62 127.2 1118.62 Q121.39 1118.62 118.311 1114.04 Q115.256 1109.43 115.256 1100.71 Q115.256 1091.96 118.311 1087.37 Q121.39 1082.77 127.2 1082.77 Z" fill="#000000" fill-rule="nonzero" fill-opacity="1" /><path clip-path="url(#clip400)" d="M147.362 1112.07 L152.246 1112.07 L152.246 1117.95 L147.362 1117.95 L147.362 1112.07 Z" fill="#000000" fill-rule="nonzero" fill-opacity="1" /><path clip-path="url(#clip400)" d="M172.431 1101.54 Q169.098 1101.54 167.177 1103.32 Q165.278 1105.11 165.278 1108.23 Q165.278 1111.36 167.177 1113.14 Q169.098 1114.92 172.431 1114.92 Q175.764 1114.92 177.686 1113.14 Q179.607 1111.33 179.607 1108.23 Q179.607 1105.11 177.686 1103.32 Q175.788 1101.54 172.431 1101.54 M167.755 1099.55 Q164.746 1098.81 163.056 1096.75 Q161.39 1094.69 161.39 1091.73 Q161.39 1087.58 164.329 1085.17 Q167.292 1082.77 172.431 1082.77 Q177.593 1082.77 180.533 1085.17 Q183.473 1087.58 183.473 1091.73 Q183.473 1094.69 181.783 1096.75 Q180.116 1098.81 177.13 1099.55 Q180.51 1100.34 182.385 1102.63 Q184.283 1104.92 184.283 1108.23 Q184.283 1113.25 181.204 1115.94 Q178.149 1118.62 172.431 1118.62 Q166.714 1118.62 163.635 1115.94 Q160.579 1113.25 160.579 1108.23 Q160.579 1104.92 162.477 1102.63 Q164.376 1100.34 167.755 1099.55 M166.042 1092.17 Q166.042 1094.85 167.709 1096.36 Q169.399 1097.86 172.431 1097.86 Q175.44 1097.86 177.13 1096.36 Q178.843 1094.85 178.843 1092.17 Q178.843 1089.48 177.13 1087.98 Q175.44 1086.47 172.431 1086.47 Q169.399 1086.47 167.709 1087.98 Q166.042 1089.48 166.042 1092.17 Z" fill="#000000" fill-rule="nonzero" fill-opacity="1" /><path clip-path="url(#clip400)" d="M192.639 1083.39 L210.996 1083.39 L210.996 1087.33 L196.922 1087.33 L196.922 1095.8 Q197.94 1095.45 198.959 1095.29 Q199.977 1095.11 200.996 1095.11 Q206.783 1095.11 210.162 1098.28 Q213.542 1101.45 213.542 1106.86 Q213.542 1112.44 210.07 1115.54 Q206.598 1118.62 200.278 1118.62 Q198.102 1118.62 195.834 1118.25 Q193.588 1117.88 191.181 1117.14 L191.181 1112.44 Q193.264 1113.58 195.487 1114.13 Q197.709 1114.69 200.186 1114.69 Q204.19 1114.69 206.528 1112.58 Q208.866 1110.48 208.866 1106.86 Q208.866 1103.25 206.528 1101.15 Q204.19 1099.04 200.186 1099.04 Q198.311 1099.04 196.436 1099.46 Q194.584 1099.87 192.639 1100.75 L192.639 1083.39 Z" fill="#000000" fill-rule="nonzero" fill-opacity="1" /><path clip-path="url(#clip400)" d="M226.783 1114.02 L243.102 1114.02 L243.102 1117.95 L221.158 1117.95 L221.158 1114.02 Q223.82 1111.26 228.403 1106.63 Q233.01 1101.98 234.19 1100.64 Q236.435 1098.11 237.315 1096.38 Q238.218 1094.62 238.218 1092.93 Q238.218 1090.17 236.273 1088.44 Q234.352 1086.7 231.25 1086.7 Q229.051 1086.7 226.598 1087.47 Q224.167 1088.23 221.389 1089.78 L221.389 1085.06 Q224.213 1083.92 226.667 1083.35 Q229.121 1082.77 231.158 1082.77 Q236.528 1082.77 239.722 1085.45 Q242.917 1088.14 242.917 1092.63 Q242.917 1094.76 242.107 1096.68 Q241.32 1098.58 239.213 1101.17 Q238.634 1101.84 235.533 1105.06 Q232.431 1108.25 226.783 1114.02 Z" fill="#000000" fill-rule="nonzero" fill-opacity="1" /><path clip-path="url(#clip400)" d="M252.963 1083.39 L271.32 1083.39 L271.32 1087.33 L257.246 1087.33 L257.246 1095.8 Q258.264 1095.45 259.283 1095.29 Q260.301 1095.11 261.32 1095.11 Q267.107 1095.11 270.486 1098.28 Q273.866 1101.45 273.866 1106.86 Q273.866 1112.44 270.394 1115.54 Q266.921 1118.62 260.602 1118.62 Q258.426 1118.62 256.158 1118.25 Q253.912 1117.88 251.505 1117.14 L251.505 1112.44 Q253.588 1113.58 255.81 1114.13 Q258.033 1114.69 260.509 1114.69 Q264.514 1114.69 266.852 1112.58 Q269.19 1110.48 269.19 1106.86 Q269.19 1103.25 266.852 1101.15 Q264.514 1099.04 260.509 1099.04 Q258.634 1099.04 256.759 1099.46 Q254.908 1099.87 252.963 1100.75 L252.963 1083.39 Z" fill="#000000" fill-rule="nonzero" fill-opacity="1" /><path clip-path="url(#clip400)" d="M126.205 872.566 Q122.593 872.566 120.765 876.131 Q118.959 879.673 118.959 886.802 Q118.959 893.909 120.765 897.473 Q122.593 901.015 126.205 901.015 Q129.839 901.015 131.644 897.473 Q133.473 893.909 133.473 886.802 Q133.473 879.673 131.644 876.131 Q129.839 872.566 126.205 872.566 M126.205 868.863 Q132.015 868.863 135.07 873.469 Q138.149 878.052 138.149 886.802 Q138.149 895.529 135.07 900.135 Q132.015 904.719 126.205 904.719 Q120.394 904.719 117.316 900.135 Q114.26 895.529 114.26 886.802 Q114.26 878.052 117.316 873.469 Q120.394 868.863 126.205 868.863 Z" fill="#000000" fill-rule="nonzero" fill-opacity="1" /><path clip-path="url(#clip400)" d="M146.366 898.168 L151.251 898.168 L151.251 904.048 L146.366 904.048 L146.366 898.168 Z" fill="#000000" fill-rule="nonzero" fill-opacity="1" /><path clip-path="url(#clip400)" d="M171.436 887.636 Q168.102 887.636 166.181 889.418 Q164.283 891.2 164.283 894.325 Q164.283 897.45 166.181 899.233 Q168.102 901.015 171.436 901.015 Q174.769 901.015 176.69 899.233 Q178.612 897.427 178.612 894.325 Q178.612 891.2 176.69 889.418 Q174.792 887.636 171.436 887.636 M166.76 885.645 Q163.751 884.904 162.061 882.844 Q160.394 880.784 160.394 877.821 Q160.394 873.677 163.334 871.27 Q166.297 868.863 171.436 868.863 Q176.598 868.863 179.538 871.27 Q182.477 873.677 182.477 877.821 Q182.477 880.784 180.788 882.844 Q179.121 884.904 176.135 885.645 Q179.514 886.432 181.389 888.724 Q183.288 891.015 183.288 894.325 Q183.288 899.348 180.209 902.034 Q177.153 904.719 171.436 904.719 Q165.718 904.719 162.64 902.034 Q159.584 899.348 159.584 894.325 Q159.584 891.015 161.482 888.724 Q163.38 886.432 166.76 885.645 M165.047 878.261 Q165.047 880.946 166.714 882.45 Q168.403 883.955 171.436 883.955 Q174.445 883.955 176.135 882.45 Q177.848 880.946 177.848 878.261 Q177.848 875.575 176.135 874.071 Q174.445 872.566 171.436 872.566 Q168.403 872.566 166.714 874.071 Q165.047 875.575 165.047 878.261 Z" fill="#000000" fill-rule="nonzero" fill-opacity="1" /><path clip-path="url(#clip400)" d="M191.644 869.488 L210 869.488 L210 873.423 L195.926 873.423 L195.926 881.895 Q196.945 881.548 197.963 881.386 Q198.982 881.2 200 881.2 Q205.787 881.2 209.167 884.372 Q212.547 887.543 212.547 892.96 Q212.547 898.538 209.074 901.64 Q205.602 904.719 199.283 904.719 Q197.107 904.719 194.838 904.348 Q192.593 903.978 190.186 903.237 L190.186 898.538 Q192.269 899.673 194.491 900.228 Q196.713 900.784 199.19 900.784 Q203.195 900.784 205.533 898.677 Q207.871 896.571 207.871 892.96 Q207.871 889.349 205.533 887.242 Q203.195 885.136 199.19 885.136 Q197.315 885.136 195.44 885.552 Q193.588 885.969 191.644 886.849 L191.644 869.488 Z" fill="#000000" fill-rule="nonzero" fill-opacity="1" /><path clip-path="url(#clip400)" d="M235.926 885.413 Q239.283 886.131 241.158 888.399 Q243.056 890.668 243.056 894.001 Q243.056 899.117 239.537 901.918 Q236.019 904.719 229.537 904.719 Q227.361 904.719 225.047 904.279 Q222.755 903.862 220.301 903.006 L220.301 898.492 Q222.246 899.626 224.56 900.205 Q226.875 900.784 229.398 900.784 Q233.797 900.784 236.088 899.048 Q238.403 897.311 238.403 894.001 Q238.403 890.946 236.25 889.233 Q234.121 887.497 230.301 887.497 L226.273 887.497 L226.273 883.654 L230.486 883.654 Q233.935 883.654 235.764 882.288 Q237.593 880.899 237.593 878.307 Q237.593 875.645 235.695 874.233 Q233.82 872.798 230.301 872.798 Q228.38 872.798 226.181 873.214 Q223.982 873.631 221.343 874.511 L221.343 870.344 Q224.005 869.603 226.32 869.233 Q228.658 868.863 230.718 868.863 Q236.042 868.863 239.144 871.293 Q242.246 873.7 242.246 877.821 Q242.246 880.691 240.602 882.682 Q238.959 884.649 235.926 885.413 Z" fill="#000000" fill-rule="nonzero" fill-opacity="1" /><path clip-path="url(#clip400)" d="M261.921 872.566 Q258.31 872.566 256.482 876.131 Q254.676 879.673 254.676 886.802 Q254.676 893.909 256.482 897.473 Q258.31 901.015 261.921 901.015 Q265.556 901.015 267.361 897.473 Q269.19 893.909 269.19 886.802 Q269.19 879.673 267.361 876.131 Q265.556 872.566 261.921 872.566 M261.921 868.863 Q267.732 868.863 270.787 873.469 Q273.866 878.052 273.866 886.802 Q273.866 895.529 270.787 900.135 Q267.732 904.719 261.921 904.719 Q256.111 904.719 253.033 900.135 Q249.977 895.529 249.977 886.802 Q249.977 878.052 253.033 873.469 Q256.111 868.863 261.921 868.863 Z" fill="#000000" fill-rule="nonzero" fill-opacity="1" /><path clip-path="url(#clip400)" d="M127.2 658.661 Q123.589 658.661 121.76 662.226 Q119.955 665.768 119.955 672.897 Q119.955 680.004 121.76 683.569 Q123.589 687.11 127.2 687.11 Q130.834 687.11 132.64 683.569 Q134.468 680.004 134.468 672.897 Q134.468 665.768 132.64 662.226 Q130.834 658.661 127.2 658.661 M127.2 654.958 Q133.01 654.958 136.066 659.564 Q139.144 664.148 139.144 672.897 Q139.144 681.624 136.066 686.231 Q133.01 690.814 127.2 690.814 Q121.39 690.814 118.311 686.231 Q115.256 681.624 115.256 672.897 Q115.256 664.148 118.311 659.564 Q121.39 654.958 127.2 654.958 Z" fill="#000000" fill-rule="nonzero" fill-opacity="1" /><path clip-path="url(#clip400)" d="M147.362 684.263 L152.246 684.263 L152.246 690.143 L147.362 690.143 L147.362 684.263 Z" fill="#000000" fill-rule="nonzero" fill-opacity="1" /><path clip-path="url(#clip400)" d="M172.431 673.731 Q169.098 673.731 167.177 675.513 Q165.278 677.296 165.278 680.421 Q165.278 683.546 167.177 685.328 Q169.098 687.11 172.431 687.11 Q175.764 687.11 177.686 685.328 Q179.607 683.522 179.607 680.421 Q179.607 677.296 177.686 675.513 Q175.788 673.731 172.431 673.731 M167.755 671.74 Q164.746 670.999 163.056 668.939 Q161.39 666.879 161.39 663.916 Q161.39 659.773 164.329 657.365 Q167.292 654.958 172.431 654.958 Q177.593 654.958 180.533 657.365 Q183.473 659.773 183.473 663.916 Q183.473 666.879 181.783 668.939 Q180.116 670.999 177.13 671.74 Q180.51 672.527 182.385 674.819 Q184.283 677.11 184.283 680.421 Q184.283 685.444 181.204 688.129 Q178.149 690.814 172.431 690.814 Q166.714 690.814 163.635 688.129 Q160.579 685.444 160.579 680.421 Q160.579 677.11 162.477 674.819 Q164.376 672.527 167.755 671.74 M166.042 664.356 Q166.042 667.041 167.709 668.546 Q169.399 670.05 172.431 670.05 Q175.44 670.05 177.13 668.546 Q178.843 667.041 178.843 664.356 Q178.843 661.671 177.13 660.166 Q175.44 658.661 172.431 658.661 Q169.399 658.661 167.709 660.166 Q166.042 661.671 166.042 664.356 Z" fill="#000000" fill-rule="nonzero" fill-opacity="1" /><path clip-path="url(#clip400)" d="M192.639 655.583 L210.996 655.583 L210.996 659.518 L196.922 659.518 L196.922 667.99 Q197.94 667.643 198.959 667.481 Q199.977 667.296 200.996 667.296 Q206.783 667.296 210.162 670.467 Q213.542 673.638 213.542 679.055 Q213.542 684.634 210.07 687.735 Q206.598 690.814 200.278 690.814 Q198.102 690.814 195.834 690.444 Q193.588 690.073 191.181 689.333 L191.181 684.634 Q193.264 685.768 195.487 686.323 Q197.709 686.879 200.186 686.879 Q204.19 686.879 206.528 684.772 Q208.866 682.666 208.866 679.055 Q208.866 675.444 206.528 673.337 Q204.19 671.231 200.186 671.231 Q198.311 671.231 196.436 671.647 Q194.584 672.064 192.639 672.944 L192.639 655.583 Z" fill="#000000" fill-rule="nonzero" fill-opacity="1" /><path clip-path="url(#clip400)" d="M236.922 671.509 Q240.278 672.226 242.153 674.495 Q244.051 676.763 244.051 680.096 Q244.051 685.212 240.533 688.013 Q237.014 690.814 230.533 690.814 Q228.357 690.814 226.042 690.374 Q223.75 689.958 221.297 689.101 L221.297 684.587 Q223.241 685.721 225.556 686.3 Q227.871 686.879 230.394 686.879 Q234.792 686.879 237.084 685.143 Q239.398 683.407 239.398 680.096 Q239.398 677.041 237.246 675.328 Q235.116 673.592 231.297 673.592 L227.269 673.592 L227.269 669.749 L231.482 669.749 Q234.931 669.749 236.76 668.384 Q238.588 666.995 238.588 664.402 Q238.588 661.74 236.69 660.328 Q234.815 658.893 231.297 658.893 Q229.375 658.893 227.176 659.31 Q224.977 659.726 222.338 660.606 L222.338 656.439 Q225 655.698 227.315 655.328 Q229.653 654.958 231.713 654.958 Q237.037 654.958 240.139 657.388 Q243.241 659.796 243.241 663.916 Q243.241 666.786 241.597 668.777 Q239.954 670.745 236.922 671.509 Z" fill="#000000" fill-rule="nonzero" fill-opacity="1" /><path clip-path="url(#clip400)" d="M252.963 655.583 L271.32 655.583 L271.32 659.518 L257.246 659.518 L257.246 667.99 Q258.264 667.643 259.283 667.481 Q260.301 667.296 261.32 667.296 Q267.107 667.296 270.486 670.467 Q273.866 673.638 273.866 679.055 Q273.866 684.634 270.394 687.735 Q266.921 690.814 260.602 690.814 Q258.426 690.814 256.158 690.444 Q253.912 690.073 251.505 689.333 L251.505 684.634 Q253.588 685.768 255.81 686.323 Q258.033 686.879 260.509 686.879 Q264.514 686.879 266.852 684.772 Q269.19 682.666 269.19 679.055 Q269.19 675.444 266.852 673.337 Q264.514 671.231 260.509 671.231 Q258.634 671.231 256.759 671.647 Q254.908 672.064 252.963 672.944 L252.963 655.583 Z" fill="#000000" fill-rule="nonzero" fill-opacity="1" /><path clip-path="url(#clip400)" d="M126.205 444.757 Q122.593 444.757 120.765 448.321 Q118.959 451.863 118.959 458.993 Q118.959 466.099 120.765 469.664 Q122.593 473.206 126.205 473.206 Q129.839 473.206 131.644 469.664 Q133.473 466.099 133.473 458.993 Q133.473 451.863 131.644 448.321 Q129.839 444.757 126.205 444.757 M126.205 441.053 Q132.015 441.053 135.07 445.659 Q138.149 450.243 138.149 458.993 Q138.149 467.719 135.07 472.326 Q132.015 476.909 126.205 476.909 Q120.394 476.909 117.316 472.326 Q114.26 467.719 114.26 458.993 Q114.26 450.243 117.316 445.659 Q120.394 441.053 126.205 441.053 Z" fill="#000000" fill-rule="nonzero" fill-opacity="1" /><path clip-path="url(#clip400)" d="M146.366 470.358 L151.251 470.358 L151.251 476.238 L146.366 476.238 L146.366 470.358 Z" fill="#000000" fill-rule="nonzero" fill-opacity="1" /><path clip-path="url(#clip400)" d="M171.436 459.826 Q168.102 459.826 166.181 461.608 Q164.283 463.391 164.283 466.516 Q164.283 469.641 166.181 471.423 Q168.102 473.206 171.436 473.206 Q174.769 473.206 176.69 471.423 Q178.612 469.618 178.612 466.516 Q178.612 463.391 176.69 461.608 Q174.792 459.826 171.436 459.826 M166.76 457.835 Q163.751 457.095 162.061 455.034 Q160.394 452.974 160.394 450.011 Q160.394 445.868 163.334 443.46 Q166.297 441.053 171.436 441.053 Q176.598 441.053 179.538 443.46 Q182.477 445.868 182.477 450.011 Q182.477 452.974 180.788 455.034 Q179.121 457.095 176.135 457.835 Q179.514 458.622 181.389 460.914 Q183.288 463.206 183.288 466.516 Q183.288 471.539 180.209 474.224 Q177.153 476.909 171.436 476.909 Q165.718 476.909 162.64 474.224 Q159.584 471.539 159.584 466.516 Q159.584 463.206 161.482 460.914 Q163.38 458.622 166.76 457.835 M165.047 450.451 Q165.047 453.136 166.714 454.641 Q168.403 456.145 171.436 456.145 Q174.445 456.145 176.135 454.641 Q177.848 453.136 177.848 450.451 Q177.848 447.766 176.135 446.261 Q174.445 444.757 171.436 444.757 Q168.403 444.757 166.714 446.261 Q165.047 447.766 165.047 450.451 Z" fill="#000000" fill-rule="nonzero" fill-opacity="1" /><path clip-path="url(#clip400)" d="M191.644 441.678 L210 441.678 L210 445.613 L195.926 445.613 L195.926 454.085 Q196.945 453.738 197.963 453.576 Q198.982 453.391 200 453.391 Q205.787 453.391 209.167 456.562 Q212.547 459.733 212.547 465.15 Q212.547 470.729 209.074 473.831 Q205.602 476.909 199.283 476.909 Q197.107 476.909 194.838 476.539 Q192.593 476.169 190.186 475.428 L190.186 470.729 Q192.269 471.863 194.491 472.419 Q196.713 472.974 199.19 472.974 Q203.195 472.974 205.533 470.868 Q207.871 468.761 207.871 465.15 Q207.871 461.539 205.533 459.433 Q203.195 457.326 199.19 457.326 Q197.315 457.326 195.44 457.743 Q193.588 458.159 191.644 459.039 L191.644 441.678 Z" fill="#000000" fill-rule="nonzero" fill-opacity="1" /><path clip-path="url(#clip400)" d="M234.607 445.752 L222.801 464.201 L234.607 464.201 L234.607 445.752 M233.38 441.678 L239.259 441.678 L239.259 464.201 L244.19 464.201 L244.19 468.09 L239.259 468.09 L239.259 476.238 L234.607 476.238 L234.607 468.09 L219.005 468.09 L219.005 463.576 L233.38 441.678 Z" fill="#000000" fill-rule="nonzero" fill-opacity="1" /><path clip-path="url(#clip400)" d="M261.921 444.757 Q258.31 444.757 256.482 448.321 Q254.676 451.863 254.676 458.993 Q254.676 466.099 256.482 469.664 Q258.31 473.206 261.921 473.206 Q265.556 473.206 267.361 469.664 Q269.19 466.099 269.19 458.993 Q269.19 451.863 267.361 448.321 Q265.556 444.757 261.921 444.757 M261.921 441.053 Q267.732 441.053 270.787 445.659 Q273.866 450.243 273.866 458.993 Q273.866 467.719 270.787 472.326 Q267.732 476.909 261.921 476.909 Q256.111 476.909 253.033 472.326 Q249.977 467.719 249.977 458.993 Q249.977 450.243 253.033 445.659 Q256.111 441.053 261.921 441.053 Z" fill="#000000" fill-rule="nonzero" fill-opacity="1" /><path clip-path="url(#clip400)" d="M127.2 230.852 Q123.589 230.852 121.76 234.417 Q119.955 237.958 119.955 245.088 Q119.955 252.194 121.76 255.759 Q123.589 259.301 127.2 259.301 Q130.834 259.301 132.64 255.759 Q134.468 252.194 134.468 245.088 Q134.468 237.958 132.64 234.417 Q130.834 230.852 127.2 230.852 M127.2 227.148 Q133.01 227.148 136.066 231.755 Q139.144 236.338 139.144 245.088 Q139.144 253.815 136.066 258.421 Q133.01 263.004 127.2 263.004 Q121.39 263.004 118.311 258.421 Q115.256 253.815 115.256 245.088 Q115.256 236.338 118.311 231.755 Q121.39 227.148 127.2 227.148 Z" fill="#000000" fill-rule="nonzero" fill-opacity="1" /><path clip-path="url(#clip400)" d="M147.362 256.454 L152.246 256.454 L152.246 262.333 L147.362 262.333 L147.362 256.454 Z" fill="#000000" fill-rule="nonzero" fill-opacity="1" /><path clip-path="url(#clip400)" d="M172.431 245.921 Q169.098 245.921 167.177 247.704 Q165.278 249.486 165.278 252.611 Q165.278 255.736 167.177 257.518 Q169.098 259.301 172.431 259.301 Q175.764 259.301 177.686 257.518 Q179.607 255.713 179.607 252.611 Q179.607 249.486 177.686 247.704 Q175.788 245.921 172.431 245.921 M167.755 243.931 Q164.746 243.19 163.056 241.13 Q161.39 239.069 161.39 236.106 Q161.39 231.963 164.329 229.556 Q167.292 227.148 172.431 227.148 Q177.593 227.148 180.533 229.556 Q183.473 231.963 183.473 236.106 Q183.473 239.069 181.783 241.13 Q180.116 243.19 177.13 243.931 Q180.51 244.718 182.385 247.009 Q184.283 249.301 184.283 252.611 Q184.283 257.634 181.204 260.319 Q178.149 263.004 172.431 263.004 Q166.714 263.004 163.635 260.319 Q160.579 257.634 160.579 252.611 Q160.579 249.301 162.477 247.009 Q164.376 244.718 167.755 243.931 M166.042 236.546 Q166.042 239.231 167.709 240.736 Q169.399 242.241 172.431 242.241 Q175.44 242.241 177.13 240.736 Q178.843 239.231 178.843 236.546 Q178.843 233.861 177.13 232.357 Q175.44 230.852 172.431 230.852 Q169.399 230.852 167.709 232.357 Q166.042 233.861 166.042 236.546 Z" fill="#000000" fill-rule="nonzero" fill-opacity="1" /><path clip-path="url(#clip400)" d="M192.639 227.773 L210.996 227.773 L210.996 231.708 L196.922 231.708 L196.922 240.181 Q197.94 239.833 198.959 239.671 Q199.977 239.486 200.996 239.486 Q206.783 239.486 210.162 242.657 Q213.542 245.829 213.542 251.245 Q213.542 256.824 210.07 259.926 Q206.598 263.004 200.278 263.004 Q198.102 263.004 195.834 262.634 Q193.588 262.264 191.181 261.523 L191.181 256.824 Q193.264 257.958 195.487 258.514 Q197.709 259.069 200.186 259.069 Q204.19 259.069 206.528 256.963 Q208.866 254.856 208.866 251.245 Q208.866 247.634 206.528 245.528 Q204.19 243.421 200.186 243.421 Q198.311 243.421 196.436 243.838 Q194.584 244.255 192.639 245.134 L192.639 227.773 Z" fill="#000000" fill-rule="nonzero" fill-opacity="1" /><path clip-path="url(#clip400)" d="M235.602 231.847 L223.797 250.296 L235.602 250.296 L235.602 231.847 M234.375 227.773 L240.255 227.773 L240.255 250.296 L245.185 250.296 L245.185 254.185 L240.255 254.185 L240.255 262.333 L235.602 262.333 L235.602 254.185 L220 254.185 L220 249.671 L234.375 227.773 Z" fill="#000000" fill-rule="nonzero" fill-opacity="1" /><path clip-path="url(#clip400)" d="M252.963 227.773 L271.32 227.773 L271.32 231.708 L257.246 231.708 L257.246 240.181 Q258.264 239.833 259.283 239.671 Q260.301 239.486 261.32 239.486 Q267.107 239.486 270.486 242.657 Q273.866 245.829 273.866 251.245 Q273.866 256.824 270.394 259.926 Q266.921 263.004 260.602 263.004 Q258.426 263.004 256.158 262.634 Q253.912 262.264 251.505 261.523 L251.505 256.824 Q253.588 257.958 255.81 258.514 Q258.033 259.069 260.509 259.069 Q264.514 259.069 266.852 256.963 Q269.19 254.856 269.19 251.245 Q269.19 247.634 266.852 245.528 Q264.514 243.421 260.509 243.421 Q258.634 243.421 256.759 243.838 Q254.908 244.255 252.963 245.134 L252.963 227.773 Z" fill="#000000" fill-rule="nonzero" fill-opacity="1" /><path clip-path="url(#clip400)" d="M67.3143 808.115 Q73.68 810.598 75.6216 812.953 Q77.5631 815.308 77.5631 819.255 L77.5631 823.934 L72.6615 823.934 L72.6615 820.497 Q72.6615 818.078 71.5157 816.741 Q70.3699 815.404 66.1048 813.781 L63.4312 812.73 L28.3562 827.149 L28.3562 820.942 L56.238 809.802 L28.3562 798.662 L28.3562 792.456 L67.3143 808.115 Z" fill="#000000" fill-rule="nonzero" fill-opacity="1" /><path clip-path="url(#clip400)" d="M14.479 764.192 L14.479 750.697 L19.0304 750.697 L19.0304 758.335 L68.0464 758.335 L68.0464 750.697 L72.5979 750.697 L72.5979 764.192 L14.479 764.192 Z" fill="#000000" fill-rule="nonzero" fill-opacity="1" /><path clip-path="url(#clip400)" d="M46.0847 722.019 Q46.0847 729.117 47.7079 731.854 Q49.3312 734.591 53.2461 734.591 Q56.3653 734.591 58.2114 732.554 Q60.0256 730.485 60.0256 726.952 Q60.0256 722.083 56.5881 719.154 Q53.1188 716.194 47.3897 716.194 L46.0847 716.194 L46.0847 722.019 M43.6657 710.338 L64.0042 710.338 L64.0042 716.194 L58.5933 716.194 Q61.8398 718.2 63.3994 721.191 Q64.9272 724.183 64.9272 728.512 Q64.9272 733.987 61.8716 737.233 Q58.7843 740.448 53.6281 740.448 Q47.6125 740.448 44.5569 736.437 Q41.5014 732.395 41.5014 724.406 L41.5014 716.194 L40.9285 716.194 Q36.8862 716.194 34.6901 718.868 Q32.4621 721.51 32.4621 726.316 Q32.4621 729.371 33.1941 732.268 Q33.9262 735.164 35.3903 737.838 L29.9795 737.838 Q28.7381 734.623 28.1334 731.599 Q27.4968 728.576 27.4968 725.711 Q27.4968 717.977 31.5072 714.157 Q35.5176 710.338 43.6657 710.338 Z" fill="#000000" fill-rule="nonzero" fill-opacity="1" /><path clip-path="url(#clip400)" d="M49.9359 698.88 L28.3562 698.88 L28.3562 693.023 L49.7131 693.023 Q54.7739 693.023 57.3202 691.05 Q59.8346 689.077 59.8346 685.13 Q59.8346 680.387 56.8109 677.65 Q53.7872 674.881 48.5673 674.881 L28.3562 674.881 L28.3562 669.025 L64.0042 669.025 L64.0042 674.881 L58.5296 674.881 Q61.7762 677.013 63.3676 679.846 Q64.9272 682.647 64.9272 686.371 Q64.9272 692.514 61.1078 695.697 Q57.2883 698.88 49.9359 698.88 M27.4968 684.143 L27.4968 684.143 Z" fill="#000000" fill-rule="nonzero" fill-opacity="1" /><path clip-path="url(#clip400)" d="M14.479 643.275 L72.5979 643.275 L72.5979 656.771 L68.0464 656.771 L68.0464 649.164 L19.0304 649.164 L19.0304 656.771 L14.479 656.771 L14.479 643.275 Z" fill="#000000" fill-rule="nonzero" fill-opacity="1" /><polyline clip-path="url(#clip401)" style="stroke:#008000; stroke-linecap:round; stroke-linejoin:round; stroke-width:8; stroke-opacity:1; fill:none" points="1793.8,1384.24 1792.37,1383.34 1790.95,1382.45 1789.52,1381.55 1788.09,1380.66 1786.67,1379.76 1785.24,1378.87 1783.82,1377.97 1782.39,1377.08 1780.96,1376.18 1779.54,1375.29 1778.11,1374.39 1776.69,1373.5 1775.26,1372.6 1773.84,1371.71 1772.41,1370.81 1770.98,1369.92 1769.56,1369.02 1768.13,1368.13 1766.71,1367.23 1765.28,1366.34 1763.85,1365.44 1762.43,1364.55 1761,1363.65 1759.58,1362.76 1758.15,1361.86 1756.73,1360.97 1755.3,1360.08 1753.87,1359.18 1752.45,1358.29 1751.02,1357.39 1749.6,1356.5 1748.17,1355.6 1746.74,1354.71 1745.32,1353.81 1743.89,1352.92 1742.47,1352.02 1741.04,1351.13 1739.61,1350.24 1738.19,1349.34 1736.76,1348.45 1735.34,1347.55 1733.91,1346.66 1732.48,1345.76 1731.06,1344.87 1729.63,1343.97 1728.21,1343.08 1726.78,1342.19 1725.35,1341.29 1723.93,1340.4 1722.5,1339.5 1721.08,1338.61 1719.65,1337.72 1718.22,1336.82 1716.8,1335.93 1715.37,1335.03 1713.95,1334.14 1712.52,1333.24 1711.09,1332.35 1709.67,1331.46 1708.24,1330.56 1706.82,1329.67 1705.39,1328.77 1703.96,1327.88 1702.54,1326.99 1701.11,1326.09 1699.69,1325.2 1698.26,1324.31 1696.83,1323.41 1695.41,1322.52 1693.98,1321.62 1692.56,1320.73 1691.13,1319.84 1689.7,1318.94 1688.28,1318.05 1686.85,1317.15 1685.43,1316.26 1684,1315.37 1682.57,1314.47 1681.15,1313.58 1679.72,1312.69 1678.3,1311.79 1676.87,1310.9 1675.44,1310.01 1674.02,1309.11 1672.59,1308.22 1671.17,1307.33 1669.74,1306.43 1668.31,1305.54 1666.89,1304.64 1665.46,1303.75 1664.03,1302.86 1662.61,1301.96 1661.18,1301.07 1659.76,1300.18 1658.33,1299.28 1656.9,1298.39 1655.48,1297.5 1654.05,1296.6 1652.63,1295.71 1651.2,1294.82 1649.77,1293.93 1648.35,1293.03 1646.92,1292.14 1645.5,1291.25 1644.07,1290.35 1642.64,1289.46 1641.22,1288.57 1639.79,1287.67 1638.36,1286.78 1636.94,1285.89 1635.51,1284.99 1634.09,1284.1 1632.66,1283.21 1631.23,1282.32 1629.81,1281.42 1628.38,1280.53 1626.95,1279.64 1625.53,1278.74 1624.1,1277.85 1622.68,1276.96 1621.25,1276.07 1619.82,1275.17 1618.4,1274.28 1616.97,1273.39 1615.54,1272.49 1614.12,1271.6 1612.69,1270.71 1611.27,1269.82 1609.84,1268.92 1608.41,1268.03 1606.99,1267.14 1605.56,1266.25 1604.13,1265.35 1602.71,1264.46 1601.28,1263.57 1599.86,1262.68 1598.43,1261.78 1597,1260.89 1595.58,1260 1594.15,1259.11 1592.72,1258.21 1591.3,1257.32 1589.87,1256.43 1588.45,1255.54 1587.02,1254.64 1585.59,1253.75 1584.17,1252.86 1582.74,1251.97 1581.31,1251.08 1579.89,1250.18 1578.46,1249.29 1577.04,1248.4 1575.61,1247.51 1574.18,1246.61 1572.76,1245.72 1571.33,1244.83 1569.9,1243.94 1568.48,1243.05 1567.05,1242.15 1565.62,1241.26 1564.2,1240.37 1562.77,1239.48 1561.35,1238.59 1559.92,1237.69 1558.49,1236.8 1557.07,1235.91 1555.64,1235.02 1554.21,1234.13 1552.79,1233.23 1551.36,1232.34 1549.93,1231.45 1548.51,1230.56 1547.08,1229.67 1545.65,1228.78 1544.23,1227.88 1542.8,1226.99 1541.38,1226.1 1539.95,1225.21 1538.52,1224.32 1537.1,1223.43 1535.67,1222.53 1534.24,1221.64 1532.82,1220.75 1531.39,1219.86 1529.96,1218.97 1528.54,1218.08 1527.11,1217.18 1525.68,1216.29 1524.26,1215.4 1522.83,1214.51 1521.41,1213.62 1519.98,1212.73 1518.55,1211.84 1517.13,1210.94 1515.7,1210.05 1514.27,1209.16 1512.85,1208.27 1511.42,1207.38 1509.99,1206.49 1508.57,1205.6 1507.14,1204.71 1505.71,1203.81 1504.29,1202.92 1502.86,1202.03 1501.43,1201.14 1500.01,1200.25 1498.58,1199.36 1497.15,1198.47 1495.73,1197.58 1494.3,1196.69 1492.88,1195.79 1491.45,1194.9 1490.02,1194.01 1488.6,1193.12 1487.17,1192.23 1485.74,1191.34 1484.32,1190.45 1482.89,1189.56 1481.46,1188.67 1480.04,1187.78 1478.61,1186.89 1477.18,1185.99 1475.76,1185.1 1474.33,1184.21 1472.9,1183.32 1471.48,1182.43 1470.05,1181.54 1468.62,1180.65 1467.2,1179.76 1465.77,1178.87 1464.34,1177.98 1462.92,1177.09 1461.49,1176.2 1460.06,1175.31 1458.64,1174.42 1457.21,1173.53 1455.78,1172.63 1454.36,1171.74 1452.93,1170.85 1451.5,1169.96 1450.08,1169.07 1448.65,1168.18 1447.22,1167.29 1445.8,1166.4 1444.37,1165.51 1442.94,1164.62 1441.52,1163.73 1440.09,1162.84 1438.66,1161.95 1437.24,1161.06 1435.81,1160.17 1434.38,1159.28 1432.96,1158.39 1431.53,1157.5 1430.1,1156.61 1428.68,1155.72 1427.25,1154.83 1425.82,1153.94 1424.4,1153.05 1422.97,1152.16 1421.54,1151.27 1420.12,1150.38 1418.69,1149.49 1417.26,1148.6 1415.84,1147.71 1414.41,1146.82 1412.98,1145.93 1411.56,1145.04 1410.13,1144.15 1408.7,1143.26 1407.28,1142.37 1405.85,1141.48 1404.42,1140.59 1403,1139.7 1401.57,1138.81 1400.14,1137.92 1398.72,1137.03 1397.29,1136.14 1395.86,1135.25 1394.44,1134.36 1393.01,1133.47 1391.58,1132.58 1390.16,1131.69 1388.73,1130.8 1387.3,1129.91 1385.88,1129.02 1384.45,1128.13 1383.02,1127.25 1381.59,1126.36 1380.17,1125.47 1378.74,1124.58 1377.31,1123.69 1375.89,1122.8 1374.46,1121.91 1373.03,1121.02 1371.61,1120.13 1370.18,1119.24 1368.75,1118.35 1367.33,1117.46 1365.9,1116.57 1364.47,1115.68 1363.05,1114.79 1361.62,1113.91 1360.19,1113.02 1358.77,1112.13 1357.34,1111.24 1355.91,1110.35 1354.48,1109.46 1353.06,1108.57 1351.63,1107.68 1350.2,1106.79 1348.78,1105.9 1347.35,1105.01 1345.92,1104.13 1344.5,1103.24 1343.07,1102.35 1341.64,1101.46 1340.22,1100.57 1338.79,1099.68 1337.36,1098.79 1335.93,1097.9 1334.51,1097.01 1333.08,1096.13 1331.65,1095.24 1330.23,1094.35 1328.8,1093.46 1327.37,1092.57 1325.95,1091.68 1324.52,1090.79 1323.09,1089.9 1321.67,1089.02 1320.24,1088.13 1318.81,1087.24 1317.38,1086.35 1315.96,1085.46 1314.53,1084.57 1313.1,1083.68 1311.68,1082.8 1310.25,1081.91 1308.82,1081.02 1307.4,1080.13 1305.97,1079.24 1304.54,1078.35 1303.11,1077.47 1301.69,1076.58 1300.26,1075.69 1298.83,1074.8 1297.41,1073.91 1295.98,1073.02 1294.55,1072.14 1293.13,1071.25 1291.7,1070.36 1290.27,1069.47 1288.84,1068.58 1287.42,1067.69 1285.99,1066.81 1284.56,1065.92 1283.14,1065.03 1281.71,1064.14 1280.28,1063.25 1278.86,1062.37 1277.43,1061.48 1276,1060.59 1274.57,1059.7 1273.15,1058.81 1271.72,1057.93 1270.29,1057.04 1268.87,1056.15 1267.44,1055.26 1266.01,1054.37 1264.58,1053.49 1263.16,1052.6 1261.73,1051.71 1260.3,1050.82 1258.88,1049.93 1257.45,1049.05 1256.02,1048.16 1254.59,1047.27 1253.17,1046.38 1251.74,1045.5 1250.31,1044.61 1248.89,1043.72 1247.46,1042.83 1246.03,1041.95 1244.6,1041.06 1243.18,1040.17 1241.75,1039.28 1240.32,1038.4 1238.9,1037.51 1237.47,1036.62 1236.04,1035.73 1234.61,1034.85 1233.19,1033.96 1231.76,1033.07 1230.33,1032.18 1228.91,1031.3 1227.48,1030.41 1226.05,1029.52 1224.62,1028.63 1223.2,1027.75 1221.77,1026.86 1220.34,1025.97 1218.92,1025.09 1217.49,1024.2 1216.06,1023.31 1214.63,1022.42 1213.21,1021.54 1211.78,1020.65 1210.35,1019.76 1208.92,1018.88 1207.5,1017.99 1206.07,1017.1 1204.64,1016.21 1203.22,1015.33 1201.79,1014.44 1200.36,1013.55 1198.93,1012.67 1197.51,1011.78 1196.08,1010.89 1194.65,1010.01 1193.23,1009.12 1191.8,1008.23 1190.37,1007.35 1188.94,1006.46 1187.52,1005.57 1186.09,1004.68 1184.66,1003.8 1183.23,1002.91 1181.81,1002.02 1180.38,1001.14 1178.95,1000.25 1177.52,999.365 1176.1,998.478 1174.67,997.591 1173.24,996.705 1171.82,995.818 1170.39,994.932 1168.96,994.045 1167.53,993.159 1166.11,992.272 1164.68,991.386 1163.25,990.499 1161.82,989.613 1160.4,988.726 1158.97,987.84 1157.54,986.954 1156.11,986.067 1154.69,985.181 1153.26,984.295 1151.83,983.408 1150.41,982.522 1148.98,981.636 1147.55,980.75 1146.12,979.864 1144.7,978.977 1143.27,978.091 1141.84,977.205 1140.41,976.319 1138.99,975.433 1137.56,974.547 1136.13,973.661 1134.7,972.775 1133.28,971.889 1131.85,971.003 1130.42,970.117 1128.99,969.231 1127.57,968.345 1126.14,967.459 1124.71,966.573 1123.28,965.687 1121.86,964.801 1120.43,963.915 1119,963.029 1117.57,962.144 1116.15,961.258 1114.72,960.372 1113.29,959.486 1111.86,958.6 1110.44,957.715 1109.01,956.829 1107.58,955.943 1106.15,955.058 1104.73,954.172 1103.3,953.287 1101.87,952.401 1100.45,951.515 1099.02,950.63 1097.59,949.744 1096.16,948.859 1094.73,947.973 1093.31,947.088 1091.88,946.202 1090.45,945.317 1089.02,944.431 1087.6,943.546 1086.17,942.661 1084.74,941.775 1083.31,940.89 1081.89,940.005 1080.46,939.119 1079.03,938.234 1077.6,937.349 1076.18,936.464 1074.75,935.578 1073.32,934.693 1071.89,933.808 1070.47,932.923 1069.04,932.038 1067.61,931.153 1066.18,930.268 1064.76,929.382 1063.33,928.497 1061.9,927.612 1060.47,926.727 1059.05,925.842 1057.62,924.957 1056.19,924.072 1054.76,923.187 1053.34,922.303 1051.91,921.418 1050.48,920.533 1049.05,919.648 1047.63,918.763 1046.2,917.878 1044.77,916.993 1043.34,916.109 1041.91,915.224 1040.49,914.339 1039.06,913.454 1037.63,912.57 1036.2,911.685 1034.78,910.8 1033.35,909.916 1031.92,909.031 1030.49,908.147 1029.07,907.262 1027.64,906.377 1026.21,905.493 1024.78,904.608 1023.36,903.724 1021.93,902.839 1020.5,901.955 1019.07,901.07 1017.64,900.186 1016.22,899.302 1014.79,898.417 1013.36,897.533 1011.93,896.649 1010.51,895.764 1009.08,894.88 1007.65,893.996 1006.22,893.111 1004.79,892.227 1003.37,891.343 1001.94,890.459 1000.51,889.574 999.084,888.69 997.656,887.806 996.228,886.922 994.801,886.038 993.373,885.154 991.945,884.27 990.517,883.386 989.09,882.502 987.662,881.618 986.234,880.734 984.806,879.85 983.379,878.966 981.951,878.082 980.523,877.198 979.095,876.314 977.667,875.43 976.24,874.546 974.812,873.663 973.384,872.779 971.956,871.895 970.528,871.011 969.101,870.127 967.673,869.244 966.245,868.36 964.817,867.476 963.389,866.593 961.961,865.709 960.534,864.825 959.106,863.942 957.678,863.058 956.25,862.175 954.822,861.291 953.394,860.407 951.966,859.524 950.539,858.64 949.111,857.757 947.683,856.874 946.255,855.99 944.827,855.107 943.399,854.223 941.971,853.34 940.543,852.457 939.116,851.573 937.688,850.69 936.26,849.807 934.832,848.923 933.404,848.04 931.976,847.157 930.548,846.274 929.12,845.39 927.692,844.507 926.264,843.624 924.837,842.741 923.409,841.858 921.981,840.975 920.553,840.092 919.125,839.209 917.697,838.326 916.269,837.443 914.841,836.56 913.413,835.677 911.985,834.794 910.557,833.911 909.129,833.028 907.701,832.145 906.273,831.262 904.845,830.379 903.417,829.496 901.989,828.614 900.561,827.731 899.133,826.848 897.705,825.965 896.277,825.082 894.849,824.2 893.421,823.317 891.993,822.434 890.565,821.552 889.137,820.669 887.709,819.786 886.281,818.904 884.853,818.021 883.425,817.139 881.997,816.256 880.569,815.374 879.141,814.491 877.713,813.609 876.285,812.726 874.857,811.844 873.429,810.961 872.001,810.079 870.573,809.197 869.145,808.314 867.717,807.432 866.289,806.55 864.861,805.667 863.433,804.785 862.005,803.903 860.576,803.02 859.148,802.138 857.72,801.256 856.292,800.374 854.864,799.492 853.436,798.61 852.008,797.727 850.58,796.845 849.152,795.963 847.724,795.081 846.295,794.199 844.867,793.317 843.439,792.435 842.011,791.553 840.583,790.671 839.155,789.789 837.727,788.907 836.299,788.025 834.87,787.143 833.442,786.262 832.014,785.38 830.586,784.498 829.158,783.616 827.73,782.734 826.302,781.853 824.873,780.971 823.445,780.089 822.017,779.207 820.589,778.326 819.161,777.444 817.732,776.562 816.304,775.681 814.876,774.799 813.448,773.918 812.02,773.036 810.592,772.154 809.163,771.273 807.735,770.391 806.307,769.51 804.879,768.628 803.45,767.747 802.022,766.866 800.594,765.984 799.166,765.103 797.738,764.221 796.309,763.34 794.881,762.459 793.453,761.577 792.025,760.696 790.596,759.815 789.168,758.934 787.74,758.052 786.312,757.171 784.883,756.29 783.455,755.409 782.027,754.528 780.599,753.646 779.17,752.765 777.742,751.884 776.314,751.003 774.885,750.122 773.457,749.241 772.029,748.36 770.601,747.479 769.172,746.598 767.744,745.717 766.316,744.836 764.887,743.955 763.459,743.074 762.031,742.194 760.602,741.313 759.174,740.432 757.746,739.551 756.317,738.67 754.889,737.789 753.461,736.909 752.032,736.028 750.604,735.147 749.176,734.267 747.747,733.386 746.319,732.505 744.891,731.625 743.462,730.744 742.034,729.863 740.605,728.983 739.177,728.102 737.749,727.222 736.32,726.341 734.892,725.461 733.464,724.58 732.035,723.7 730.607,722.819 729.178,721.939 727.75,721.058 726.322,720.178 724.893,719.298 723.465,718.417 722.036,717.537 720.608,716.657 719.18,715.776 717.751,714.896 716.323,714.016 714.894,713.136 713.466,712.256 712.037,711.375 710.609,710.495 709.181,709.615 707.752,708.735 706.324,707.855 704.895,706.975 703.467,706.095 702.038,705.215 700.61,704.335 699.181,703.455 697.753,702.575 696.324,701.695 694.896,700.815 693.467,699.935 692.039,699.055 690.61,698.175 689.182,697.295 687.753,696.415 686.325,695.536 684.896,694.656 683.468,693.776 682.039,692.896 680.611,692.016 679.182,691.137 677.754,690.257 676.325,689.377 674.897,688.498 673.468,687.618 672.04,686.738 670.611,685.859 669.183,684.979 667.754,684.1 666.326,683.22 664.897,682.341 663.468,681.461 662.04,680.582 660.611,679.702 659.183,678.823 657.754,677.943 656.326,677.064 654.897,676.184 653.468,675.305 652.04,674.426 650.611,673.546 649.183,672.667 647.754,671.788 646.326,670.908 644.897,670.029 643.468,669.15 642.04,668.271 640.611,667.392 639.182,666.512 637.754,665.633 636.325,664.754 634.897,663.875 633.468,662.996 632.039,662.117 630.611,661.238 629.182,660.359 627.753,659.48 626.325,658.601 624.896,657.722 623.468,656.843 622.039,655.964 620.61,655.085 619.182,654.206 617.753,653.327 616.324,652.448 614.896,651.57 613.467,650.691 612.038,649.812 610.609,648.933 609.181,648.054 607.752,647.176 606.323,646.297 604.895,645.418 603.466,644.54 602.037,643.661 600.609,642.782 599.18,641.904 597.751,641.025 596.322,640.147 594.894,639.268 593.465,638.389 592.036,637.511 590.608,636.632 589.179,635.754 587.75,634.876 586.321,633.997 584.893,633.119 583.464,632.24 582.035,631.362 580.606,630.484 579.178,629.605 577.749,628.727 576.32,627.849 574.891,626.97 573.463,626.092 572.034,625.214 570.605,624.336 569.176,623.457 567.747,622.579 566.319,621.701 564.89,620.823 563.461,619.945 562.032,619.067 560.603,618.189 559.175,617.311 557.746,616.433 556.317,615.555 554.888,614.677 553.459,613.799 552.031,612.921 550.602,612.043 549.173,611.165 547.744,610.287 546.315,609.409 544.886,608.531 543.458,607.653 542.029,606.775 540.6,605.898 539.171,605.02 537.742,604.142 536.313,603.264 534.884,602.387 533.456,601.509 532.027,600.631 530.598,599.754 529.169,598.876 527.74,597.998 526.311,597.121 524.882,596.243 523.453,595.366 522.024,594.488 520.596,593.61 519.167,592.733 517.738,591.855 516.309,590.978 514.88,590.101 513.451,589.223 512.022,588.346 510.593,587.468 509.164,586.591 507.735,585.714 506.306,584.836 504.877,583.959 503.448,583.082 502.02,582.204 500.591,581.327 499.162,580.45 497.733,579.573 496.304,578.696 494.875,577.818 493.446,576.941 492.017,576.064 490.588,575.187 489.159,574.31 487.73,573.433 486.301,572.556 484.872,571.679 483.443,570.802 482.014,569.925 480.585,569.048 479.156,568.171 477.727,567.294 476.298,566.417 474.869,565.54 473.44,564.663 472.011,563.786 470.582,562.91 469.153,562.033 467.724,561.156 466.295,560.279 464.866,559.403 463.437,558.526 462.008,557.649 460.579,556.772 459.15,555.896 457.721,555.019 456.292,554.142 454.862,553.266 453.433,552.389 452.004,551.513 450.575,550.636 449.146,549.76 447.717,548.883 446.288,548.007 444.859,547.13 443.43,546.254 442.001,545.377 440.572,544.501 439.143,543.624 437.713,542.748 436.284,541.872 434.855,540.995 433.426,540.119 431.997,539.243 430.568,538.366 429.139,537.49 427.71,536.614 426.281,535.738 424.851,534.862 423.422,533.985 421.993,533.109 420.564,532.233 419.135,531.357 417.706,530.481 416.277,529.605 414.847,528.729 413.418,527.853 411.989,526.977 410.56,526.101 409.131,525.225 407.702,524.349 406.272,523.473 404.843,522.597 403.414,521.721 401.985,520.845 400.556,519.969 399.127,519.093 397.697,518.218 396.268,517.342 394.839,516.466 393.41,515.59 391.981,514.715 390.551,513.839 389.122,512.963 387.693,512.088 386.264,511.212 384.834,510.336 383.405,509.461 381.976,508.585 380.547,507.709 379.117,506.834 377.688,505.958 376.259,505.083 374.83,504.207 373.4,503.332 371.971,502.456 370.542,501.581 369.113,500.705 367.683,499.83 "/>
<polyline clip-path="url(#clip401)" style="stroke:#00bfff; stroke-linecap:round; stroke-linejoin:round; stroke-width:8; stroke-opacity:1; fill:none" points="2294.94,197.201 2293.19,197.077 2291.45,196.953 2289.7,196.83 2287.96,196.706 2286.21,196.582 2284.47,196.458 2282.72,196.335 2280.98,196.211 2279.23,196.088 2277.49,195.964 2275.74,195.84 2274,195.717 2272.25,195.593 2270.51,195.47 2268.76,195.346 2267.02,195.223 2265.27,195.099 2263.53,194.976 2261.78,194.853 2260.04,194.729 2258.29,194.606 2256.55,194.482 2254.8,194.359 2253.06,194.236 2251.31,194.113 2249.57,193.989 2247.82,193.866 2246.08,193.743 2244.33,193.62 2242.59,193.497 2240.84,193.374 2239.1,193.25 2237.35,193.127 2235.61,193.004 2233.86,192.881 2232.12,192.758 2230.37,192.635 2228.63,192.512 2226.88,192.389 2225.14,192.266 2223.39,192.144 2221.65,192.021 2219.9,191.898 2218.16,191.775 2216.41,191.652 2214.67,191.529 2212.92,191.407 2211.18,191.284 2209.43,191.161 2207.69,191.039 2205.94,190.916 2204.2,190.793 2202.45,190.671 2200.71,190.548 2198.96,190.425 2197.22,190.303 2195.47,190.18 2193.73,190.058 2191.98,189.935 2190.24,189.813 2188.49,189.69 2186.75,189.568 2185,189.446 2183.25,189.323 2181.51,189.201 2179.76,189.079 2178.02,188.956 2176.27,188.834 2174.53,188.712 2172.78,188.59 2171.04,188.467 2169.29,188.345 2167.55,188.223 2165.8,188.101 2164.06,187.979 2162.31,187.857 2160.57,187.735 2158.82,187.613 2157.08,187.491 2155.33,187.369 2153.59,187.247 2151.84,187.125 2150.09,187.003 2148.35,186.881 2146.6,186.759 2144.86,186.637 2143.11,186.515 2141.37,186.393 2139.62,186.272 2137.88,186.15 2136.13,186.028 2134.39,185.906 2132.64,185.785 2130.9,185.663 2129.15,185.541 2127.41,185.42 2125.66,185.298 2123.91,185.176 2122.17,185.055 2120.42,184.933 2118.68,184.812 2116.93,184.69 2115.19,184.569 2113.44,184.447 2111.7,184.326 2109.95,184.205 2108.21,184.083 2106.46,183.962 2104.72,183.841 2102.97,183.719 2101.22,183.598 2099.48,183.477 2097.73,183.355 2095.99,183.234 2094.24,183.113 2092.5,182.992 2090.75,182.871 2089.01,182.75 2087.26,182.629 2085.52,182.507 2083.77,182.386 2082.02,182.265 2080.28,182.144 2078.53,182.023 2076.79,181.902 2075.04,181.782 2073.3,181.661 2071.55,181.54 2069.81,181.419 2068.06,181.298 2066.31,181.177 2064.57,181.056 2062.82,180.936 2061.08,180.815 2059.33,180.694 2057.59,180.573 2055.84,180.453 2054.1,180.332 2052.35,180.211 2050.6,180.091 2048.86,179.97 2047.11,179.85 2045.37,179.729 2043.62,179.609 2041.88,179.488 2040.13,179.368 2038.39,179.247 2036.64,179.127 2034.89,179.006 2033.15,178.886 2031.4,178.766 2029.66,178.645 2027.91,178.525 2026.17,178.405 2024.42,178.285 2022.67,178.164 2020.93,178.044 2019.18,177.924 2017.44,177.804 2015.69,177.684 2013.95,177.563 2012.2,177.443 2010.45,177.323 2008.71,177.203 2006.96,177.083 2005.22,176.963 2003.47,176.843 2001.73,176.723 1999.98,176.603 1998.23,176.483 1996.49,176.364 1994.74,176.244 1993,176.124 1991.25,176.004 1989.51,175.884 1987.76,175.765 1986.01,175.645 1984.27,175.525 1982.52,175.405 1980.78,175.286 1979.03,175.166 1977.29,175.046 1975.54,174.927 1973.79,174.807 1972.05,174.688 1970.3,174.568 1968.56,174.449 1966.81,174.329 1965.06,174.21 1963.32,174.09 1961.57,173.971 1959.83,173.851 1958.08,173.732 1956.33,173.613 1954.59,173.493 1952.84,173.374 1951.1,173.255 1949.35,173.136 1947.61,173.016 1945.86,172.897 1944.11,172.778 1942.37,172.659 1940.62,172.54 1938.88,172.421 1937.13,172.302 1935.38,172.183 1933.64,172.064 1931.89,171.944 1930.15,171.826 1928.4,171.707 1926.65,171.588 1924.91,171.469 1923.16,171.35 1921.42,171.231 1919.67,171.112 1917.92,170.993 1916.18,170.874 1914.43,170.756 1912.69,170.637 1910.94,170.518 1909.19,170.4 1907.45,170.281 1905.7,170.162 1903.96,170.044 1902.21,169.925 1900.46,169.806 1898.72,169.688 1896.97,169.569 1895.23,169.451 1893.48,169.332 1891.73,169.214 1889.99,169.095 1888.24,168.977 1886.5,168.859 1884.75,168.74 1883,168.622 1881.26,168.504 1879.51,168.385 1877.77,168.267 1876.02,168.149 1874.27,168.031 1872.53,167.912 1870.78,167.794 1869.03,167.676 1867.29,167.558 1865.54,167.44 1863.8,167.322 1862.05,167.204 1860.3,167.086 1858.56,166.968 1856.81,166.85 1855.07,166.732 1853.32,166.614 1851.57,166.496 1849.83,166.378 1848.08,166.26 1846.33,166.142 1844.59,166.024 1842.84,165.907 1841.1,165.789 1839.35,165.671 1837.6,165.553 1835.86,165.436 1834.11,165.318 1832.36,165.2 1830.62,165.083 1828.87,164.965 1827.13,164.848 1825.38,164.73 1823.63,164.613 1821.89,164.495 1820.14,164.378 1818.39,164.26 1816.65,164.143 1814.9,164.025 1813.16,163.908 1811.41,163.791 1809.66,163.673 1807.92,163.556 1806.17,163.439 1804.42,163.321 1802.68,163.204 1800.93,163.087 1799.19,162.97 1797.44,162.853 1795.69,162.735 1793.95,162.618 1792.2,162.501 1790.45,162.384 1788.71,162.267 1786.96,162.15 1785.21,162.033 1783.47,161.916 1781.72,161.799 1779.98,161.682 1778.23,161.565 1776.48,161.449 1774.74,161.332 1772.99,161.215 1771.24,161.098 1769.5,160.981 1767.75,160.865 1766,160.748 1764.26,160.631 1762.51,160.514 1760.76,160.398 1759.02,160.281 1757.27,160.165 1755.52,160.048 1753.78,159.931 1752.03,159.815 1750.29,159.698 1748.54,159.582 1746.79,159.466 1745.05,159.349 1743.3,159.233 1741.55,159.116 1739.81,159 1738.06,158.884 1736.31,158.767 1734.57,158.651 1732.82,158.535 1731.07,158.419 1729.33,158.302 1727.58,158.186 1725.83,158.07 1724.09,157.954 1722.34,157.838 1720.59,157.722 1718.85,157.606 1717.1,157.49 1715.35,157.374 1713.61,157.258 1711.86,157.142 1710.11,157.026 1708.37,156.91 1706.62,156.794 1704.87,156.678 1703.13,156.562 1701.38,156.446 1699.63,156.331 1697.89,156.215 1696.14,156.099 1694.39,155.983 1692.65,155.868 1690.9,155.752 1689.15,155.636 1687.41,155.521 1685.66,155.405 1683.91,155.29 1682.17,155.174 1680.42,155.058 1678.67,154.943 1676.93,154.828 1675.18,154.712 1673.43,154.597 1671.69,154.481 1669.94,154.366 1668.19,154.251 1666.45,154.135 1664.7,154.02 1662.95,153.905 1661.21,153.789 1659.46,153.674 1657.71,153.559 1655.97,153.444 1654.22,153.329 1652.47,153.214 1650.73,153.098 1648.98,152.983 1647.23,152.868 1645.48,152.753 1643.74,152.638 1641.99,152.523 1640.24,152.408 1638.5,152.293 1636.75,152.179 1635,152.064 1633.26,151.949 1631.51,151.834 1629.76,151.719 1628.02,151.605 1626.27,151.49 1624.52,151.375 1622.78,151.26 1621.03,151.146 1619.28,151.031 1617.53,150.916 1615.79,150.802 1614.04,150.687 1612.29,150.573 1610.55,150.458 1608.8,150.344 1607.05,150.229 1605.31,150.115 1603.56,150 1601.81,149.886 1600.06,149.772 1598.32,149.657 1596.57,149.543 1594.82,149.429 1593.08,149.314 1591.33,149.2 1589.58,149.086 1587.84,148.972 1586.09,148.858 1584.34,148.743 1582.59,148.629 1580.85,148.515 1579.1,148.401 1577.35,148.287 1575.61,148.173 1573.86,148.059 1572.11,147.945 1570.37,147.831 1568.62,147.717 1566.87,147.603 1565.12,147.49 1563.38,147.376 1561.63,147.262 1559.88,147.148 1558.14,147.034 1556.39,146.921 1554.64,146.807 1552.89,146.693 1551.15,146.58 1549.4,146.466 1547.65,146.352 1545.91,146.239 1544.16,146.125 1542.41,146.012 1540.66,145.898 1538.92,145.785 1537.17,145.671 1535.42,145.558 1533.67,145.444 1531.93,145.331 1530.18,145.218 1528.43,145.104 1526.69,144.991 1524.94,144.878 1523.19,144.765 1521.44,144.651 1519.7,144.538 1517.95,144.425 1516.2,144.312 1514.45,144.199 1512.71,144.086 1510.96,143.973 1509.21,143.859 1507.47,143.746 1505.72,143.633 1503.97,143.521 1502.22,143.408 1500.48,143.295 1498.73,143.182 1496.98,143.069 1495.23,142.956 1493.49,142.843 1491.74,142.73 1489.99,142.618 1488.24,142.505 1486.5,142.392 1484.75,142.28 1483,142.167 1481.26,142.054 1479.51,141.942 1477.76,141.829 1476.01,141.717 1474.27,141.604 1472.52,141.492 1470.77,141.379 1469.02,141.267 1467.28,141.154 1465.53,141.042 1463.78,140.929 1462.03,140.817 1460.29,140.705 1458.54,140.593 1456.79,140.48 1455.04,140.368 1453.3,140.256 1451.55,140.144 1449.8,140.031 1448.05,139.919 1446.31,139.807 1444.56,139.695 1442.81,139.583 1441.06,139.471 1439.32,139.359 1437.57,139.247 1435.82,139.135 1434.07,139.023 1432.33,138.911 1430.58,138.799 1428.83,138.688 1427.08,138.576 1425.34,138.464 1423.59,138.352 1421.84,138.24 1420.09,138.129 1418.34,138.017 1416.6,137.905 1414.85,137.794 1413.1,137.682 1411.35,137.571 1409.61,137.459 1407.86,137.348 1406.11,137.236 1404.36,137.125 1402.62,137.013 1400.87,136.902 1399.12,136.79 1397.37,136.679 1395.63,136.568 1393.88,136.456 1392.13,136.345 1390.38,136.234 1388.63,136.122 1386.89,136.011 1385.14,135.9 1383.39,135.789 1381.64,135.678 1379.9,135.567 1378.15,135.456 1376.4,135.345 1374.65,135.234 1372.9,135.123 1371.16,135.012 1369.41,134.901 1367.66,134.79 1365.91,134.679 1364.17,134.568 1362.42,134.457 1360.67,134.346 1358.92,134.236 1357.17,134.125 1355.43,134.014 1353.68,133.903 1351.93,133.793 1350.18,133.682 1348.43,133.571 1346.69,133.461 1344.94,133.35 1343.19,133.24 1341.44,133.129 1339.69,133.019 1337.95,132.908 1336.2,132.798 1334.45,132.687 1332.7,132.577 1330.96,132.467 1329.21,132.356 1327.46,132.246 1325.71,132.136 1323.96,132.026 1322.22,131.915 1320.47,131.805 1318.72,131.695 1316.97,131.585 1315.22,131.475 1313.48,131.365 1311.73,131.255 1309.98,131.145 1308.23,131.035 1306.48,130.925 1304.74,130.815 1302.99,130.705 1301.24,130.595 1299.49,130.485 1297.74,130.375 1295.99,130.265 1294.25,130.156 1292.5,130.046 1290.75,129.936 1289,129.826 1287.25,129.717 1285.51,129.607 1283.76,129.498 1282.01,129.388 1280.26,129.278 1278.51,129.169 1276.77,129.059 1275.02,128.95 1273.27,128.84 1271.52,128.731 1269.77,128.622 1268.02,128.512 1266.28,128.403 1264.53,128.294 1262.78,128.184 1261.03,128.075 1259.28,127.966 1257.54,127.857 1255.79,127.747 1254.04,127.638 1252.29,127.529 1250.54,127.42 1248.79,127.311 1247.05,127.202 1245.3,127.093 1243.55,126.984 1241.8,126.875 1240.05,126.766 1238.3,126.657 1236.56,126.548 1234.81,126.44 1233.06,126.331 1231.31,126.222 1229.56,126.113 1227.81,126.005 1226.07,125.896 1224.32,125.787 1222.57,125.678 1220.82,125.57 1219.07,125.461 1217.32,125.353 1215.58,125.244 1213.83,125.136 1212.08,125.027 1210.33,124.919 1208.58,124.81 1206.83,124.702 1205.08,124.594 1203.34,124.485 1201.59,124.377 1199.84,124.269 1198.09,124.16 1196.34,124.052 1194.59,123.944 1192.85,123.836 1191.1,123.728 1189.35,123.62 1187.6,123.512 1185.85,123.404 1184.1,123.296 1182.35,123.188 1180.61,123.08 1178.86,122.972 1177.11,122.864 1175.36,122.756 1173.61,122.648 1171.86,122.54 1170.11,122.432 1168.37,122.325 1166.62,122.217 1164.87,122.109 1163.12,122.002 1161.37,121.894 1159.62,121.786 1157.87,121.679 1156.13,121.571 1154.38,121.464 1152.63,121.356 1150.88,121.249 1149.13,121.141 1147.38,121.034 1145.63,120.926 1143.88,120.819 1142.14,120.712 1140.39,120.604 1138.64,120.497 1136.89,120.39 1135.14,120.283 1133.39,120.175 1131.64,120.068 1129.89,119.961 1128.15,119.854 1126.4,119.747 1124.65,119.64 1122.9,119.533 1121.15,119.426 1119.4,119.319 1117.65,119.212 1115.9,119.105 1114.16,118.998 1112.41,118.892 1110.66,118.785 1108.91,118.678 1107.16,118.571 1105.41,118.465 1103.66,118.358 1101.91,118.251 1100.16,118.145 1098.42,118.038 1096.67,117.931 1094.92,117.825 1093.17,117.718 1091.42,117.612 1089.67,117.505 1087.92,117.399 1086.17,117.293 1084.42,117.186 1082.68,117.08 1080.93,116.974 1079.18,116.867 1077.43,116.761 1075.68,116.655 1073.93,116.549 1072.18,116.443 1070.43,116.336 1068.68,116.23 1066.93,116.124 1065.19,116.018 1063.44,115.912 1061.69,115.806 1059.94,115.7 1058.19,115.594 1056.44,115.488 1054.69,115.383 1052.94,115.277 1051.19,115.171 1049.44,115.065 1047.69,114.96 1045.94,114.854 1044.2,114.748 1042.45,114.642 1040.7,114.537 1038.95,114.431 1037.2,114.326 1035.45,114.22 1033.7,114.115 1031.95,114.009 1030.2,113.904 1028.45,113.798 1026.7,113.693 1024.95,113.588 1023.21,113.482 1021.46,113.377 1019.71,113.272 1017.96,113.167 1016.21,113.062 1014.46,112.956 1012.71,112.851 1010.96,112.746 1009.21,112.641 1007.46,112.536 1005.71,112.431 1003.96,112.326 1002.21,112.221 1000.46,112.116 998.715,112.011 996.966,111.907 995.217,111.802 993.467,111.697 991.718,111.592 989.968,111.487 988.219,111.383 986.47,111.278 984.72,111.173 982.971,111.069 981.221,110.964 979.472,110.86 977.722,110.755 975.973,110.651 974.223,110.546 972.474,110.442 970.724,110.338 968.975,110.233 967.225,110.129 965.476,110.025 963.726,109.92 961.977,109.816 960.227,109.712 958.478,109.608 956.728,109.504 954.979,109.4 953.229,109.295 951.48,109.191 949.73,109.087 947.98,108.983 946.231,108.88 944.481,108.776 942.731,108.672 940.982,108.568 939.232,108.464 937.483,108.36 935.733,108.257 933.983,108.153 932.234,108.049 930.484,107.946 928.734,107.842 926.984,107.738 925.235,107.635 923.485,107.531 921.735,107.428 919.986,107.324 918.236,107.221 916.486,107.118 914.736,107.014 912.986,106.911 911.237,106.808 909.487,106.704 907.737,106.601 905.987,106.498 904.237,106.395 902.488,106.292 900.738,106.188 898.988,106.085 897.238,105.982 895.488,105.879 893.738,105.776 891.988,105.673 890.239,105.571 888.489,105.468 886.739,105.365 884.989,105.262 883.239,105.159 881.489,105.057 879.739,104.954 877.989,104.851 876.239,104.749 874.489,104.646 872.739,104.543 870.989,104.441 869.239,104.338 867.489,104.236 865.739,104.133 863.989,104.031 862.239,103.929 860.489,103.826 858.739,103.724 856.989,103.622 855.239,103.519 853.489,103.417 851.739,103.315 849.988,103.213 848.238,103.111 846.488,103.009 844.738,102.907 842.988,102.805 841.238,102.703 839.488,102.601 837.737,102.499 835.987,102.397 834.237,102.295 832.487,102.193 830.737,102.092 828.986,101.99 827.236,101.888 825.486,101.787 823.736,101.685 821.985,101.583 820.235,101.482 818.485,101.38 816.735,101.279 814.984,101.177 813.234,101.076 811.484,100.974 809.733,100.873 807.983,100.772 806.233,100.671 804.482,100.569 802.732,100.468 800.982,100.367 799.231,100.266 797.481,100.165 795.73,100.064 793.98,99.9625 792.229,99.8615 790.479,99.7605 788.729,99.6596 786.978,99.5587 785.228,99.4578 783.477,99.357 781.727,99.2562 779.976,99.1555 778.226,99.0547 776.475,98.954 774.725,98.8534 772.974,98.7528 771.224,98.6522 769.473,98.5516 767.722,98.4511 765.972,98.3507 764.221,98.2502 762.471,98.1498 760.72,98.0494 758.969,97.9491 757.219,97.8488 755.468,97.7486 753.717,97.6483 751.967,97.5481 750.216,97.448 748.465,97.3479 746.715,97.2478 744.964,97.1478 743.213,97.0478 741.463,96.9478 739.712,96.8478 737.961,96.7479 736.21,96.6481 734.459,96.5483 732.709,96.4485 730.958,96.3487 729.207,96.249 727.456,96.1493 725.705,96.0497 723.955,95.9501 722.204,95.8505 720.453,95.751 718.702,95.6515 716.951,95.552 715.2,95.4526 713.449,95.3532 711.698,95.2539 709.948,95.1546 708.197,95.0553 706.446,94.9561 704.695,94.8569 702.944,94.7577 701.193,94.6586 699.442,94.5595 697.691,94.4605 695.94,94.3615 694.189,94.2625 692.438,94.1636 690.687,94.0647 688.936,93.9658 687.184,93.867 685.433,93.7682 683.682,93.6695 681.931,93.5708 680.18,93.4721 678.429,93.3735 676.678,93.2749 674.927,93.1763 673.175,93.0778 671.424,92.9793 669.673,92.8809 667.922,92.7825 666.171,92.6842 664.419,92.5858 662.668,92.4876 660.917,92.3893 659.166,92.2911 657.414,92.1929 655.663,92.0948 653.912,91.9967 652.161,91.8987 650.409,91.8007 648.658,91.7027 646.907,91.6048 645.155,91.5069 643.404,91.409 641.652,91.3112 639.901,91.2135 638.15,91.1157 636.398,91.018 634.647,90.9204 632.895,90.8228 631.144,90.7252 629.392,90.6277 627.641,90.5302 625.89,90.4327 624.138,90.3353 622.387,90.2379 620.635,90.1406 618.883,90.0433 617.132,89.9461 615.38,89.8489 613.629,89.7517 611.877,89.6546 610.126,89.5575 608.374,89.4604 606.622,89.3634 604.871,89.2665 603.119,89.1695 601.367,89.0727 599.616,88.9758 597.864,88.879 596.112,88.7823 594.361,88.6855 592.609,88.5889 590.857,88.4922 589.105,88.3956 587.354,88.2991 585.602,88.2026 583.85,88.1061 582.098,88.0097 580.346,87.9133 578.595,87.817 576.843,87.7207 575.091,87.6244 573.339,87.5282 571.587,87.432 569.835,87.3359 568.083,87.2398 566.331,87.1438 564.579,87.0478 562.827,86.9518 561.075,86.8559 559.324,86.76 557.572,86.6642 555.82,86.5684 554.067,86.4726 552.315,86.3769 550.563,86.2813 548.811,86.1857 "/>
<path clip-path="url(#clip400)" d="M377.962 1377.32 L986.578 1377.32 L986.578 1221.8 L377.962 1221.8  Z" fill="#ffffff" fill-rule="evenodd" fill-opacity="1"/>
<polyline clip-path="url(#clip400)" style="stroke:#000000; stroke-linecap:round; stroke-linejoin:round; stroke-width:4; stroke-opacity:1; fill:none" points="377.962,1377.32 986.578,1377.32 986.578,1221.8 377.962,1221.8 377.962,1377.32 "/>
<polyline clip-path="url(#clip400)" style="stroke:#008000; stroke-linecap:round; stroke-linejoin:round; stroke-width:8; stroke-opacity:1; fill:none" points="400.661,1273.64 536.854,1273.64 "/>
<path clip-path="url(#clip400)" d="M559.552 1256.36 L581.404 1256.36 L581.404 1260.29 L564.228 1260.29 L564.228 1270.52 L580.687 1270.52 L580.687 1274.46 L564.228 1274.46 L564.228 1286.98 L581.821 1286.98 L581.821 1290.92 L559.552 1290.92 L559.552 1256.36 Z" fill="#000000" fill-rule="nonzero" fill-opacity="1" /><path clip-path="url(#clip400)" d="M601.103 1277.88 Q595.941 1277.88 593.95 1279.06 Q591.96 1280.24 591.96 1283.09 Q591.96 1285.36 593.441 1286.7 Q594.946 1288.02 597.515 1288.02 Q601.057 1288.02 603.186 1285.52 Q605.339 1283 605.339 1278.83 L605.339 1277.88 L601.103 1277.88 M609.598 1276.12 L609.598 1290.92 L605.339 1290.92 L605.339 1286.98 Q603.881 1289.34 601.705 1290.48 Q599.529 1291.59 596.381 1291.59 Q592.399 1291.59 590.038 1289.36 Q587.7 1287.12 587.7 1283.37 Q587.7 1278.99 590.617 1276.77 Q593.557 1274.55 599.367 1274.55 L605.339 1274.55 L605.339 1274.13 Q605.339 1271.19 603.395 1269.6 Q601.473 1267.98 597.978 1267.98 Q595.756 1267.98 593.649 1268.51 Q591.543 1269.04 589.598 1270.11 L589.598 1266.17 Q591.936 1265.27 594.136 1264.83 Q596.335 1264.36 598.418 1264.36 Q604.043 1264.36 606.821 1267.28 Q609.598 1270.2 609.598 1276.12 Z" fill="#000000" fill-rule="nonzero" fill-opacity="1" /><path clip-path="url(#clip400)" d="M633.395 1268.97 Q632.677 1268.55 631.82 1268.37 Q630.987 1268.16 629.969 1268.16 Q626.358 1268.16 624.413 1270.52 Q622.492 1272.86 622.492 1277.26 L622.492 1290.92 L618.209 1290.92 L618.209 1264.99 L622.492 1264.99 L622.492 1269.02 Q623.834 1266.66 625.987 1265.52 Q628.14 1264.36 631.219 1264.36 Q631.658 1264.36 632.191 1264.43 Q632.723 1264.48 633.371 1264.6 L633.395 1268.97 Z" fill="#000000" fill-rule="nonzero" fill-opacity="1" /><path clip-path="url(#clip400)" d="M642.075 1257.63 L642.075 1264.99 L650.848 1264.99 L650.848 1268.3 L642.075 1268.3 L642.075 1282.37 Q642.075 1285.54 642.932 1286.45 Q643.811 1287.35 646.473 1287.35 L650.848 1287.35 L650.848 1290.92 L646.473 1290.92 Q641.543 1290.92 639.668 1289.09 Q637.793 1287.23 637.793 1282.37 L637.793 1268.3 L634.668 1268.3 L634.668 1264.99 L637.793 1264.99 L637.793 1257.63 L642.075 1257.63 Z" fill="#000000" fill-rule="nonzero" fill-opacity="1" /><path clip-path="url(#clip400)" d="M678.001 1275.27 L678.001 1290.92 L673.742 1290.92 L673.742 1275.41 Q673.742 1271.73 672.306 1269.9 Q670.871 1268.07 668.001 1268.07 Q664.552 1268.07 662.561 1270.27 Q660.57 1272.47 660.57 1276.26 L660.57 1290.92 L656.288 1290.92 L656.288 1254.9 L660.57 1254.9 L660.57 1269.02 Q662.098 1266.68 664.158 1265.52 Q666.242 1264.36 668.95 1264.36 Q673.417 1264.36 675.709 1267.14 Q678.001 1269.9 678.001 1275.27 Z" fill="#000000" fill-rule="nonzero" fill-opacity="1" /><polyline clip-path="url(#clip400)" style="stroke:#00bfff; stroke-linecap:round; stroke-linejoin:round; stroke-width:8; stroke-opacity:1; fill:none" points="400.661,1325.48 536.854,1325.48 "/>
<path clip-path="url(#clip400)" d="M565.177 1338.82 L581.497 1338.82 L581.497 1342.76 L559.552 1342.76 L559.552 1338.82 Q562.214 1336.07 566.798 1331.44 Q571.404 1326.78 572.585 1325.44 Q574.83 1322.92 575.71 1321.18 Q576.612 1319.42 576.612 1317.73 Q576.612 1314.98 574.668 1313.24 Q572.747 1311.51 569.645 1311.51 Q567.446 1311.51 564.992 1312.27 Q562.562 1313.03 559.784 1314.58 L559.784 1309.86 Q562.608 1308.73 565.062 1308.15 Q567.515 1307.57 569.552 1307.57 Q574.923 1307.57 578.117 1310.26 Q581.311 1312.94 581.311 1317.43 Q581.311 1319.56 580.501 1321.48 Q579.714 1323.38 577.608 1325.97 Q577.029 1326.64 573.927 1329.86 Q570.825 1333.06 565.177 1338.82 Z" fill="#000000" fill-rule="nonzero" fill-opacity="1" /><path clip-path="url(#clip400)" d="M601.311 1311.27 Q597.7 1311.27 595.872 1314.84 Q594.066 1318.38 594.066 1325.51 Q594.066 1332.62 595.872 1336.18 Q597.7 1339.72 601.311 1339.72 Q604.946 1339.72 606.751 1336.18 Q608.58 1332.62 608.58 1325.51 Q608.58 1318.38 606.751 1314.84 Q604.946 1311.27 601.311 1311.27 M601.311 1307.57 Q607.122 1307.57 610.177 1312.18 Q613.256 1316.76 613.256 1325.51 Q613.256 1334.24 610.177 1338.84 Q607.122 1343.43 601.311 1343.43 Q595.501 1343.43 592.423 1338.84 Q589.367 1334.24 589.367 1325.51 Q589.367 1316.76 592.423 1312.18 Q595.501 1307.57 601.311 1307.57 Z" fill="#000000" fill-rule="nonzero" fill-opacity="1" /><path clip-path="url(#clip400)" d="M625.501 1338.82 L641.82 1338.82 L641.82 1342.76 L619.876 1342.76 L619.876 1338.82 Q622.538 1336.07 627.121 1331.44 Q631.728 1326.78 632.908 1325.44 Q635.154 1322.92 636.033 1321.18 Q636.936 1319.42 636.936 1317.73 Q636.936 1314.98 634.992 1313.24 Q633.07 1311.51 629.969 1311.51 Q627.77 1311.51 625.316 1312.27 Q622.885 1313.03 620.108 1314.58 L620.108 1309.86 Q622.932 1308.73 625.385 1308.15 Q627.839 1307.57 629.876 1307.57 Q635.246 1307.57 638.441 1310.26 Q641.635 1312.94 641.635 1317.43 Q641.635 1319.56 640.825 1321.48 Q640.038 1323.38 637.932 1325.97 Q637.353 1326.64 634.251 1329.86 Q631.149 1333.06 625.501 1338.82 Z" fill="#000000" fill-rule="nonzero" fill-opacity="1" /><path clip-path="url(#clip400)" d="M664.482 1312.27 L652.677 1330.72 L664.482 1330.72 L664.482 1312.27 M663.256 1308.2 L669.135 1308.2 L669.135 1330.72 L674.066 1330.72 L674.066 1334.61 L669.135 1334.61 L669.135 1342.76 L664.482 1342.76 L664.482 1334.61 L648.881 1334.61 L648.881 1330.09 L663.256 1308.2 Z" fill="#000000" fill-rule="nonzero" fill-opacity="1" /><path clip-path="url(#clip400)" d="M694.783 1308.2 L699.806 1308.2 L708.394 1321.04 L717.028 1308.2 L722.051 1308.2 L710.94 1324.79 L722.792 1342.76 L717.769 1342.76 L708.047 1328.06 L698.255 1342.76 L693.209 1342.76 L705.547 1324.31 L694.783 1308.2 Z" fill="#000000" fill-rule="nonzero" fill-opacity="1" /><path clip-path="url(#clip400)" d="M740.477 1312.8 L734.135 1330 L746.843 1330 L740.477 1312.8 M737.838 1308.2 L743.139 1308.2 L756.311 1342.76 L751.449 1342.76 L748.301 1333.89 L732.723 1333.89 L729.575 1342.76 L724.644 1342.76 L737.838 1308.2 Z" fill="#000000" fill-rule="nonzero" fill-opacity="1" /><path clip-path="url(#clip400)" d="M762.584 1338.82 L770.223 1338.82 L770.223 1312.45 L761.912 1314.12 L761.912 1309.86 L770.176 1308.2 L774.852 1308.2 L774.852 1338.82 L782.491 1338.82 L782.491 1342.76 L762.584 1342.76 L762.584 1338.82 Z" fill="#000000" fill-rule="nonzero" fill-opacity="1" /><path clip-path="url(#clip400)" d="M816.634 1306.78 Q813.532 1312.11 812.028 1317.32 Q810.523 1322.52 810.523 1327.87 Q810.523 1333.22 812.028 1338.47 Q813.556 1343.7 816.634 1349.01 L812.931 1349.01 Q809.458 1343.57 807.722 1338.31 Q806.009 1333.06 806.009 1327.87 Q806.009 1322.71 807.722 1317.48 Q809.435 1312.25 812.931 1306.78 L816.634 1306.78 Z" fill="#000000" fill-rule="nonzero" fill-opacity="1" /><path clip-path="url(#clip400)" d="M838.347 1312.27 L826.542 1330.72 L838.347 1330.72 L838.347 1312.27 M837.12 1308.2 L843 1308.2 L843 1330.72 L847.93 1330.72 L847.93 1334.61 L843 1334.61 L843 1342.76 L838.347 1342.76 L838.347 1334.61 L822.745 1334.61 L822.745 1330.09 L837.12 1308.2 Z" fill="#000000" fill-rule="nonzero" fill-opacity="1" /><path clip-path="url(#clip400)" d="M880.176 1319.82 Q876.75 1319.82 874.759 1322.5 Q872.768 1325.16 872.768 1329.82 Q872.768 1334.47 874.736 1337.15 Q876.727 1339.82 880.176 1339.82 Q883.578 1339.82 885.569 1337.13 Q887.56 1334.45 887.56 1329.82 Q887.56 1325.21 885.569 1322.52 Q883.578 1319.82 880.176 1319.82 M880.176 1316.2 Q885.731 1316.2 888.902 1319.82 Q892.074 1323.43 892.074 1329.82 Q892.074 1336.18 888.902 1339.82 Q885.731 1343.43 880.176 1343.43 Q874.597 1343.43 871.426 1339.82 Q868.278 1336.18 868.278 1329.82 Q868.278 1323.43 871.426 1319.82 Q874.597 1316.2 880.176 1316.2 Z" fill="#000000" fill-rule="nonzero" fill-opacity="1" /><path clip-path="url(#clip400)" d="M917.745 1329.82 Q917.745 1325.12 915.8 1322.45 Q913.879 1319.77 910.5 1319.77 Q907.12 1319.77 905.176 1322.45 Q903.254 1325.12 903.254 1329.82 Q903.254 1334.51 905.176 1337.2 Q907.12 1339.86 910.5 1339.86 Q913.879 1339.86 915.8 1337.2 Q917.745 1334.51 917.745 1329.82 M903.254 1320.76 Q904.597 1318.45 906.634 1317.34 Q908.694 1316.2 911.541 1316.2 Q916.263 1316.2 919.203 1319.95 Q922.166 1323.7 922.166 1329.82 Q922.166 1335.93 919.203 1339.68 Q916.263 1343.43 911.541 1343.43 Q908.694 1343.43 906.634 1342.32 Q904.597 1341.18 903.254 1338.87 L903.254 1342.76 L898.972 1342.76 L898.972 1306.74 L903.254 1306.74 L903.254 1320.76 Z" fill="#000000" fill-rule="nonzero" fill-opacity="1" /><path clip-path="url(#clip400)" d="M945.754 1317.59 L945.754 1321.62 Q943.948 1320.7 942.004 1320.23 Q940.06 1319.77 937.976 1319.77 Q934.805 1319.77 933.208 1320.74 Q931.634 1321.71 931.634 1323.66 Q931.634 1325.14 932.768 1326 Q933.902 1326.83 937.328 1327.59 L938.786 1327.92 Q943.323 1328.89 945.222 1330.67 Q947.143 1332.43 947.143 1335.6 Q947.143 1339.21 944.273 1341.32 Q941.425 1343.43 936.425 1343.43 Q934.342 1343.43 932.074 1343.01 Q929.828 1342.62 927.328 1341.81 L927.328 1337.41 Q929.689 1338.63 931.981 1339.26 Q934.273 1339.86 936.518 1339.86 Q939.527 1339.86 941.148 1338.84 Q942.768 1337.8 942.768 1335.93 Q942.768 1334.19 941.587 1333.26 Q940.43 1332.34 936.472 1331.48 L934.99 1331.14 Q931.032 1330.3 929.273 1328.59 Q927.513 1326.85 927.513 1323.84 Q927.513 1320.19 930.106 1318.2 Q932.699 1316.2 937.467 1316.2 Q939.828 1316.2 941.911 1316.55 Q943.995 1316.9 945.754 1317.59 Z" fill="#000000" fill-rule="nonzero" fill-opacity="1" /><path clip-path="url(#clip400)" d="M953.254 1306.78 L956.958 1306.78 Q960.43 1312.25 962.143 1317.48 Q963.879 1322.71 963.879 1327.87 Q963.879 1333.06 962.143 1338.31 Q960.43 1343.57 956.958 1349.01 L953.254 1349.01 Q956.333 1343.7 957.837 1338.47 Q959.365 1333.22 959.365 1327.87 Q959.365 1322.52 957.837 1317.32 Q956.333 1312.11 953.254 1306.78 Z" fill="#000000" fill-rule="nonzero" fill-opacity="1" /></svg>
